<ttFont>
    <TTGlyph name="A" xMin="20" yMin="0" xMax="930" yMax="1434">
      <contour>
        <pt x="702" y="334" on="1"/>
        <pt x="248" y="334" on="1"/>
        <pt x="154" y="0" on="1"/>
        <pt x="20" y="0" on="1"/>
        <pt x="440" y="1434" on="1"/>
        <pt x="508" y="1434" on="1"/>
        <pt x="930" y="0" on="1"/>
        <pt x="797" y="0" on="1"/>
      </contour>
      <contour>
        <pt x="283" y="457" on="1"/>
        <pt x="668" y="457" on="1"/>
        <pt x="479" y="1118" on="1"/>
        <pt x="475" y="1171" on="1"/>
        <pt x="471" y="1118" on="1"/>
      </contour>
    </TTGlyph>
    <TTGlyph name="AE" xMin="20" yMin="0" xMax="1686" yMax="1434">
      <contour>
        <pt x="879" y="0" on="1"/>
        <pt x="879" y="334" on="1"/>
        <pt x="352" y="334" on="1"/>
        <pt x="154" y="0" on="1"/>
        <pt x="20" y="0" on="1"/>
        <pt x="879" y="1434" on="1"/>
        <pt x="1686" y="1434" on="1"/>
        <pt x="1686" y="1311" on="1"/>
        <pt x="1008" y="1311" on="1"/>
        <pt x="1008" y="778" on="1"/>
        <pt x="1556" y="778" on="1"/>
        <pt x="1556" y="655" on="1"/>
        <pt x="1008" y="655" on="1"/>
        <pt x="1008" y="123" on="1"/>
        <pt x="1686" y="123" on="1"/>
        <pt x="1686" y="0" on="1"/>
      </contour>
      <contour>
        <pt x="879" y="457" on="1"/>
        <pt x="879" y="1229" on="1"/>
        <pt x="858" y="1176" on="1"/>
        <pt x="426" y="457" on="1"/>
      </contour>
    </TTGlyph>
    <TTGlyph name="Aacute" xMin="20" yMin="0" xMax="930" yMax="1843">
      <contour>
        <pt x="702" y="334" on="1"/>
        <pt x="248" y="334" on="1"/>
        <pt x="154" y="0" on="1"/>
        <pt x="20" y="0" on="1"/>
        <pt x="440" y="1434" on="1"/>
        <pt x="508" y="1434" on="1"/>
        <pt x="930" y="0" on="1"/>
        <pt x="797" y="0" on="1"/>
      </contour>
      <contour>
        <pt x="283" y="457" on="1"/>
        <pt x="668" y="457" on="1"/>
        <pt x="479" y="1118" on="1"/>
        <pt x="475" y="1171" on="1"/>
        <pt x="471" y="1118" on="1"/>
      </contour>
      <contour>
        <pt x="424" y="1597" on="1"/>
        <pt x="332" y="1597" on="1"/>
        <pt x="496" y="1843" on="1"/>
        <pt x="700" y="1843" on="1"/>
      </contour>
    </TTGlyph>
    <TTGlyph name="Acircumflex" xMin="20" yMin="0" xMax="930" yMax="1843">
      <contour>
        <pt x="702" y="334" on="1"/>
        <pt x="248" y="334" on="1"/>
        <pt x="154" y="0" on="1"/>
        <pt x="20" y="0" on="1"/>
        <pt x="440" y="1434" on="1"/>
        <pt x="508" y="1434" on="1"/>
        <pt x="930" y="0" on="1"/>
        <pt x="797" y="0" on="1"/>
      </contour>
      <contour>
        <pt x="283" y="457" on="1"/>
        <pt x="668" y="457" on="1"/>
        <pt x="479" y="1118" on="1"/>
        <pt x="475" y="1171" on="1"/>
        <pt x="471" y="1118" on="1"/>
      </contour>
      <contour>
        <pt x="741" y="1597" on="1"/>
        <pt x="618" y="1597" on="1"/>
        <pt x="475" y="1761" on="1"/>
        <pt x="332" y="1597" on="1"/>
        <pt x="209" y="1597" on="1"/>
        <pt x="414" y="1843" on="1"/>
        <pt x="537" y="1843" on="1"/>
      </contour>
    </TTGlyph>
    <TTGlyph name="Adieresis" xMin="20" yMin="0" xMax="930" yMax="1794">
      <contour>
        <pt x="702" y="334" on="1"/>
        <pt x="248" y="334" on="1"/>
        <pt x="154" y="0" on="1"/>
        <pt x="20" y="0" on="1"/>
        <pt x="440" y="1434" on="1"/>
        <pt x="508" y="1434" on="1"/>
        <pt x="930" y="0" on="1"/>
        <pt x="797" y="0" on="1"/>
      </contour>
      <contour>
        <pt x="283" y="457" on="1"/>
        <pt x="668" y="457" on="1"/>
        <pt x="479" y="1118" on="1"/>
        <pt x="475" y="1171" on="1"/>
        <pt x="471" y="1118" on="1"/>
      </contour>
      <contour>
        <pt x="205" y="1640" on="1"/>
        <pt x="205" y="1794" on="1"/>
        <pt x="358" y="1794" on="1"/>
        <pt x="358" y="1640" on="1"/>
      </contour>
      <contour>
        <pt x="592" y="1640" on="1"/>
        <pt x="592" y="1794" on="1"/>
        <pt x="745" y="1794" on="1"/>
        <pt x="745" y="1640" on="1"/>
      </contour>
    </TTGlyph>
    <TTGlyph name="Agrave" xMin="20" yMin="0" xMax="930" yMax="1843">
      <contour>
        <pt x="702" y="334" on="1"/>
        <pt x="248" y="334" on="1"/>
        <pt x="154" y="0" on="1"/>
        <pt x="20" y="0" on="1"/>
        <pt x="440" y="1434" on="1"/>
        <pt x="508" y="1434" on="1"/>
        <pt x="930" y="0" on="1"/>
        <pt x="797" y="0" on="1"/>
      </contour>
      <contour>
        <pt x="283" y="457" on="1"/>
        <pt x="668" y="457" on="1"/>
        <pt x="479" y="1118" on="1"/>
        <pt x="475" y="1171" on="1"/>
        <pt x="471" y="1118" on="1"/>
      </contour>
      <contour>
        <pt x="250" y="1843" on="1"/>
        <pt x="455" y="1843" on="1"/>
        <pt x="618" y="1597" on="1"/>
        <pt x="526" y="1597" on="1"/>
      </contour>
    </TTGlyph>
    <TTGlyph name="Aring" xMin="20" yMin="0" xMax="930" yMax="1759">
      <contour>
        <pt x="264" y="1546" on="1"/>
        <pt x="264" y="1590" on="0"/>
        <pt x="297" y="1667" on="0"/>
        <pt x="354" y="1725" on="0"/>
        <pt x="431" y="1759" on="0"/>
        <pt x="475" y="1759" on="1"/>
        <pt x="519" y="1759" on="0"/>
        <pt x="596" y="1725" on="0"/>
        <pt x="654" y="1667" on="0"/>
        <pt x="688" y="1590" on="0"/>
        <pt x="688" y="1546" on="1"/>
        <pt x="688" y="1510" on="0"/>
        <pt x="665" y="1445" on="0"/>
        <pt x="624" y="1391" on="0"/>
        <pt x="568" y="1352" on="0"/>
        <pt x="535" y="1343" on="1"/>
        <pt x="930" y="0" on="1"/>
        <pt x="797" y="0" on="1"/>
        <pt x="702" y="334" on="1"/>
        <pt x="248" y="334" on="1"/>
        <pt x="154" y="0" on="1"/>
        <pt x="20" y="0" on="1"/>
        <pt x="414" y="1343" on="1"/>
        <pt x="381" y="1353" on="0"/>
        <pt x="326" y="1392" on="0"/>
        <pt x="286" y="1445" on="0"/>
        <pt x="264" y="1510" on="0"/>
      </contour>
      <contour>
        <pt x="283" y="457" on="1"/>
        <pt x="668" y="457" on="1"/>
        <pt x="479" y="1118" on="1"/>
        <pt x="475" y="1171" on="1"/>
        <pt x="471" y="1118" on="1"/>
      </contour>
      <contour>
        <pt x="367" y="1546" on="1"/>
        <pt x="367" y="1524" on="0"/>
        <pt x="384" y="1484" on="0"/>
        <pt x="414" y="1454" on="0"/>
        <pt x="453" y="1436" on="0"/>
        <pt x="475" y="1436" on="1"/>
        <pt x="498" y="1436" on="0"/>
        <pt x="539" y="1454" on="0"/>
        <pt x="569" y="1484" on="0"/>
        <pt x="586" y="1524" on="0"/>
        <pt x="586" y="1546" on="1"/>
        <pt x="586" y="1569" on="0"/>
        <pt x="569" y="1610" on="0"/>
        <pt x="539" y="1641" on="0"/>
        <pt x="498" y="1659" on="0"/>
        <pt x="475" y="1659" on="1"/>
        <pt x="453" y="1659" on="0"/>
        <pt x="414" y="1641" on="0"/>
        <pt x="384" y="1610" on="0"/>
        <pt x="367" y="1569" on="0"/>
      </contour>
    </TTGlyph>
    <TTGlyph name="Atilde" xMin="20" yMin="0" xMax="930" yMax="1843">
      <contour>
        <pt x="702" y="334" on="1"/>
        <pt x="248" y="334" on="1"/>
        <pt x="154" y="0" on="1"/>
        <pt x="20" y="0" on="1"/>
        <pt x="440" y="1434" on="1"/>
        <pt x="508" y="1434" on="1"/>
        <pt x="930" y="0" on="1"/>
        <pt x="797" y="0" on="1"/>
      </contour>
      <contour>
        <pt x="283" y="457" on="1"/>
        <pt x="668" y="457" on="1"/>
        <pt x="479" y="1118" on="1"/>
        <pt x="475" y="1171" on="1"/>
        <pt x="471" y="1118" on="1"/>
      </contour>
      <contour>
        <pt x="612" y="1729" on="1"/>
        <pt x="654" y="1729" on="0"/>
        <pt x="698" y="1792" on="0"/>
        <pt x="698" y="1843" on="1"/>
        <pt x="793" y="1843" on="1"/>
        <pt x="793" y="1798" on="0"/>
        <pt x="770" y="1720" on="0"/>
        <pt x="724" y="1662" on="0"/>
        <pt x="655" y="1628" on="0"/>
        <pt x="610" y="1628" on="1"/>
        <pt x="562" y="1628" on="0"/>
        <pt x="489" y="1664" on="0"/>
        <pt x="426" y="1707" on="0"/>
        <pt x="369" y="1743" on="0"/>
        <pt x="338" y="1743" on="1"/>
        <pt x="296" y="1743" on="0"/>
        <pt x="254" y="1680" on="0"/>
        <pt x="254" y="1630" on="1"/>
        <pt x="160" y="1630" on="1"/>
        <pt x="160" y="1675" on="0"/>
        <pt x="182" y="1752" on="0"/>
        <pt x="227" y="1810" on="0"/>
        <pt x="296" y="1843" on="0"/>
        <pt x="342" y="1843" on="1"/>
        <pt x="387" y="1843" on="0"/>
        <pt x="456" y="1807" on="0"/>
        <pt x="517" y="1765" on="0"/>
        <pt x="577" y="1729" on="0"/>
      </contour>
    </TTGlyph>
    <TTGlyph name="B" xMin="164" yMin="0" xMax="971" yMax="1434">
      <contour>
        <pt x="971" y="352" on="1"/>
        <pt x="971" y="279" on="0"/>
        <pt x="916" y="151" on="0"/>
        <pt x="820" y="55" on="0"/>
        <pt x="691" y="0" on="0"/>
        <pt x="618" y="0" on="1"/>
        <pt x="164" y="0" on="1"/>
        <pt x="164" y="1434" on="1"/>
        <pt x="618" y="1434" on="1"/>
        <pt x="691" y="1434" on="0"/>
        <pt x="820" y="1379" on="0"/>
        <pt x="916" y="1283" on="0"/>
        <pt x="971" y="1154" on="0"/>
        <pt x="971" y="1081" on="1"/>
        <pt x="971" y="1067" on="1"/>
        <pt x="971" y="1016" on="0"/>
        <pt x="944" y="923" on="0"/>
        <pt x="894" y="843" on="0"/>
        <pt x="826" y="778" on="0"/>
        <pt x="784" y="756" on="1"/>
        <pt x="826" y="734" on="0"/>
        <pt x="894" y="669" on="0"/>
        <pt x="944" y="588" on="0"/>
        <pt x="971" y="495" on="0"/>
        <pt x="971" y="444" on="1"/>
        <pt x="971" y="352" on="1"/>
      </contour>
      <contour>
        <pt x="842" y="465" on="1"/>
        <pt x="842" y="513" on="0"/>
        <pt x="806" y="596" on="0"/>
        <pt x="743" y="658" on="0"/>
        <pt x="660" y="694" on="0"/>
        <pt x="612" y="694" on="1"/>
        <pt x="293" y="694" on="1"/>
        <pt x="293" y="123" on="1"/>
        <pt x="612" y="123" on="1"/>
        <pt x="660" y="123" on="0"/>
        <pt x="743" y="159" on="0"/>
        <pt x="806" y="221" on="0"/>
        <pt x="842" y="304" on="0"/>
        <pt x="842" y="352" on="1"/>
      </contour>
      <contour>
        <pt x="842" y="1081" on="1"/>
        <pt x="842" y="1129" on="0"/>
        <pt x="806" y="1212" on="0"/>
        <pt x="743" y="1275" on="0"/>
        <pt x="660" y="1311" on="0"/>
        <pt x="612" y="1311" on="1"/>
        <pt x="293" y="1311" on="1"/>
        <pt x="293" y="817" on="1"/>
        <pt x="612" y="817" on="1"/>
        <pt x="660" y="817" on="0"/>
        <pt x="743" y="853" on="0"/>
        <pt x="806" y="916" on="0"/>
        <pt x="842" y="999" on="0"/>
        <pt x="842" y="1047" on="1"/>
      </contour>
    </TTGlyph>
    <TTGlyph name="C" xMin="143" yMin="-20" xMax="950" yMax="1454">
      <contour>
        <pt x="950" y="332" on="1"/>
        <pt x="950" y="259" on="0"/>
        <pt x="895" y="131" on="0"/>
        <pt x="799" y="35" on="0"/>
        <pt x="671" y="-20" on="0"/>
        <pt x="598" y="-20" on="1"/>
        <pt x="496" y="-20" on="1"/>
        <pt x="423" y="-20" on="0"/>
        <pt x="294" y="35" on="0"/>
        <pt x="198" y="131" on="0"/>
        <pt x="143" y="259" on="0"/>
        <pt x="143" y="332" on="1"/>
        <pt x="143" y="1102" on="1"/>
        <pt x="143" y="1175" on="0"/>
        <pt x="198" y="1303" on="0"/>
        <pt x="294" y="1399" on="0"/>
        <pt x="423" y="1454" on="0"/>
        <pt x="496" y="1454" on="1"/>
        <pt x="598" y="1454" on="1"/>
        <pt x="671" y="1454" on="0"/>
        <pt x="799" y="1399" on="0"/>
        <pt x="895" y="1303" on="0"/>
        <pt x="950" y="1175" on="0"/>
        <pt x="950" y="1102" on="1"/>
        <pt x="950" y="1044" on="1"/>
        <pt x="821" y="1024" on="1"/>
        <pt x="821" y="1102" on="1"/>
        <pt x="821" y="1150" on="0"/>
        <pt x="785" y="1233" on="0"/>
        <pt x="723" y="1295" on="0"/>
        <pt x="640" y="1331" on="0"/>
        <pt x="592" y="1331" on="1"/>
        <pt x="502" y="1331" on="1"/>
        <pt x="454" y="1331" on="0"/>
        <pt x="371" y="1295" on="0"/>
        <pt x="308" y="1233" on="0"/>
        <pt x="272" y="1150" on="0"/>
        <pt x="272" y="1102" on="1"/>
        <pt x="272" y="332" on="1"/>
        <pt x="272" y="284" on="0"/>
        <pt x="308" y="201" on="0"/>
        <pt x="371" y="138" on="0"/>
        <pt x="454" y="102" on="0"/>
        <pt x="502" y="102" on="1"/>
        <pt x="592" y="102" on="1"/>
        <pt x="640" y="102" on="0"/>
        <pt x="723" y="138" on="0"/>
        <pt x="785" y="201" on="0"/>
        <pt x="821" y="284" on="0"/>
        <pt x="821" y="332" on="1"/>
        <pt x="821" y="410" on="1"/>
        <pt x="950" y="389" on="1"/>
        <pt x="950" y="332" on="1"/>
      </contour>
    </TTGlyph>
    <TTGlyph name="Ccedilla" xMin="143" yMin="-412" xMax="950" yMax="1454">
      <contour>
        <pt x="508" y="-20" on="1"/>
        <pt x="496" y="-20" on="1"/>
        <pt x="423" y="-20" on="0"/>
        <pt x="294" y="35" on="0"/>
        <pt x="198" y="131" on="0"/>
        <pt x="143" y="259" on="0"/>
        <pt x="143" y="332" on="1"/>
        <pt x="143" y="1102" on="1"/>
        <pt x="143" y="1175" on="0"/>
        <pt x="198" y="1303" on="0"/>
        <pt x="294" y="1399" on="0"/>
        <pt x="423" y="1454" on="0"/>
        <pt x="496" y="1454" on="1"/>
        <pt x="598" y="1454" on="1"/>
        <pt x="671" y="1454" on="0"/>
        <pt x="799" y="1399" on="0"/>
        <pt x="895" y="1303" on="0"/>
        <pt x="950" y="1175" on="0"/>
        <pt x="950" y="1102" on="1"/>
        <pt x="950" y="1044" on="1"/>
        <pt x="821" y="1024" on="1"/>
        <pt x="821" y="1102" on="1"/>
        <pt x="821" y="1150" on="0"/>
        <pt x="785" y="1233" on="0"/>
        <pt x="723" y="1295" on="0"/>
        <pt x="640" y="1331" on="0"/>
        <pt x="592" y="1331" on="1"/>
        <pt x="502" y="1331" on="1"/>
        <pt x="454" y="1331" on="0"/>
        <pt x="371" y="1295" on="0"/>
        <pt x="308" y="1233" on="0"/>
        <pt x="272" y="1150" on="0"/>
        <pt x="272" y="1102" on="1"/>
        <pt x="272" y="332" on="1"/>
        <pt x="272" y="284" on="0"/>
        <pt x="308" y="201" on="0"/>
        <pt x="371" y="138" on="0"/>
        <pt x="454" y="102" on="0"/>
        <pt x="502" y="102" on="1"/>
        <pt x="592" y="102" on="1"/>
        <pt x="640" y="102" on="0"/>
        <pt x="723" y="138" on="0"/>
        <pt x="785" y="201" on="0"/>
        <pt x="821" y="284" on="0"/>
        <pt x="821" y="332" on="1"/>
        <pt x="821" y="410" on="1"/>
        <pt x="950" y="389" on="1"/>
        <pt x="950" y="332" on="1"/>
        <pt x="950" y="259" on="0"/>
        <pt x="895" y="131" on="0"/>
        <pt x="799" y="35" on="0"/>
        <pt x="671" y="-20" on="0"/>
        <pt x="598" y="-20" on="1"/>
        <pt x="594" y="-20" on="1"/>
        <pt x="547" y="-102" on="1"/>
        <pt x="556" y="-106" on="0"/>
        <pt x="588" y="-127" on="0"/>
        <pt x="618" y="-163" on="0"/>
        <pt x="641" y="-213" on="0"/>
        <pt x="641" y="-246" on="1"/>
        <pt x="641" y="-284" on="0"/>
        <pt x="613" y="-346" on="0"/>
        <pt x="564" y="-389" on="0"/>
        <pt x="497" y="-412" on="0"/>
        <pt x="457" y="-412" on="1"/>
        <pt x="412" y="-412" on="0"/>
        <pt x="338" y="-377" on="0"/>
        <pt x="309" y="-348" on="1"/>
        <pt x="356" y="-276" on="1"/>
        <pt x="361" y="-282" on="0"/>
        <pt x="380" y="-298" on="0"/>
        <pt x="407" y="-312" on="0"/>
        <pt x="440" y="-322" on="0"/>
        <pt x="459" y="-322" on="1"/>
        <pt x="496" y="-322" on="0"/>
        <pt x="547" y="-280" on="0"/>
        <pt x="547" y="-242" on="1"/>
        <pt x="547" y="-218" on="0"/>
        <pt x="528" y="-182" on="0"/>
        <pt x="495" y="-158" on="0"/>
        <pt x="452" y="-148" on="0"/>
        <pt x="428" y="-150" on="1"/>
      </contour>
    </TTGlyph>
    <TTGlyph name="D" xMin="164" yMin="0" xMax="971" yMax="1434">
      <contour>
        <pt x="971" y="352" on="1"/>
        <pt x="971" y="279" on="0"/>
        <pt x="916" y="151" on="0"/>
        <pt x="820" y="55" on="0"/>
        <pt x="691" y="0" on="0"/>
        <pt x="618" y="0" on="1"/>
        <pt x="164" y="0" on="1"/>
        <pt x="164" y="1434" on="1"/>
        <pt x="618" y="1434" on="1"/>
        <pt x="691" y="1434" on="0"/>
        <pt x="820" y="1379" on="0"/>
        <pt x="916" y="1283" on="0"/>
        <pt x="971" y="1154" on="0"/>
        <pt x="971" y="1081" on="1"/>
        <pt x="971" y="352" on="1"/>
      </contour>
      <contour>
        <pt x="842" y="1081" on="1"/>
        <pt x="842" y="1129" on="0"/>
        <pt x="806" y="1212" on="0"/>
        <pt x="743" y="1275" on="0"/>
        <pt x="660" y="1311" on="0"/>
        <pt x="612" y="1311" on="1"/>
        <pt x="293" y="1311" on="1"/>
        <pt x="293" y="123" on="1"/>
        <pt x="612" y="123" on="1"/>
        <pt x="660" y="123" on="0"/>
        <pt x="743" y="159" on="0"/>
        <pt x="806" y="221" on="0"/>
        <pt x="842" y="304" on="0"/>
        <pt x="842" y="352" on="1"/>
      </contour>
    </TTGlyph>
    <TTGlyph name="E" xMin="164" yMin="0" xMax="971" yMax="1434">
      <contour>
        <pt x="164" y="0" on="1"/>
        <pt x="164" y="1434" on="1"/>
        <pt x="971" y="1434" on="1"/>
        <pt x="971" y="1311" on="1"/>
        <pt x="293" y="1311" on="1"/>
        <pt x="293" y="778" on="1"/>
        <pt x="842" y="778" on="1"/>
        <pt x="842" y="655" on="1"/>
        <pt x="293" y="655" on="1"/>
        <pt x="293" y="123" on="1"/>
        <pt x="971" y="123" on="1"/>
        <pt x="971" y="0" on="1"/>
      </contour>
    </TTGlyph>
    <TTGlyph name="Eacute" xMin="164" yMin="0" xMax="971" yMax="1843">
      <contour>
        <pt x="164" y="0" on="1"/>
        <pt x="164" y="1434" on="1"/>
        <pt x="971" y="1434" on="1"/>
        <pt x="971" y="1311" on="1"/>
        <pt x="293" y="1311" on="1"/>
        <pt x="293" y="778" on="1"/>
        <pt x="842" y="778" on="1"/>
        <pt x="842" y="655" on="1"/>
        <pt x="293" y="655" on="1"/>
        <pt x="293" y="123" on="1"/>
        <pt x="971" y="123" on="1"/>
        <pt x="971" y="0" on="1"/>
      </contour>
      <contour>
        <pt x="516" y="1597" on="1"/>
        <pt x="424" y="1597" on="1"/>
        <pt x="588" y="1843" on="1"/>
        <pt x="793" y="1843" on="1"/>
      </contour>
    </TTGlyph>
    <TTGlyph name="Ecircumflex" xMin="164" yMin="0" xMax="971" yMax="1843">
      <contour>
        <pt x="164" y="0" on="1"/>
        <pt x="164" y="1434" on="1"/>
        <pt x="971" y="1434" on="1"/>
        <pt x="971" y="1311" on="1"/>
        <pt x="293" y="1311" on="1"/>
        <pt x="293" y="778" on="1"/>
        <pt x="842" y="778" on="1"/>
        <pt x="842" y="655" on="1"/>
        <pt x="293" y="655" on="1"/>
        <pt x="293" y="123" on="1"/>
        <pt x="971" y="123" on="1"/>
        <pt x="971" y="0" on="1"/>
      </contour>
      <contour>
        <pt x="834" y="1597" on="1"/>
        <pt x="711" y="1597" on="1"/>
        <pt x="567" y="1761" on="1"/>
        <pt x="424" y="1597" on="1"/>
        <pt x="301" y="1597" on="1"/>
        <pt x="506" y="1843" on="1"/>
        <pt x="629" y="1843" on="1"/>
      </contour>
    </TTGlyph>
    <TTGlyph name="Edieresis" xMin="164" yMin="0" xMax="971" yMax="1794">
      <contour>
        <pt x="164" y="0" on="1"/>
        <pt x="164" y="1434" on="1"/>
        <pt x="971" y="1434" on="1"/>
        <pt x="971" y="1311" on="1"/>
        <pt x="293" y="1311" on="1"/>
        <pt x="293" y="778" on="1"/>
        <pt x="842" y="778" on="1"/>
        <pt x="842" y="655" on="1"/>
        <pt x="293" y="655" on="1"/>
        <pt x="293" y="123" on="1"/>
        <pt x="971" y="123" on="1"/>
        <pt x="971" y="0" on="1"/>
      </contour>
      <contour>
        <pt x="256" y="1640" on="1"/>
        <pt x="256" y="1794" on="1"/>
        <pt x="410" y="1794" on="1"/>
        <pt x="410" y="1640" on="1"/>
      </contour>
      <contour>
        <pt x="643" y="1640" on="1"/>
        <pt x="643" y="1794" on="1"/>
        <pt x="797" y="1794" on="1"/>
        <pt x="797" y="1640" on="1"/>
      </contour>
    </TTGlyph>
    <TTGlyph name="Egrave" xMin="164" yMin="0" xMax="971" yMax="1843">
      <contour>
        <pt x="164" y="0" on="1"/>
        <pt x="164" y="1434" on="1"/>
        <pt x="971" y="1434" on="1"/>
        <pt x="971" y="1311" on="1"/>
        <pt x="293" y="1311" on="1"/>
        <pt x="293" y="778" on="1"/>
        <pt x="842" y="778" on="1"/>
        <pt x="842" y="655" on="1"/>
        <pt x="293" y="655" on="1"/>
        <pt x="293" y="123" on="1"/>
        <pt x="971" y="123" on="1"/>
        <pt x="971" y="0" on="1"/>
      </contour>
      <contour>
        <pt x="301" y="1843" on="1"/>
        <pt x="506" y="1843" on="1"/>
        <pt x="670" y="1597" on="1"/>
        <pt x="578" y="1597" on="1"/>
      </contour>
    </TTGlyph>
    <TTGlyph name="Eth" xMin="61" yMin="0" xMax="995" yMax="1434">
      <contour>
        <pt x="188" y="686" on="1"/>
        <pt x="188" y="1434" on="1"/>
        <pt x="643" y="1434" on="1"/>
        <pt x="716" y="1434" on="0"/>
        <pt x="844" y="1379" on="0"/>
        <pt x="940" y="1283" on="0"/>
        <pt x="995" y="1154" on="0"/>
        <pt x="995" y="1081" on="1"/>
        <pt x="995" y="352" on="1"/>
        <pt x="995" y="279" on="0"/>
        <pt x="940" y="151" on="0"/>
        <pt x="844" y="55" on="0"/>
        <pt x="716" y="0" on="0"/>
        <pt x="643" y="0" on="1"/>
        <pt x="188" y="0" on="1"/>
        <pt x="188" y="584" on="1"/>
        <pt x="61" y="584" on="1"/>
        <pt x="61" y="686" on="1"/>
      </contour>
      <contour>
        <pt x="866" y="1081" on="1"/>
        <pt x="866" y="1129" on="0"/>
        <pt x="830" y="1212" on="0"/>
        <pt x="768" y="1275" on="0"/>
        <pt x="685" y="1311" on="0"/>
        <pt x="637" y="1311" on="1"/>
        <pt x="317" y="1311" on="1"/>
        <pt x="317" y="686" on="1"/>
        <pt x="557" y="686" on="1"/>
        <pt x="557" y="584" on="1"/>
        <pt x="317" y="584" on="1"/>
        <pt x="317" y="123" on="1"/>
        <pt x="637" y="123" on="1"/>
        <pt x="685" y="123" on="0"/>
        <pt x="768" y="159" on="0"/>
        <pt x="830" y="221" on="0"/>
        <pt x="866" y="304" on="0"/>
        <pt x="866" y="352" on="1"/>
      </contour>
    </TTGlyph>
    <TTGlyph name="Euro" xMin="82" yMin="-20" xMax="1032" yMax="1454">
      <contour>
        <pt x="354" y="553" on="1"/>
        <pt x="354" y="332" on="1"/>
        <pt x="354" y="284" on="0"/>
        <pt x="390" y="201" on="0"/>
        <pt x="453" y="138" on="0"/>
        <pt x="536" y="102" on="0"/>
        <pt x="584" y="102" on="1"/>
        <pt x="674" y="102" on="1"/>
        <pt x="722" y="102" on="0"/>
        <pt x="805" y="138" on="0"/>
        <pt x="867" y="201" on="0"/>
        <pt x="903" y="284" on="0"/>
        <pt x="903" y="332" on="1"/>
        <pt x="903" y="389" on="1"/>
        <pt x="1032" y="369" on="1"/>
        <pt x="1032" y="332" on="1"/>
        <pt x="1032" y="259" on="0"/>
        <pt x="977" y="131" on="0"/>
        <pt x="881" y="35" on="0"/>
        <pt x="753" y="-20" on="0"/>
        <pt x="680" y="-20" on="1"/>
        <pt x="578" y="-20" on="1"/>
        <pt x="505" y="-20" on="0"/>
        <pt x="376" y="35" on="0"/>
        <pt x="280" y="131" on="0"/>
        <pt x="225" y="259" on="0"/>
        <pt x="225" y="332" on="1"/>
        <pt x="225" y="553" on="1"/>
        <pt x="82" y="553" on="1"/>
        <pt x="82" y="655" on="1"/>
        <pt x="225" y="655" on="1"/>
        <pt x="225" y="778" on="1"/>
        <pt x="82" y="778" on="1"/>
        <pt x="82" y="881" on="1"/>
        <pt x="225" y="881" on="1"/>
        <pt x="225" y="1102" on="1"/>
        <pt x="225" y="1175" on="0"/>
        <pt x="280" y="1303" on="0"/>
        <pt x="376" y="1399" on="0"/>
        <pt x="505" y="1454" on="0"/>
        <pt x="578" y="1454" on="1"/>
        <pt x="680" y="1454" on="1"/>
        <pt x="753" y="1454" on="0"/>
        <pt x="881" y="1399" on="0"/>
        <pt x="977" y="1303" on="0"/>
        <pt x="1032" y="1175" on="0"/>
        <pt x="1032" y="1102" on="1"/>
        <pt x="1032" y="1065" on="1"/>
        <pt x="903" y="1044" on="1"/>
        <pt x="903" y="1102" on="1"/>
        <pt x="903" y="1150" on="0"/>
        <pt x="867" y="1233" on="0"/>
        <pt x="805" y="1295" on="0"/>
        <pt x="722" y="1331" on="0"/>
        <pt x="674" y="1331" on="1"/>
        <pt x="584" y="1331" on="1"/>
        <pt x="536" y="1331" on="0"/>
        <pt x="453" y="1295" on="0"/>
        <pt x="390" y="1233" on="0"/>
        <pt x="354" y="1150" on="0"/>
        <pt x="354" y="1102" on="1"/>
        <pt x="354" y="881" on="1"/>
        <pt x="827" y="881" on="1"/>
        <pt x="768" y="778" on="1"/>
        <pt x="354" y="778" on="1"/>
        <pt x="354" y="655" on="1"/>
        <pt x="696" y="655" on="1"/>
        <pt x="637" y="553" on="1"/>
      </contour>
    </TTGlyph>
    <TTGlyph name="F" xMin="164" yMin="0" xMax="971" yMax="1434">
      <contour>
        <pt x="293" y="1311" on="1"/>
        <pt x="293" y="778" on="1"/>
        <pt x="842" y="778" on="1"/>
        <pt x="842" y="655" on="1"/>
        <pt x="293" y="655" on="1"/>
        <pt x="293" y="0" on="1"/>
        <pt x="164" y="0" on="1"/>
        <pt x="164" y="1434" on="1"/>
        <pt x="971" y="1434" on="1"/>
        <pt x="971" y="1311" on="1"/>
      </contour>
    </TTGlyph>
    <TTGlyph name="G" xMin="143" yMin="-20" xMax="950" yMax="1454">
      <contour>
        <pt x="950" y="0" on="1"/>
        <pt x="909" y="0" on="1"/>
        <pt x="834" y="115" on="1"/>
        <pt x="787" y="53" on="0"/>
        <pt x="653" y="-20" on="0"/>
        <pt x="571" y="-20" on="1"/>
        <pt x="496" y="-20" on="1"/>
        <pt x="423" y="-20" on="0"/>
        <pt x="294" y="35" on="0"/>
        <pt x="198" y="131" on="0"/>
        <pt x="143" y="259" on="0"/>
        <pt x="143" y="332" on="1"/>
        <pt x="143" y="1102" on="1"/>
        <pt x="143" y="1175" on="0"/>
        <pt x="198" y="1303" on="0"/>
        <pt x="294" y="1399" on="0"/>
        <pt x="423" y="1454" on="0"/>
        <pt x="496" y="1454" on="1"/>
        <pt x="598" y="1454" on="1"/>
        <pt x="671" y="1454" on="0"/>
        <pt x="799" y="1399" on="0"/>
        <pt x="895" y="1303" on="0"/>
        <pt x="950" y="1175" on="0"/>
        <pt x="950" y="1102" on="1"/>
        <pt x="950" y="1044" on="1"/>
        <pt x="821" y="1024" on="1"/>
        <pt x="821" y="1102" on="1"/>
        <pt x="821" y="1150" on="0"/>
        <pt x="785" y="1233" on="0"/>
        <pt x="723" y="1295" on="0"/>
        <pt x="640" y="1331" on="0"/>
        <pt x="592" y="1331" on="1"/>
        <pt x="502" y="1331" on="1"/>
        <pt x="454" y="1331" on="0"/>
        <pt x="371" y="1295" on="0"/>
        <pt x="308" y="1233" on="0"/>
        <pt x="272" y="1150" on="0"/>
        <pt x="272" y="1102" on="1"/>
        <pt x="272" y="332" on="1"/>
        <pt x="272" y="284" on="0"/>
        <pt x="308" y="201" on="0"/>
        <pt x="371" y="138" on="0"/>
        <pt x="454" y="102" on="0"/>
        <pt x="502" y="102" on="1"/>
        <pt x="592" y="102" on="1"/>
        <pt x="640" y="102" on="0"/>
        <pt x="723" y="138" on="0"/>
        <pt x="785" y="201" on="0"/>
        <pt x="821" y="284" on="0"/>
        <pt x="821" y="332" on="1"/>
        <pt x="821" y="631" on="1"/>
        <pt x="592" y="631" on="1"/>
        <pt x="592" y="754" on="1"/>
        <pt x="950" y="754" on="1"/>
      </contour>
    </TTGlyph>
    <TTGlyph name="H" xMin="164" yMin="0" xMax="971" yMax="1434">
      <contour>
        <pt x="842" y="0" on="1"/>
        <pt x="842" y="655" on="1"/>
        <pt x="293" y="655" on="1"/>
        <pt x="293" y="0" on="1"/>
        <pt x="164" y="0" on="1"/>
        <pt x="164" y="1434" on="1"/>
        <pt x="293" y="1434" on="1"/>
        <pt x="293" y="778" on="1"/>
        <pt x="842" y="778" on="1"/>
        <pt x="842" y="1434" on="1"/>
        <pt x="971" y="1434" on="1"/>
        <pt x="971" y="0" on="1"/>
      </contour>
    </TTGlyph>
    <TTGlyph name="I" xMin="164" yMin="0" xMax="293" yMax="1434">
      <contour>
        <pt x="164" y="0" on="1"/>
        <pt x="164" y="1434" on="1"/>
        <pt x="293" y="1434" on="1"/>
        <pt x="293" y="0" on="1"/>
      </contour>
    </TTGlyph>
    <TTGlyph name="IJ" xMin="164" yMin="-20" xMax="1264" yMax="1434">
      <contour>
        <pt x="164" y="0" on="1"/>
        <pt x="164" y="1434" on="1"/>
        <pt x="293" y="1434" on="1"/>
        <pt x="293" y="0" on="1"/>
      </contour>
      <contour>
        <pt x="1264" y="332" on="1"/>
        <pt x="1264" y="259" on="0"/>
        <pt x="1209" y="131" on="0"/>
        <pt x="1113" y="35" on="0"/>
        <pt x="984" y="-20" on="0"/>
        <pt x="911" y="-20" on="1"/>
        <pt x="870" y="-20" on="1"/>
        <pt x="797" y="-20" on="0"/>
        <pt x="669" y="35" on="0"/>
        <pt x="573" y="131" on="0"/>
        <pt x="518" y="259" on="0"/>
        <pt x="518" y="332" on="1"/>
        <pt x="518" y="389" on="1"/>
        <pt x="647" y="410" on="1"/>
        <pt x="647" y="332" on="1"/>
        <pt x="647" y="284" on="0"/>
        <pt x="683" y="201" on="0"/>
        <pt x="746" y="138" on="0"/>
        <pt x="829" y="102" on="0"/>
        <pt x="877" y="102" on="1"/>
        <pt x="905" y="102" on="1"/>
        <pt x="953" y="102" on="0"/>
        <pt x="1036" y="138" on="0"/>
        <pt x="1099" y="201" on="0"/>
        <pt x="1135" y="284" on="0"/>
        <pt x="1135" y="332" on="1"/>
        <pt x="1135" y="1434" on="1"/>
        <pt x="1264" y="1434" on="1"/>
        <pt x="1264" y="332" on="1"/>
      </contour>
    </TTGlyph>
    <TTGlyph name="Iacute" xMin="86" yMin="0" xMax="455" yMax="1843">
      <contour>
        <pt x="164" y="0" on="1"/>
        <pt x="164" y="1434" on="1"/>
        <pt x="293" y="1434" on="1"/>
        <pt x="293" y="0" on="1"/>
      </contour>
      <contour>
        <pt x="178" y="1597" on="1"/>
        <pt x="86" y="1597" on="1"/>
        <pt x="250" y="1843" on="1"/>
        <pt x="455" y="1843" on="1"/>
      </contour>
    </TTGlyph>
    <TTGlyph name="Icircumflex" xMin="-37" yMin="0" xMax="496" yMax="1843">
      <contour>
        <pt x="164" y="0" on="1"/>
        <pt x="164" y="1434" on="1"/>
        <pt x="293" y="1434" on="1"/>
        <pt x="293" y="0" on="1"/>
      </contour>
      <contour>
        <pt x="496" y="1597" on="1"/>
        <pt x="373" y="1597" on="1"/>
        <pt x="229" y="1761" on="1"/>
        <pt x="86" y="1597" on="1"/>
        <pt x="-37" y="1597" on="1"/>
        <pt x="168" y="1843" on="1"/>
        <pt x="291" y="1843" on="1"/>
      </contour>
    </TTGlyph>
    <TTGlyph name="Idieresis" xMin="-41" yMin="0" xMax="500" yMax="1794">
      <contour>
        <pt x="164" y="0" on="1"/>
        <pt x="164" y="1434" on="1"/>
        <pt x="293" y="1434" on="1"/>
        <pt x="293" y="0" on="1"/>
      </contour>
      <contour>
        <pt x="-41" y="1640" on="1"/>
        <pt x="-41" y="1794" on="1"/>
        <pt x="113" y="1794" on="1"/>
        <pt x="113" y="1640" on="1"/>
      </contour>
      <contour>
        <pt x="346" y="1640" on="1"/>
        <pt x="346" y="1794" on="1"/>
        <pt x="500" y="1794" on="1"/>
        <pt x="500" y="1640" on="1"/>
      </contour>
    </TTGlyph>
    <TTGlyph name="Igrave" xMin="4" yMin="0" xMax="373" yMax="1843">
      <contour>
        <pt x="164" y="0" on="1"/>
        <pt x="164" y="1434" on="1"/>
        <pt x="293" y="1434" on="1"/>
        <pt x="293" y="0" on="1"/>
      </contour>
      <contour>
        <pt x="4" y="1843" on="1"/>
        <pt x="209" y="1843" on="1"/>
        <pt x="373" y="1597" on="1"/>
        <pt x="281" y="1597" on="1"/>
      </contour>
    </TTGlyph>
    <TTGlyph name="Itilde" xMin="-88" yMin="0" xMax="545" yMax="1843">
      <contour>
        <pt x="164" y="0" on="1"/>
        <pt x="164" y="1434" on="1"/>
        <pt x="293" y="1434" on="1"/>
        <pt x="293" y="0" on="1"/>
      </contour>
      <contour>
        <pt x="365" y="1729" on="1"/>
        <pt x="407" y="1729" on="0"/>
        <pt x="451" y="1792" on="0"/>
        <pt x="451" y="1843" on="1"/>
        <pt x="545" y="1843" on="1"/>
        <pt x="545" y="1798" on="0"/>
        <pt x="522" y="1720" on="0"/>
        <pt x="476" y="1662" on="0"/>
        <pt x="407" y="1628" on="0"/>
        <pt x="362" y="1628" on="1"/>
        <pt x="315" y="1628" on="0"/>
        <pt x="241" y="1664" on="0"/>
        <pt x="178" y="1707" on="0"/>
        <pt x="121" y="1743" on="0"/>
        <pt x="90" y="1743" on="1"/>
        <pt x="48" y="1743" on="0"/>
        <pt x="6" y="1680" on="0"/>
        <pt x="6" y="1630" on="1"/>
        <pt x="-88" y="1630" on="1"/>
        <pt x="-88" y="1675" on="0"/>
        <pt x="-66" y="1752" on="0"/>
        <pt x="-21" y="1810" on="0"/>
        <pt x="48" y="1843" on="0"/>
        <pt x="94" y="1843" on="1"/>
        <pt x="139" y="1843" on="0"/>
        <pt x="208" y="1807" on="0"/>
        <pt x="269" y="1765" on="0"/>
        <pt x="329" y="1729" on="0"/>
      </contour>
    </TTGlyph>
    <TTGlyph name="J" xMin="61" yMin="-20" xMax="807" yMax="1434">
      <contour>
        <pt x="807" y="332" on="1"/>
        <pt x="807" y="259" on="0"/>
        <pt x="752" y="131" on="0"/>
        <pt x="656" y="35" on="0"/>
        <pt x="528" y="-20" on="0"/>
        <pt x="455" y="-20" on="1"/>
        <pt x="414" y="-20" on="1"/>
        <pt x="341" y="-20" on="0"/>
        <pt x="212" y="35" on="0"/>
        <pt x="116" y="131" on="0"/>
        <pt x="61" y="259" on="0"/>
        <pt x="61" y="332" on="1"/>
        <pt x="61" y="389" on="1"/>
        <pt x="190" y="410" on="1"/>
        <pt x="190" y="332" on="1"/>
        <pt x="190" y="284" on="0"/>
        <pt x="226" y="201" on="0"/>
        <pt x="289" y="138" on="0"/>
        <pt x="372" y="102" on="0"/>
        <pt x="420" y="102" on="1"/>
        <pt x="449" y="102" on="1"/>
        <pt x="496" y="102" on="0"/>
        <pt x="580" y="138" on="0"/>
        <pt x="642" y="201" on="0"/>
        <pt x="678" y="284" on="0"/>
        <pt x="678" y="332" on="1"/>
        <pt x="678" y="1434" on="1"/>
        <pt x="807" y="1434" on="1"/>
        <pt x="807" y="332" on="1"/>
      </contour>
    </TTGlyph>
    <TTGlyph name="Jcircumflex" xMin="61" yMin="-20" xMax="1008" yMax="1843">
      <contour>
        <pt x="807" y="332" on="1"/>
        <pt x="807" y="259" on="0"/>
        <pt x="752" y="131" on="0"/>
        <pt x="656" y="35" on="0"/>
        <pt x="528" y="-20" on="0"/>
        <pt x="455" y="-20" on="1"/>
        <pt x="414" y="-20" on="1"/>
        <pt x="341" y="-20" on="0"/>
        <pt x="212" y="35" on="0"/>
        <pt x="116" y="131" on="0"/>
        <pt x="61" y="259" on="0"/>
        <pt x="61" y="332" on="1"/>
        <pt x="61" y="389" on="1"/>
        <pt x="190" y="410" on="1"/>
        <pt x="190" y="332" on="1"/>
        <pt x="190" y="284" on="0"/>
        <pt x="226" y="201" on="0"/>
        <pt x="289" y="138" on="0"/>
        <pt x="372" y="102" on="0"/>
        <pt x="420" y="102" on="1"/>
        <pt x="449" y="102" on="1"/>
        <pt x="496" y="102" on="0"/>
        <pt x="580" y="138" on="0"/>
        <pt x="642" y="201" on="0"/>
        <pt x="678" y="284" on="0"/>
        <pt x="678" y="332" on="1"/>
        <pt x="678" y="1434" on="1"/>
        <pt x="807" y="1434" on="1"/>
        <pt x="807" y="332" on="1"/>
      </contour>
      <contour>
        <pt x="1008" y="1597" on="1"/>
        <pt x="885" y="1597" on="1"/>
        <pt x="741" y="1761" on="1"/>
        <pt x="598" y="1597" on="1"/>
        <pt x="475" y="1597" on="1"/>
        <pt x="680" y="1843" on="1"/>
        <pt x="803" y="1843" on="1"/>
      </contour>
    </TTGlyph>
    <TTGlyph name="K" xMin="164" yMin="0" xMax="1024" yMax="1434">
      <contour>
        <pt x="864" y="0" on="1"/>
        <pt x="324" y="717" on="1"/>
        <pt x="864" y="1434" on="1"/>
        <pt x="1024" y="1434" on="1"/>
        <pt x="473" y="717" on="1"/>
        <pt x="1024" y="0" on="1"/>
      </contour>
      <contour>
        <pt x="164" y="0" on="1"/>
        <pt x="164" y="1434" on="1"/>
        <pt x="293" y="1434" on="1"/>
        <pt x="293" y="0" on="1"/>
      </contour>
    </TTGlyph>
    <TTGlyph name="L" xMin="143" yMin="0" xMax="821" yMax="1434">
      <contour>
        <pt x="143" y="0" on="1"/>
        <pt x="143" y="1434" on="1"/>
        <pt x="272" y="1434" on="1"/>
        <pt x="272" y="123" on="1"/>
        <pt x="821" y="123" on="1"/>
        <pt x="821" y="0" on="1"/>
      </contour>
    </TTGlyph>
    <TTGlyph name="Ldotaccent" xMin="143" yMin="0" xMax="821" yMax="1434">
      <contour>
        <pt x="143" y="0" on="1"/>
        <pt x="143" y="1434" on="1"/>
        <pt x="272" y="1434" on="1"/>
        <pt x="272" y="123" on="1"/>
        <pt x="821" y="123" on="1"/>
        <pt x="821" y="0" on="1"/>
      </contour>
      <contour>
        <pt x="510" y="655" on="1"/>
        <pt x="510" y="809" on="1"/>
        <pt x="664" y="809" on="1"/>
        <pt x="664" y="655" on="1"/>
      </contour>
    </TTGlyph>
    <TTGlyph name="Lslash" xMin="16" yMin="0" xMax="821" yMax="1434">
      <contour>
        <pt x="143" y="0" on="1"/>
        <pt x="143" y="539" on="1"/>
        <pt x="16" y="467" on="1"/>
        <pt x="16" y="584" on="1"/>
        <pt x="143" y="655" on="1"/>
        <pt x="143" y="1434" on="1"/>
        <pt x="272" y="1434" on="1"/>
        <pt x="272" y="727" on="1"/>
        <pt x="653" y="944" on="1"/>
        <pt x="653" y="827" on="1"/>
        <pt x="272" y="610" on="1"/>
        <pt x="272" y="123" on="1"/>
        <pt x="821" y="123" on="1"/>
        <pt x="821" y="0" on="1"/>
      </contour>
    </TTGlyph>
    <TTGlyph name="M" xMin="164" yMin="0" xMax="1176" yMax="1434">
      <contour>
        <pt x="1047" y="0" on="1"/>
        <pt x="1047" y="983" on="1"/>
        <pt x="1038" y="922" on="1"/>
        <pt x="705" y="0" on="1"/>
        <pt x="637" y="0" on="1"/>
        <pt x="301" y="922" on="1"/>
        <pt x="293" y="983" on="1"/>
        <pt x="293" y="0" on="1"/>
        <pt x="164" y="0" on="1"/>
        <pt x="164" y="1434" on="1"/>
        <pt x="231" y="1434" on="1"/>
        <pt x="666" y="258" on="1"/>
        <pt x="670" y="205" on="1"/>
        <pt x="674" y="258" on="1"/>
        <pt x="1108" y="1434" on="1"/>
        <pt x="1176" y="1434" on="1"/>
        <pt x="1176" y="0" on="1"/>
      </contour>
    </TTGlyph>
    <TTGlyph name="N" xMin="164" yMin="0" xMax="971" yMax="1434">
      <contour>
        <pt x="903" y="0" on="1"/>
        <pt x="305" y="1044" on="1"/>
        <pt x="293" y="1106" on="1"/>
        <pt x="293" y="0" on="1"/>
        <pt x="164" y="0" on="1"/>
        <pt x="164" y="1434" on="1"/>
        <pt x="231" y="1434" on="1"/>
        <pt x="829" y="389" on="1"/>
        <pt x="842" y="328" on="1"/>
        <pt x="842" y="1434" on="1"/>
        <pt x="971" y="1434" on="1"/>
        <pt x="971" y="0" on="1"/>
      </contour>
    </TTGlyph>
    <TTGlyph name="Nacute" xMin="164" yMin="0" xMax="971" yMax="1843">
      <contour>
        <pt x="903" y="0" on="1"/>
        <pt x="305" y="1044" on="1"/>
        <pt x="293" y="1106" on="1"/>
        <pt x="293" y="0" on="1"/>
        <pt x="164" y="0" on="1"/>
        <pt x="164" y="1434" on="1"/>
        <pt x="231" y="1434" on="1"/>
        <pt x="829" y="389" on="1"/>
        <pt x="842" y="328" on="1"/>
        <pt x="842" y="1434" on="1"/>
        <pt x="971" y="1434" on="1"/>
        <pt x="971" y="0" on="1"/>
      </contour>
      <contour>
        <pt x="557" y="1597" on="1"/>
        <pt x="465" y="1597" on="1"/>
        <pt x="629" y="1843" on="1"/>
        <pt x="834" y="1843" on="1"/>
      </contour>
    </TTGlyph>
    <TTGlyph name="Ntilde" xMin="164" yMin="0" xMax="971" yMax="1843">
      <contour>
        <pt x="903" y="0" on="1"/>
        <pt x="305" y="1044" on="1"/>
        <pt x="293" y="1106" on="1"/>
        <pt x="293" y="0" on="1"/>
        <pt x="164" y="0" on="1"/>
        <pt x="164" y="1434" on="1"/>
        <pt x="231" y="1434" on="1"/>
        <pt x="829" y="389" on="1"/>
        <pt x="842" y="328" on="1"/>
        <pt x="842" y="1434" on="1"/>
        <pt x="971" y="1434" on="1"/>
        <pt x="971" y="0" on="1"/>
      </contour>
      <contour>
        <pt x="702" y="1729" on="1"/>
        <pt x="744" y="1729" on="0"/>
        <pt x="788" y="1792" on="0"/>
        <pt x="788" y="1843" on="1"/>
        <pt x="883" y="1843" on="1"/>
        <pt x="883" y="1798" on="0"/>
        <pt x="860" y="1720" on="0"/>
        <pt x="814" y="1662" on="0"/>
        <pt x="745" y="1628" on="0"/>
        <pt x="700" y="1628" on="1"/>
        <pt x="652" y="1628" on="0"/>
        <pt x="579" y="1664" on="0"/>
        <pt x="516" y="1707" on="0"/>
        <pt x="459" y="1743" on="0"/>
        <pt x="428" y="1743" on="1"/>
        <pt x="386" y="1743" on="0"/>
        <pt x="344" y="1680" on="0"/>
        <pt x="344" y="1630" on="1"/>
        <pt x="250" y="1630" on="1"/>
        <pt x="250" y="1675" on="0"/>
        <pt x="272" y="1752" on="0"/>
        <pt x="317" y="1810" on="0"/>
        <pt x="386" y="1843" on="0"/>
        <pt x="432" y="1843" on="1"/>
        <pt x="477" y="1843" on="0"/>
        <pt x="546" y="1807" on="0"/>
        <pt x="607" y="1765" on="0"/>
        <pt x="667" y="1729" on="0"/>
      </contour>
    </TTGlyph>
    <TTGlyph name="O" xMin="143" yMin="-20" xMax="950" yMax="1454">
      <contour>
        <pt x="950" y="332" on="1"/>
        <pt x="950" y="259" on="0"/>
        <pt x="895" y="131" on="0"/>
        <pt x="799" y="35" on="0"/>
        <pt x="671" y="-20" on="0"/>
        <pt x="598" y="-20" on="1"/>
        <pt x="496" y="-20" on="1"/>
        <pt x="423" y="-20" on="0"/>
        <pt x="294" y="35" on="0"/>
        <pt x="198" y="131" on="0"/>
        <pt x="143" y="259" on="0"/>
        <pt x="143" y="332" on="1"/>
        <pt x="143" y="1102" on="1"/>
        <pt x="143" y="1175" on="0"/>
        <pt x="198" y="1303" on="0"/>
        <pt x="294" y="1399" on="0"/>
        <pt x="423" y="1454" on="0"/>
        <pt x="496" y="1454" on="1"/>
        <pt x="598" y="1454" on="1"/>
        <pt x="671" y="1454" on="0"/>
        <pt x="799" y="1399" on="0"/>
        <pt x="895" y="1303" on="0"/>
        <pt x="950" y="1175" on="0"/>
        <pt x="950" y="1102" on="1"/>
        <pt x="950" y="332" on="1"/>
      </contour>
      <contour>
        <pt x="821" y="1102" on="1"/>
        <pt x="821" y="1150" on="0"/>
        <pt x="785" y="1233" on="0"/>
        <pt x="723" y="1295" on="0"/>
        <pt x="640" y="1331" on="0"/>
        <pt x="592" y="1331" on="1"/>
        <pt x="502" y="1331" on="1"/>
        <pt x="454" y="1331" on="0"/>
        <pt x="371" y="1295" on="0"/>
        <pt x="308" y="1233" on="0"/>
        <pt x="272" y="1150" on="0"/>
        <pt x="272" y="1102" on="1"/>
        <pt x="272" y="332" on="1"/>
        <pt x="272" y="284" on="0"/>
        <pt x="308" y="201" on="0"/>
        <pt x="371" y="138" on="0"/>
        <pt x="454" y="102" on="0"/>
        <pt x="502" y="102" on="1"/>
        <pt x="592" y="102" on="1"/>
        <pt x="640" y="102" on="0"/>
        <pt x="723" y="138" on="0"/>
        <pt x="785" y="201" on="0"/>
        <pt x="821" y="284" on="0"/>
        <pt x="821" y="332" on="1"/>
      </contour>
    </TTGlyph>
    <TTGlyph name="OE" xMin="143" yMin="-20" xMax="1526" yMax="1454">
      <contour>
        <pt x="950" y="332" on="1"/>
        <pt x="950" y="273" on="0"/>
        <pt x="913" y="166" on="0"/>
        <pt x="881" y="123" on="1"/>
        <pt x="1526" y="123" on="1"/>
        <pt x="1526" y="0" on="1"/>
        <pt x="715" y="0" on="1"/>
        <pt x="687" y="-9" on="0"/>
        <pt x="629" y="-20" on="0"/>
        <pt x="598" y="-20" on="1"/>
        <pt x="496" y="-20" on="1"/>
        <pt x="423" y="-20" on="0"/>
        <pt x="294" y="35" on="0"/>
        <pt x="198" y="131" on="0"/>
        <pt x="143" y="259" on="0"/>
        <pt x="143" y="332" on="1"/>
        <pt x="143" y="1102" on="1"/>
        <pt x="143" y="1175" on="0"/>
        <pt x="198" y="1303" on="0"/>
        <pt x="294" y="1399" on="0"/>
        <pt x="423" y="1454" on="0"/>
        <pt x="496" y="1454" on="1"/>
        <pt x="598" y="1454" on="1"/>
        <pt x="629" y="1454" on="0"/>
        <pt x="687" y="1443" on="0"/>
        <pt x="715" y="1434" on="1"/>
        <pt x="1526" y="1434" on="1"/>
        <pt x="1526" y="1311" on="1"/>
        <pt x="881" y="1311" on="1"/>
        <pt x="913" y="1266" on="0"/>
        <pt x="950" y="1161" on="0"/>
        <pt x="950" y="1102" on="1"/>
        <pt x="950" y="778" on="1"/>
        <pt x="1397" y="778" on="1"/>
        <pt x="1397" y="655" on="1"/>
        <pt x="950" y="655" on="1"/>
        <pt x="950" y="332" on="1"/>
      </contour>
      <contour>
        <pt x="821" y="1102" on="1"/>
        <pt x="821" y="1150" on="0"/>
        <pt x="785" y="1233" on="0"/>
        <pt x="723" y="1295" on="0"/>
        <pt x="640" y="1331" on="0"/>
        <pt x="592" y="1331" on="1"/>
        <pt x="502" y="1331" on="1"/>
        <pt x="454" y="1331" on="0"/>
        <pt x="371" y="1295" on="0"/>
        <pt x="308" y="1233" on="0"/>
        <pt x="272" y="1150" on="0"/>
        <pt x="272" y="1102" on="1"/>
        <pt x="272" y="332" on="1"/>
        <pt x="272" y="284" on="0"/>
        <pt x="308" y="201" on="0"/>
        <pt x="371" y="138" on="0"/>
        <pt x="454" y="102" on="0"/>
        <pt x="502" y="102" on="1"/>
        <pt x="592" y="102" on="1"/>
        <pt x="640" y="102" on="0"/>
        <pt x="723" y="138" on="0"/>
        <pt x="785" y="201" on="0"/>
        <pt x="821" y="284" on="0"/>
        <pt x="821" y="332" on="1"/>
      </contour>
    </TTGlyph>
    <TTGlyph name="Oacute" xMin="143" yMin="-20" xMax="950" yMax="1843">
      <contour>
        <pt x="950" y="332" on="1"/>
        <pt x="950" y="259" on="0"/>
        <pt x="895" y="131" on="0"/>
        <pt x="799" y="35" on="0"/>
        <pt x="671" y="-20" on="0"/>
        <pt x="598" y="-20" on="1"/>
        <pt x="496" y="-20" on="1"/>
        <pt x="423" y="-20" on="0"/>
        <pt x="294" y="35" on="0"/>
        <pt x="198" y="131" on="0"/>
        <pt x="143" y="259" on="0"/>
        <pt x="143" y="332" on="1"/>
        <pt x="143" y="1102" on="1"/>
        <pt x="143" y="1175" on="0"/>
        <pt x="198" y="1303" on="0"/>
        <pt x="294" y="1399" on="0"/>
        <pt x="423" y="1454" on="0"/>
        <pt x="496" y="1454" on="1"/>
        <pt x="598" y="1454" on="1"/>
        <pt x="671" y="1454" on="0"/>
        <pt x="799" y="1399" on="0"/>
        <pt x="895" y="1303" on="0"/>
        <pt x="950" y="1175" on="0"/>
        <pt x="950" y="1102" on="1"/>
        <pt x="950" y="332" on="1"/>
      </contour>
      <contour>
        <pt x="821" y="1102" on="1"/>
        <pt x="821" y="1150" on="0"/>
        <pt x="785" y="1233" on="0"/>
        <pt x="723" y="1295" on="0"/>
        <pt x="640" y="1331" on="0"/>
        <pt x="592" y="1331" on="1"/>
        <pt x="502" y="1331" on="1"/>
        <pt x="454" y="1331" on="0"/>
        <pt x="371" y="1295" on="0"/>
        <pt x="308" y="1233" on="0"/>
        <pt x="272" y="1150" on="0"/>
        <pt x="272" y="1102" on="1"/>
        <pt x="272" y="332" on="1"/>
        <pt x="272" y="284" on="0"/>
        <pt x="308" y="201" on="0"/>
        <pt x="371" y="138" on="0"/>
        <pt x="454" y="102" on="0"/>
        <pt x="502" y="102" on="1"/>
        <pt x="592" y="102" on="1"/>
        <pt x="640" y="102" on="0"/>
        <pt x="723" y="138" on="0"/>
        <pt x="785" y="201" on="0"/>
        <pt x="821" y="284" on="0"/>
        <pt x="821" y="332" on="1"/>
      </contour>
      <contour>
        <pt x="516" y="1597" on="1"/>
        <pt x="424" y="1597" on="1"/>
        <pt x="588" y="1843" on="1"/>
        <pt x="793" y="1843" on="1"/>
      </contour>
    </TTGlyph>
    <TTGlyph name="Ocircumflex" xMin="143" yMin="-20" xMax="950" yMax="1843">
      <contour>
        <pt x="950" y="332" on="1"/>
        <pt x="950" y="259" on="0"/>
        <pt x="895" y="131" on="0"/>
        <pt x="799" y="35" on="0"/>
        <pt x="671" y="-20" on="0"/>
        <pt x="598" y="-20" on="1"/>
        <pt x="496" y="-20" on="1"/>
        <pt x="423" y="-20" on="0"/>
        <pt x="294" y="35" on="0"/>
        <pt x="198" y="131" on="0"/>
        <pt x="143" y="259" on="0"/>
        <pt x="143" y="332" on="1"/>
        <pt x="143" y="1102" on="1"/>
        <pt x="143" y="1175" on="0"/>
        <pt x="198" y="1303" on="0"/>
        <pt x="294" y="1399" on="0"/>
        <pt x="423" y="1454" on="0"/>
        <pt x="496" y="1454" on="1"/>
        <pt x="598" y="1454" on="1"/>
        <pt x="671" y="1454" on="0"/>
        <pt x="799" y="1399" on="0"/>
        <pt x="895" y="1303" on="0"/>
        <pt x="950" y="1175" on="0"/>
        <pt x="950" y="1102" on="1"/>
        <pt x="950" y="332" on="1"/>
      </contour>
      <contour>
        <pt x="821" y="1102" on="1"/>
        <pt x="821" y="1150" on="0"/>
        <pt x="785" y="1233" on="0"/>
        <pt x="723" y="1295" on="0"/>
        <pt x="640" y="1331" on="0"/>
        <pt x="592" y="1331" on="1"/>
        <pt x="502" y="1331" on="1"/>
        <pt x="454" y="1331" on="0"/>
        <pt x="371" y="1295" on="0"/>
        <pt x="308" y="1233" on="0"/>
        <pt x="272" y="1150" on="0"/>
        <pt x="272" y="1102" on="1"/>
        <pt x="272" y="332" on="1"/>
        <pt x="272" y="284" on="0"/>
        <pt x="308" y="201" on="0"/>
        <pt x="371" y="138" on="0"/>
        <pt x="454" y="102" on="0"/>
        <pt x="502" y="102" on="1"/>
        <pt x="592" y="102" on="1"/>
        <pt x="640" y="102" on="0"/>
        <pt x="723" y="138" on="0"/>
        <pt x="785" y="201" on="0"/>
        <pt x="821" y="284" on="0"/>
        <pt x="821" y="332" on="1"/>
      </contour>
      <contour>
        <pt x="813" y="1597" on="1"/>
        <pt x="690" y="1597" on="1"/>
        <pt x="547" y="1761" on="1"/>
        <pt x="403" y="1597" on="1"/>
        <pt x="281" y="1597" on="1"/>
        <pt x="485" y="1843" on="1"/>
        <pt x="608" y="1843" on="1"/>
      </contour>
    </TTGlyph>
    <TTGlyph name="Odieresis" xMin="143" yMin="-20" xMax="950" yMax="1794">
      <contour>
        <pt x="950" y="332" on="1"/>
        <pt x="950" y="259" on="0"/>
        <pt x="895" y="131" on="0"/>
        <pt x="799" y="35" on="0"/>
        <pt x="671" y="-20" on="0"/>
        <pt x="598" y="-20" on="1"/>
        <pt x="496" y="-20" on="1"/>
        <pt x="423" y="-20" on="0"/>
        <pt x="294" y="35" on="0"/>
        <pt x="198" y="131" on="0"/>
        <pt x="143" y="259" on="0"/>
        <pt x="143" y="332" on="1"/>
        <pt x="143" y="1102" on="1"/>
        <pt x="143" y="1175" on="0"/>
        <pt x="198" y="1303" on="0"/>
        <pt x="294" y="1399" on="0"/>
        <pt x="423" y="1454" on="0"/>
        <pt x="496" y="1454" on="1"/>
        <pt x="598" y="1454" on="1"/>
        <pt x="671" y="1454" on="0"/>
        <pt x="799" y="1399" on="0"/>
        <pt x="895" y="1303" on="0"/>
        <pt x="950" y="1175" on="0"/>
        <pt x="950" y="1102" on="1"/>
        <pt x="950" y="332" on="1"/>
      </contour>
      <contour>
        <pt x="821" y="1102" on="1"/>
        <pt x="821" y="1150" on="0"/>
        <pt x="785" y="1233" on="0"/>
        <pt x="723" y="1295" on="0"/>
        <pt x="640" y="1331" on="0"/>
        <pt x="592" y="1331" on="1"/>
        <pt x="502" y="1331" on="1"/>
        <pt x="454" y="1331" on="0"/>
        <pt x="371" y="1295" on="0"/>
        <pt x="308" y="1233" on="0"/>
        <pt x="272" y="1150" on="0"/>
        <pt x="272" y="1102" on="1"/>
        <pt x="272" y="332" on="1"/>
        <pt x="272" y="284" on="0"/>
        <pt x="308" y="201" on="0"/>
        <pt x="371" y="138" on="0"/>
        <pt x="454" y="102" on="0"/>
        <pt x="502" y="102" on="1"/>
        <pt x="592" y="102" on="1"/>
        <pt x="640" y="102" on="0"/>
        <pt x="723" y="138" on="0"/>
        <pt x="785" y="201" on="0"/>
        <pt x="821" y="284" on="0"/>
        <pt x="821" y="332" on="1"/>
      </contour>
      <contour>
        <pt x="276" y="1640" on="1"/>
        <pt x="276" y="1794" on="1"/>
        <pt x="430" y="1794" on="1"/>
        <pt x="430" y="1640" on="1"/>
      </contour>
      <contour>
        <pt x="664" y="1640" on="1"/>
        <pt x="664" y="1794" on="1"/>
        <pt x="817" y="1794" on="1"/>
        <pt x="817" y="1640" on="1"/>
      </contour>
    </TTGlyph>
    <TTGlyph name="Ograve" xMin="143" yMin="-20" xMax="950" yMax="1843">
      <contour>
        <pt x="950" y="332" on="1"/>
        <pt x="950" y="259" on="0"/>
        <pt x="895" y="131" on="0"/>
        <pt x="799" y="35" on="0"/>
        <pt x="671" y="-20" on="0"/>
        <pt x="598" y="-20" on="1"/>
        <pt x="496" y="-20" on="1"/>
        <pt x="423" y="-20" on="0"/>
        <pt x="294" y="35" on="0"/>
        <pt x="198" y="131" on="0"/>
        <pt x="143" y="259" on="0"/>
        <pt x="143" y="332" on="1"/>
        <pt x="143" y="1102" on="1"/>
        <pt x="143" y="1175" on="0"/>
        <pt x="198" y="1303" on="0"/>
        <pt x="294" y="1399" on="0"/>
        <pt x="423" y="1454" on="0"/>
        <pt x="496" y="1454" on="1"/>
        <pt x="598" y="1454" on="1"/>
        <pt x="671" y="1454" on="0"/>
        <pt x="799" y="1399" on="0"/>
        <pt x="895" y="1303" on="0"/>
        <pt x="950" y="1175" on="0"/>
        <pt x="950" y="1102" on="1"/>
        <pt x="950" y="332" on="1"/>
      </contour>
      <contour>
        <pt x="821" y="1102" on="1"/>
        <pt x="821" y="1150" on="0"/>
        <pt x="785" y="1233" on="0"/>
        <pt x="723" y="1295" on="0"/>
        <pt x="640" y="1331" on="0"/>
        <pt x="592" y="1331" on="1"/>
        <pt x="502" y="1331" on="1"/>
        <pt x="454" y="1331" on="0"/>
        <pt x="371" y="1295" on="0"/>
        <pt x="308" y="1233" on="0"/>
        <pt x="272" y="1150" on="0"/>
        <pt x="272" y="1102" on="1"/>
        <pt x="272" y="332" on="1"/>
        <pt x="272" y="284" on="0"/>
        <pt x="308" y="201" on="0"/>
        <pt x="371" y="138" on="0"/>
        <pt x="454" y="102" on="0"/>
        <pt x="502" y="102" on="1"/>
        <pt x="592" y="102" on="1"/>
        <pt x="640" y="102" on="0"/>
        <pt x="723" y="138" on="0"/>
        <pt x="785" y="201" on="0"/>
        <pt x="821" y="284" on="0"/>
        <pt x="821" y="332" on="1"/>
      </contour>
      <contour>
        <pt x="342" y="1843" on="1"/>
        <pt x="547" y="1843" on="1"/>
        <pt x="711" y="1597" on="1"/>
        <pt x="618" y="1597" on="1"/>
      </contour>
    </TTGlyph>
    <TTGlyph name="Oslash" xMin="102" yMin="-61" xMax="991" yMax="1495">
      <contour>
        <pt x="102" y="-61" on="1"/>
        <pt x="201" y="137" on="1"/>
        <pt x="173" y="179" on="0"/>
        <pt x="143" y="278" on="0"/>
        <pt x="143" y="332" on="1"/>
        <pt x="143" y="1102" on="1"/>
        <pt x="143" y="1175" on="0"/>
        <pt x="198" y="1303" on="0"/>
        <pt x="294" y="1399" on="0"/>
        <pt x="423" y="1454" on="0"/>
        <pt x="496" y="1454" on="1"/>
        <pt x="598" y="1454" on="1"/>
        <pt x="661" y="1454" on="0"/>
        <pt x="776" y="1411" on="0"/>
        <pt x="821" y="1374" on="1"/>
        <pt x="883" y="1495" on="1"/>
        <pt x="991" y="1495" on="1"/>
        <pt x="891" y="1294" on="1"/>
        <pt x="919" y="1252" on="0"/>
        <pt x="950" y="1156" on="0"/>
        <pt x="950" y="1102" on="1"/>
        <pt x="950" y="332" on="1"/>
        <pt x="950" y="259" on="0"/>
        <pt x="895" y="131" on="0"/>
        <pt x="799" y="35" on="0"/>
        <pt x="671" y="-20" on="0"/>
        <pt x="598" y="-20" on="1"/>
        <pt x="496" y="-20" on="1"/>
        <pt x="431" y="-20" on="0"/>
        <pt x="317" y="21" on="0"/>
        <pt x="270" y="59" on="1"/>
        <pt x="211" y="-61" on="1"/>
      </contour>
      <contour>
        <pt x="821" y="1102" on="1"/>
        <pt x="821" y="1113" on="0"/>
        <pt x="819" y="1136" on="0"/>
        <pt x="817" y="1147" on="1"/>
        <pt x="330" y="178" on="1"/>
        <pt x="362" y="143" on="0"/>
        <pt x="449" y="102" on="0"/>
        <pt x="502" y="102" on="1"/>
        <pt x="592" y="102" on="1"/>
        <pt x="640" y="102" on="0"/>
        <pt x="723" y="138" on="0"/>
        <pt x="785" y="201" on="0"/>
        <pt x="821" y="284" on="0"/>
        <pt x="821" y="332" on="1"/>
      </contour>
      <contour>
        <pt x="272" y="332" on="1"/>
        <pt x="272" y="319" on="0"/>
        <pt x="273" y="298" on="0"/>
        <pt x="276" y="287" on="1"/>
        <pt x="762" y="1255" on="1"/>
        <pt x="731" y="1291" on="0"/>
        <pt x="643" y="1331" on="0"/>
        <pt x="592" y="1331" on="1"/>
        <pt x="502" y="1331" on="1"/>
        <pt x="454" y="1331" on="0"/>
        <pt x="371" y="1295" on="0"/>
        <pt x="308" y="1233" on="0"/>
        <pt x="272" y="1150" on="0"/>
        <pt x="272" y="1102" on="1"/>
        <pt x="272" y="332" on="1"/>
      </contour>
    </TTGlyph>
    <TTGlyph name="Otilde" xMin="143" yMin="-20" xMax="950" yMax="1843">
      <contour>
        <pt x="950" y="332" on="1"/>
        <pt x="950" y="259" on="0"/>
        <pt x="895" y="131" on="0"/>
        <pt x="799" y="35" on="0"/>
        <pt x="671" y="-20" on="0"/>
        <pt x="598" y="-20" on="1"/>
        <pt x="496" y="-20" on="1"/>
        <pt x="423" y="-20" on="0"/>
        <pt x="294" y="35" on="0"/>
        <pt x="198" y="131" on="0"/>
        <pt x="143" y="259" on="0"/>
        <pt x="143" y="332" on="1"/>
        <pt x="143" y="1102" on="1"/>
        <pt x="143" y="1175" on="0"/>
        <pt x="198" y="1303" on="0"/>
        <pt x="294" y="1399" on="0"/>
        <pt x="423" y="1454" on="0"/>
        <pt x="496" y="1454" on="1"/>
        <pt x="598" y="1454" on="1"/>
        <pt x="671" y="1454" on="0"/>
        <pt x="799" y="1399" on="0"/>
        <pt x="895" y="1303" on="0"/>
        <pt x="950" y="1175" on="0"/>
        <pt x="950" y="1102" on="1"/>
        <pt x="950" y="332" on="1"/>
      </contour>
      <contour>
        <pt x="821" y="1102" on="1"/>
        <pt x="821" y="1150" on="0"/>
        <pt x="785" y="1233" on="0"/>
        <pt x="723" y="1295" on="0"/>
        <pt x="640" y="1331" on="0"/>
        <pt x="592" y="1331" on="1"/>
        <pt x="502" y="1331" on="1"/>
        <pt x="454" y="1331" on="0"/>
        <pt x="371" y="1295" on="0"/>
        <pt x="308" y="1233" on="0"/>
        <pt x="272" y="1150" on="0"/>
        <pt x="272" y="1102" on="1"/>
        <pt x="272" y="332" on="1"/>
        <pt x="272" y="284" on="0"/>
        <pt x="308" y="201" on="0"/>
        <pt x="371" y="138" on="0"/>
        <pt x="454" y="102" on="0"/>
        <pt x="502" y="102" on="1"/>
        <pt x="592" y="102" on="1"/>
        <pt x="640" y="102" on="0"/>
        <pt x="723" y="138" on="0"/>
        <pt x="785" y="201" on="0"/>
        <pt x="821" y="284" on="0"/>
        <pt x="821" y="332" on="1"/>
      </contour>
      <contour>
        <pt x="682" y="1729" on="1"/>
        <pt x="724" y="1729" on="0"/>
        <pt x="768" y="1792" on="0"/>
        <pt x="768" y="1843" on="1"/>
        <pt x="862" y="1843" on="1"/>
        <pt x="862" y="1798" on="0"/>
        <pt x="839" y="1720" on="0"/>
        <pt x="794" y="1662" on="0"/>
        <pt x="725" y="1628" on="0"/>
        <pt x="680" y="1628" on="1"/>
        <pt x="632" y="1628" on="0"/>
        <pt x="558" y="1664" on="0"/>
        <pt x="495" y="1707" on="0"/>
        <pt x="438" y="1743" on="0"/>
        <pt x="408" y="1743" on="1"/>
        <pt x="366" y="1743" on="0"/>
        <pt x="324" y="1680" on="0"/>
        <pt x="324" y="1630" on="1"/>
        <pt x="229" y="1630" on="1"/>
        <pt x="229" y="1675" on="0"/>
        <pt x="252" y="1752" on="0"/>
        <pt x="297" y="1810" on="0"/>
        <pt x="366" y="1843" on="0"/>
        <pt x="412" y="1843" on="1"/>
        <pt x="456" y="1843" on="0"/>
        <pt x="525" y="1807" on="0"/>
        <pt x="587" y="1765" on="0"/>
        <pt x="647" y="1729" on="0"/>
      </contour>
    </TTGlyph>
    <TTGlyph name="P" xMin="164" yMin="0" xMax="971" yMax="1434">
      <contour>
        <pt x="971" y="903" on="1"/>
        <pt x="971" y="830" on="0"/>
        <pt x="916" y="702" on="0"/>
        <pt x="820" y="606" on="0"/>
        <pt x="691" y="551" on="0"/>
        <pt x="618" y="551" on="1"/>
        <pt x="293" y="551" on="1"/>
        <pt x="293" y="0" on="1"/>
        <pt x="164" y="0" on="1"/>
        <pt x="164" y="1434" on="1"/>
        <pt x="618" y="1434" on="1"/>
        <pt x="691" y="1434" on="0"/>
        <pt x="820" y="1379" on="0"/>
        <pt x="916" y="1283" on="0"/>
        <pt x="971" y="1154" on="0"/>
        <pt x="971" y="1081" on="1"/>
        <pt x="971" y="903" on="1"/>
      </contour>
      <contour>
        <pt x="842" y="1081" on="1"/>
        <pt x="842" y="1129" on="0"/>
        <pt x="806" y="1212" on="0"/>
        <pt x="743" y="1275" on="0"/>
        <pt x="660" y="1311" on="0"/>
        <pt x="612" y="1311" on="1"/>
        <pt x="293" y="1311" on="1"/>
        <pt x="293" y="674" on="1"/>
        <pt x="612" y="674" on="1"/>
        <pt x="660" y="674" on="0"/>
        <pt x="743" y="710" on="0"/>
        <pt x="806" y="772" on="0"/>
        <pt x="842" y="855" on="0"/>
        <pt x="842" y="903" on="1"/>
      </contour>
    </TTGlyph>
    <TTGlyph name="Q" xMin="143" yMin="-315" xMax="950" yMax="1454">
      <contour>
        <pt x="950" y="332" on="1"/>
        <pt x="950" y="262" on="0"/>
        <pt x="900" y="138" on="0"/>
        <pt x="812" y="44" on="0"/>
        <pt x="693" y="-15" on="0"/>
        <pt x="625" y="-20" on="1"/>
        <pt x="756" y="-315" on="1"/>
        <pt x="627" y="-315" on="1"/>
        <pt x="496" y="-20" on="1"/>
        <pt x="423" y="-20" on="0"/>
        <pt x="294" y="35" on="0"/>
        <pt x="198" y="131" on="0"/>
        <pt x="143" y="259" on="0"/>
        <pt x="143" y="332" on="1"/>
        <pt x="143" y="1102" on="1"/>
        <pt x="143" y="1175" on="0"/>
        <pt x="198" y="1303" on="0"/>
        <pt x="294" y="1399" on="0"/>
        <pt x="423" y="1454" on="0"/>
        <pt x="496" y="1454" on="1"/>
        <pt x="598" y="1454" on="1"/>
        <pt x="671" y="1454" on="0"/>
        <pt x="799" y="1399" on="0"/>
        <pt x="895" y="1303" on="0"/>
        <pt x="950" y="1175" on="0"/>
        <pt x="950" y="1102" on="1"/>
        <pt x="950" y="332" on="1"/>
      </contour>
      <contour>
        <pt x="821" y="1102" on="1"/>
        <pt x="821" y="1150" on="0"/>
        <pt x="785" y="1233" on="0"/>
        <pt x="723" y="1295" on="0"/>
        <pt x="640" y="1331" on="0"/>
        <pt x="592" y="1331" on="1"/>
        <pt x="502" y="1331" on="1"/>
        <pt x="454" y="1331" on="0"/>
        <pt x="371" y="1295" on="0"/>
        <pt x="308" y="1233" on="0"/>
        <pt x="272" y="1150" on="0"/>
        <pt x="272" y="1102" on="1"/>
        <pt x="272" y="332" on="1"/>
        <pt x="272" y="284" on="0"/>
        <pt x="308" y="201" on="0"/>
        <pt x="371" y="138" on="0"/>
        <pt x="454" y="102" on="0"/>
        <pt x="502" y="102" on="1"/>
        <pt x="592" y="102" on="1"/>
        <pt x="640" y="102" on="0"/>
        <pt x="723" y="138" on="0"/>
        <pt x="785" y="201" on="0"/>
        <pt x="821" y="284" on="0"/>
        <pt x="821" y="332" on="1"/>
      </contour>
    </TTGlyph>
    <TTGlyph name="R" xMin="143" yMin="0" xMax="987" yMax="1434">
      <contour>
        <pt x="838" y="0" on="1"/>
        <pt x="449" y="612" on="1"/>
        <pt x="272" y="612" on="1"/>
        <pt x="272" y="0" on="1"/>
        <pt x="143" y="0" on="1"/>
        <pt x="143" y="1434" on="1"/>
        <pt x="598" y="1434" on="1"/>
        <pt x="671" y="1434" on="0"/>
        <pt x="799" y="1379" on="0"/>
        <pt x="895" y="1283" on="0"/>
        <pt x="950" y="1154" on="0"/>
        <pt x="950" y="1081" on="1"/>
        <pt x="950" y="965" on="1"/>
        <pt x="950" y="892" on="0"/>
        <pt x="895" y="763" on="0"/>
        <pt x="799" y="667" on="0"/>
        <pt x="671" y="612" on="0"/>
        <pt x="598" y="612" on="1"/>
        <pt x="987" y="0" on="1"/>
      </contour>
      <contour>
        <pt x="821" y="1081" on="1"/>
        <pt x="821" y="1129" on="0"/>
        <pt x="785" y="1212" on="0"/>
        <pt x="723" y="1275" on="0"/>
        <pt x="640" y="1311" on="0"/>
        <pt x="592" y="1311" on="1"/>
        <pt x="272" y="1311" on="1"/>
        <pt x="272" y="735" on="1"/>
        <pt x="592" y="735" on="1"/>
        <pt x="640" y="735" on="0"/>
        <pt x="723" y="771" on="0"/>
        <pt x="785" y="834" on="0"/>
        <pt x="821" y="917" on="0"/>
        <pt x="821" y="965" on="1"/>
      </contour>
    </TTGlyph>
    <TTGlyph name="Racute" xMin="143" yMin="0" xMax="987" yMax="1843">
      <contour>
        <pt x="838" y="0" on="1"/>
        <pt x="449" y="612" on="1"/>
        <pt x="272" y="612" on="1"/>
        <pt x="272" y="0" on="1"/>
        <pt x="143" y="0" on="1"/>
        <pt x="143" y="1434" on="1"/>
        <pt x="598" y="1434" on="1"/>
        <pt x="671" y="1434" on="0"/>
        <pt x="799" y="1379" on="0"/>
        <pt x="895" y="1283" on="0"/>
        <pt x="950" y="1154" on="0"/>
        <pt x="950" y="1081" on="1"/>
        <pt x="950" y="965" on="1"/>
        <pt x="950" y="892" on="0"/>
        <pt x="895" y="763" on="0"/>
        <pt x="799" y="667" on="0"/>
        <pt x="671" y="612" on="0"/>
        <pt x="598" y="612" on="1"/>
        <pt x="987" y="0" on="1"/>
      </contour>
      <contour>
        <pt x="821" y="1081" on="1"/>
        <pt x="821" y="1129" on="0"/>
        <pt x="785" y="1212" on="0"/>
        <pt x="723" y="1275" on="0"/>
        <pt x="640" y="1311" on="0"/>
        <pt x="592" y="1311" on="1"/>
        <pt x="272" y="1311" on="1"/>
        <pt x="272" y="735" on="1"/>
        <pt x="592" y="735" on="1"/>
        <pt x="640" y="735" on="0"/>
        <pt x="723" y="771" on="0"/>
        <pt x="785" y="834" on="0"/>
        <pt x="821" y="917" on="0"/>
        <pt x="821" y="965" on="1"/>
      </contour>
      <contour>
        <pt x="463" y="1597" on="1"/>
        <pt x="371" y="1597" on="1"/>
        <pt x="535" y="1843" on="1"/>
        <pt x="739" y="1843" on="1"/>
      </contour>
    </TTGlyph>
    <TTGlyph name="Rcaron" xMin="143" yMin="0" xMax="987" yMax="1843">
      <contour>
        <pt x="838" y="0" on="1"/>
        <pt x="449" y="612" on="1"/>
        <pt x="272" y="612" on="1"/>
        <pt x="272" y="0" on="1"/>
        <pt x="143" y="0" on="1"/>
        <pt x="143" y="1434" on="1"/>
        <pt x="598" y="1434" on="1"/>
        <pt x="671" y="1434" on="0"/>
        <pt x="799" y="1379" on="0"/>
        <pt x="895" y="1283" on="0"/>
        <pt x="950" y="1154" on="0"/>
        <pt x="950" y="1081" on="1"/>
        <pt x="950" y="965" on="1"/>
        <pt x="950" y="892" on="0"/>
        <pt x="895" y="763" on="0"/>
        <pt x="799" y="667" on="0"/>
        <pt x="671" y="612" on="0"/>
        <pt x="598" y="612" on="1"/>
        <pt x="987" y="0" on="1"/>
      </contour>
      <contour>
        <pt x="821" y="1081" on="1"/>
        <pt x="821" y="1129" on="0"/>
        <pt x="785" y="1212" on="0"/>
        <pt x="723" y="1275" on="0"/>
        <pt x="640" y="1311" on="0"/>
        <pt x="592" y="1311" on="1"/>
        <pt x="272" y="1311" on="1"/>
        <pt x="272" y="735" on="1"/>
        <pt x="592" y="735" on="1"/>
        <pt x="640" y="735" on="0"/>
        <pt x="723" y="771" on="0"/>
        <pt x="785" y="834" on="0"/>
        <pt x="821" y="917" on="0"/>
        <pt x="821" y="965" on="1"/>
      </contour>
      <contour>
        <pt x="575" y="1597" on="1"/>
        <pt x="453" y="1597" on="1"/>
        <pt x="248" y="1843" on="1"/>
        <pt x="371" y="1843" on="1"/>
        <pt x="514" y="1679" on="1"/>
        <pt x="657" y="1843" on="1"/>
        <pt x="780" y="1843" on="1"/>
      </contour>
    </TTGlyph>
    <TTGlyph name="Rcommaaccent" xMin="143" yMin="-604" xMax="987" yMax="1434">
      <contour>
        <pt x="838" y="0" on="1"/>
        <pt x="449" y="612" on="1"/>
        <pt x="272" y="612" on="1"/>
        <pt x="272" y="0" on="1"/>
        <pt x="143" y="0" on="1"/>
        <pt x="143" y="1434" on="1"/>
        <pt x="598" y="1434" on="1"/>
        <pt x="671" y="1434" on="0"/>
        <pt x="799" y="1379" on="0"/>
        <pt x="895" y="1283" on="0"/>
        <pt x="950" y="1154" on="0"/>
        <pt x="950" y="1081" on="1"/>
        <pt x="950" y="965" on="1"/>
        <pt x="950" y="892" on="0"/>
        <pt x="895" y="763" on="0"/>
        <pt x="799" y="667" on="0"/>
        <pt x="671" y="612" on="0"/>
        <pt x="598" y="612" on="1"/>
        <pt x="987" y="0" on="1"/>
      </contour>
      <contour>
        <pt x="821" y="1081" on="1"/>
        <pt x="821" y="1129" on="0"/>
        <pt x="785" y="1212" on="0"/>
        <pt x="723" y="1275" on="0"/>
        <pt x="640" y="1311" on="0"/>
        <pt x="592" y="1311" on="1"/>
        <pt x="272" y="1311" on="1"/>
        <pt x="272" y="735" on="1"/>
        <pt x="592" y="735" on="1"/>
        <pt x="640" y="735" on="0"/>
        <pt x="723" y="771" on="0"/>
        <pt x="785" y="834" on="0"/>
        <pt x="821" y="917" on="0"/>
        <pt x="821" y="965" on="1"/>
      </contour>
      <contour>
        <pt x="516" y="-604" on="1"/>
        <pt x="465" y="-604" on="1"/>
        <pt x="465" y="-164" on="1"/>
        <pt x="618" y="-164" on="1"/>
      </contour>
    </TTGlyph>
    <TTGlyph name="S" xMin="123" yMin="-20" xMax="950" yMax="1454">
      <contour>
        <pt x="950" y="332" on="1"/>
        <pt x="950" y="259" on="0"/>
        <pt x="891" y="131" on="0"/>
        <pt x="792" y="35" on="0"/>
        <pt x="661" y="-20" on="0"/>
        <pt x="588" y="-20" on="1"/>
        <pt x="485" y="-20" on="1"/>
        <pt x="412" y="-20" on="0"/>
        <pt x="281" y="35" on="0"/>
        <pt x="182" y="131" on="0"/>
        <pt x="123" y="259" on="0"/>
        <pt x="123" y="332" on="1"/>
        <pt x="123" y="389" on="1"/>
        <pt x="252" y="410" on="1"/>
        <pt x="252" y="332" on="1"/>
        <pt x="252" y="284" on="0"/>
        <pt x="291" y="201" on="0"/>
        <pt x="357" y="138" on="0"/>
        <pt x="444" y="102" on="0"/>
        <pt x="492" y="102" on="1"/>
        <pt x="582" y="102" on="1"/>
        <pt x="630" y="102" on="0"/>
        <pt x="716" y="138" on="0"/>
        <pt x="782" y="201" on="0"/>
        <pt x="821" y="284" on="0"/>
        <pt x="821" y="332" on="1"/>
        <pt x="821" y="375" on="1"/>
        <pt x="821" y="449" on="0"/>
        <pt x="763" y="547" on="0"/>
        <pt x="667" y="616" on="0"/>
        <pt x="546" y="664" on="0"/>
        <pt x="418" y="712" on="0"/>
        <pt x="297" y="770" on="0"/>
        <pt x="201" y="857" on="0"/>
        <pt x="143" y="983" on="0"/>
        <pt x="143" y="1075" on="1"/>
        <pt x="143" y="1102" on="1"/>
        <pt x="143" y="1175" on="0"/>
        <pt x="198" y="1303" on="0"/>
        <pt x="294" y="1399" on="0"/>
        <pt x="423" y="1454" on="0"/>
        <pt x="496" y="1454" on="1"/>
        <pt x="588" y="1454" on="1"/>
        <pt x="661" y="1454" on="0"/>
        <pt x="789" y="1399" on="0"/>
        <pt x="885" y="1303" on="0"/>
        <pt x="940" y="1175" on="0"/>
        <pt x="940" y="1102" on="1"/>
        <pt x="940" y="1065" on="1"/>
        <pt x="811" y="1044" on="1"/>
        <pt x="811" y="1102" on="1"/>
        <pt x="811" y="1150" on="0"/>
        <pt x="775" y="1233" on="0"/>
        <pt x="713" y="1295" on="0"/>
        <pt x="630" y="1331" on="0"/>
        <pt x="582" y="1331" on="1"/>
        <pt x="502" y="1331" on="1"/>
        <pt x="454" y="1331" on="0"/>
        <pt x="371" y="1295" on="0"/>
        <pt x="308" y="1233" on="0"/>
        <pt x="272" y="1150" on="0"/>
        <pt x="272" y="1102" on="1"/>
        <pt x="272" y="1075" on="1"/>
        <pt x="272" y="1006" on="0"/>
        <pt x="330" y="912" on="0"/>
        <pt x="426" y="845" on="0"/>
        <pt x="547" y="796" on="0"/>
        <pt x="675" y="745" on="0"/>
        <pt x="796" y="684" on="0"/>
        <pt x="892" y="595" on="0"/>
        <pt x="950" y="467" on="0"/>
        <pt x="950" y="375" on="1"/>
      </contour>
    </TTGlyph>
    <TTGlyph name="Scaron" xMin="123" yMin="-20" xMax="950" yMax="1843">
      <contour>
        <pt x="950" y="332" on="1"/>
        <pt x="950" y="259" on="0"/>
        <pt x="891" y="131" on="0"/>
        <pt x="792" y="35" on="0"/>
        <pt x="661" y="-20" on="0"/>
        <pt x="588" y="-20" on="1"/>
        <pt x="485" y="-20" on="1"/>
        <pt x="412" y="-20" on="0"/>
        <pt x="281" y="35" on="0"/>
        <pt x="182" y="131" on="0"/>
        <pt x="123" y="259" on="0"/>
        <pt x="123" y="332" on="1"/>
        <pt x="123" y="389" on="1"/>
        <pt x="252" y="410" on="1"/>
        <pt x="252" y="332" on="1"/>
        <pt x="252" y="284" on="0"/>
        <pt x="291" y="201" on="0"/>
        <pt x="357" y="138" on="0"/>
        <pt x="444" y="102" on="0"/>
        <pt x="492" y="102" on="1"/>
        <pt x="582" y="102" on="1"/>
        <pt x="630" y="102" on="0"/>
        <pt x="716" y="138" on="0"/>
        <pt x="782" y="201" on="0"/>
        <pt x="821" y="284" on="0"/>
        <pt x="821" y="332" on="1"/>
        <pt x="821" y="375" on="1"/>
        <pt x="821" y="449" on="0"/>
        <pt x="763" y="547" on="0"/>
        <pt x="667" y="616" on="0"/>
        <pt x="546" y="664" on="0"/>
        <pt x="418" y="712" on="0"/>
        <pt x="297" y="770" on="0"/>
        <pt x="201" y="857" on="0"/>
        <pt x="143" y="983" on="0"/>
        <pt x="143" y="1075" on="1"/>
        <pt x="143" y="1102" on="1"/>
        <pt x="143" y="1175" on="0"/>
        <pt x="198" y="1303" on="0"/>
        <pt x="294" y="1399" on="0"/>
        <pt x="423" y="1454" on="0"/>
        <pt x="496" y="1454" on="1"/>
        <pt x="588" y="1454" on="1"/>
        <pt x="661" y="1454" on="0"/>
        <pt x="789" y="1399" on="0"/>
        <pt x="885" y="1303" on="0"/>
        <pt x="940" y="1175" on="0"/>
        <pt x="940" y="1102" on="1"/>
        <pt x="940" y="1065" on="1"/>
        <pt x="811" y="1044" on="1"/>
        <pt x="811" y="1102" on="1"/>
        <pt x="811" y="1150" on="0"/>
        <pt x="775" y="1233" on="0"/>
        <pt x="713" y="1295" on="0"/>
        <pt x="630" y="1331" on="0"/>
        <pt x="582" y="1331" on="1"/>
        <pt x="502" y="1331" on="1"/>
        <pt x="454" y="1331" on="0"/>
        <pt x="371" y="1295" on="0"/>
        <pt x="308" y="1233" on="0"/>
        <pt x="272" y="1150" on="0"/>
        <pt x="272" y="1102" on="1"/>
        <pt x="272" y="1075" on="1"/>
        <pt x="272" y="1006" on="0"/>
        <pt x="330" y="912" on="0"/>
        <pt x="426" y="845" on="0"/>
        <pt x="547" y="796" on="0"/>
        <pt x="675" y="745" on="0"/>
        <pt x="796" y="684" on="0"/>
        <pt x="892" y="595" on="0"/>
        <pt x="950" y="467" on="0"/>
        <pt x="950" y="375" on="1"/>
      </contour>
      <contour>
        <pt x="598" y="1597" on="1"/>
        <pt x="475" y="1597" on="1"/>
        <pt x="270" y="1843" on="1"/>
        <pt x="393" y="1843" on="1"/>
        <pt x="537" y="1679" on="1"/>
        <pt x="680" y="1843" on="1"/>
        <pt x="803" y="1843" on="1"/>
      </contour>
    </TTGlyph>
    <TTGlyph name="T" xMin="41" yMin="0" xMax="854" yMax="1434">
      <contour>
        <pt x="512" y="1311" on="1"/>
        <pt x="512" y="0" on="1"/>
        <pt x="383" y="0" on="1"/>
        <pt x="383" y="1311" on="1"/>
        <pt x="41" y="1311" on="1"/>
        <pt x="41" y="1434" on="1"/>
        <pt x="854" y="1434" on="1"/>
        <pt x="854" y="1311" on="1"/>
      </contour>
    </TTGlyph>
    <TTGlyph name="Thorn" xMin="164" yMin="0" xMax="971" yMax="1434">
      <contour>
        <pt x="971" y="682" on="1"/>
        <pt x="971" y="609" on="0"/>
        <pt x="916" y="481" on="0"/>
        <pt x="820" y="385" on="0"/>
        <pt x="691" y="330" on="0"/>
        <pt x="618" y="330" on="1"/>
        <pt x="293" y="330" on="1"/>
        <pt x="293" y="0" on="1"/>
        <pt x="164" y="0" on="1"/>
        <pt x="164" y="1434" on="1"/>
        <pt x="293" y="1434" on="1"/>
        <pt x="293" y="1151" on="1"/>
        <pt x="618" y="1151" on="1"/>
        <pt x="691" y="1151" on="0"/>
        <pt x="820" y="1096" on="0"/>
        <pt x="916" y="1000" on="0"/>
        <pt x="971" y="872" on="0"/>
        <pt x="971" y="799" on="1"/>
        <pt x="971" y="682" on="1"/>
      </contour>
      <contour>
        <pt x="842" y="799" on="1"/>
        <pt x="842" y="847" on="0"/>
        <pt x="806" y="930" on="0"/>
        <pt x="743" y="992" on="0"/>
        <pt x="660" y="1028" on="0"/>
        <pt x="612" y="1028" on="1"/>
        <pt x="293" y="1028" on="1"/>
        <pt x="293" y="453" on="1"/>
        <pt x="612" y="453" on="1"/>
        <pt x="660" y="453" on="0"/>
        <pt x="743" y="489" on="0"/>
        <pt x="806" y="551" on="0"/>
        <pt x="842" y="634" on="0"/>
        <pt x="842" y="682" on="1"/>
      </contour>
    </TTGlyph>
    <TTGlyph name="U" xMin="143" yMin="-20" xMax="950" yMax="1434">
      <contour>
        <pt x="950" y="332" on="1"/>
        <pt x="950" y="259" on="0"/>
        <pt x="895" y="131" on="0"/>
        <pt x="799" y="35" on="0"/>
        <pt x="671" y="-20" on="0"/>
        <pt x="598" y="-20" on="1"/>
        <pt x="496" y="-20" on="1"/>
        <pt x="423" y="-20" on="0"/>
        <pt x="294" y="35" on="0"/>
        <pt x="198" y="131" on="0"/>
        <pt x="143" y="259" on="0"/>
        <pt x="143" y="332" on="1"/>
        <pt x="143" y="1434" on="1"/>
        <pt x="272" y="1434" on="1"/>
        <pt x="272" y="332" on="1"/>
        <pt x="272" y="284" on="0"/>
        <pt x="308" y="201" on="0"/>
        <pt x="371" y="138" on="0"/>
        <pt x="454" y="102" on="0"/>
        <pt x="502" y="102" on="1"/>
        <pt x="592" y="102" on="1"/>
        <pt x="640" y="102" on="0"/>
        <pt x="723" y="138" on="0"/>
        <pt x="785" y="201" on="0"/>
        <pt x="821" y="284" on="0"/>
        <pt x="821" y="332" on="1"/>
        <pt x="821" y="1434" on="1"/>
        <pt x="950" y="1434" on="1"/>
        <pt x="950" y="332" on="1"/>
      </contour>
    </TTGlyph>
    <TTGlyph name="Uacute" xMin="143" yMin="-20" xMax="950" yMax="1843">
      <contour>
        <pt x="950" y="332" on="1"/>
        <pt x="950" y="259" on="0"/>
        <pt x="895" y="131" on="0"/>
        <pt x="799" y="35" on="0"/>
        <pt x="671" y="-20" on="0"/>
        <pt x="598" y="-20" on="1"/>
        <pt x="496" y="-20" on="1"/>
        <pt x="423" y="-20" on="0"/>
        <pt x="294" y="35" on="0"/>
        <pt x="198" y="131" on="0"/>
        <pt x="143" y="259" on="0"/>
        <pt x="143" y="332" on="1"/>
        <pt x="143" y="1434" on="1"/>
        <pt x="272" y="1434" on="1"/>
        <pt x="272" y="332" on="1"/>
        <pt x="272" y="284" on="0"/>
        <pt x="308" y="201" on="0"/>
        <pt x="371" y="138" on="0"/>
        <pt x="454" y="102" on="0"/>
        <pt x="502" y="102" on="1"/>
        <pt x="592" y="102" on="1"/>
        <pt x="640" y="102" on="0"/>
        <pt x="723" y="138" on="0"/>
        <pt x="785" y="201" on="0"/>
        <pt x="821" y="284" on="0"/>
        <pt x="821" y="332" on="1"/>
        <pt x="821" y="1434" on="1"/>
        <pt x="950" y="1434" on="1"/>
        <pt x="950" y="332" on="1"/>
      </contour>
      <contour>
        <pt x="516" y="1597" on="1"/>
        <pt x="424" y="1597" on="1"/>
        <pt x="588" y="1843" on="1"/>
        <pt x="793" y="1843" on="1"/>
      </contour>
    </TTGlyph>
    <TTGlyph name="Ucircumflex" xMin="143" yMin="-20" xMax="950" yMax="1843">
      <contour>
        <pt x="950" y="332" on="1"/>
        <pt x="950" y="259" on="0"/>
        <pt x="895" y="131" on="0"/>
        <pt x="799" y="35" on="0"/>
        <pt x="671" y="-20" on="0"/>
        <pt x="598" y="-20" on="1"/>
        <pt x="496" y="-20" on="1"/>
        <pt x="423" y="-20" on="0"/>
        <pt x="294" y="35" on="0"/>
        <pt x="198" y="131" on="0"/>
        <pt x="143" y="259" on="0"/>
        <pt x="143" y="332" on="1"/>
        <pt x="143" y="1434" on="1"/>
        <pt x="272" y="1434" on="1"/>
        <pt x="272" y="332" on="1"/>
        <pt x="272" y="284" on="0"/>
        <pt x="308" y="201" on="0"/>
        <pt x="371" y="138" on="0"/>
        <pt x="454" y="102" on="0"/>
        <pt x="502" y="102" on="1"/>
        <pt x="592" y="102" on="1"/>
        <pt x="640" y="102" on="0"/>
        <pt x="723" y="138" on="0"/>
        <pt x="785" y="201" on="0"/>
        <pt x="821" y="284" on="0"/>
        <pt x="821" y="332" on="1"/>
        <pt x="821" y="1434" on="1"/>
        <pt x="950" y="1434" on="1"/>
        <pt x="950" y="332" on="1"/>
      </contour>
      <contour>
        <pt x="813" y="1597" on="1"/>
        <pt x="690" y="1597" on="1"/>
        <pt x="547" y="1761" on="1"/>
        <pt x="403" y="1597" on="1"/>
        <pt x="281" y="1597" on="1"/>
        <pt x="485" y="1843" on="1"/>
        <pt x="608" y="1843" on="1"/>
      </contour>
    </TTGlyph>
    <TTGlyph name="Udieresis" xMin="143" yMin="-20" xMax="950" yMax="1794">
      <contour>
        <pt x="950" y="332" on="1"/>
        <pt x="950" y="259" on="0"/>
        <pt x="895" y="131" on="0"/>
        <pt x="799" y="35" on="0"/>
        <pt x="671" y="-20" on="0"/>
        <pt x="598" y="-20" on="1"/>
        <pt x="496" y="-20" on="1"/>
        <pt x="423" y="-20" on="0"/>
        <pt x="294" y="35" on="0"/>
        <pt x="198" y="131" on="0"/>
        <pt x="143" y="259" on="0"/>
        <pt x="143" y="332" on="1"/>
        <pt x="143" y="1434" on="1"/>
        <pt x="272" y="1434" on="1"/>
        <pt x="272" y="332" on="1"/>
        <pt x="272" y="284" on="0"/>
        <pt x="308" y="201" on="0"/>
        <pt x="371" y="138" on="0"/>
        <pt x="454" y="102" on="0"/>
        <pt x="502" y="102" on="1"/>
        <pt x="592" y="102" on="1"/>
        <pt x="640" y="102" on="0"/>
        <pt x="723" y="138" on="0"/>
        <pt x="785" y="201" on="0"/>
        <pt x="821" y="284" on="0"/>
        <pt x="821" y="332" on="1"/>
        <pt x="821" y="1434" on="1"/>
        <pt x="950" y="1434" on="1"/>
        <pt x="950" y="332" on="1"/>
      </contour>
      <contour>
        <pt x="276" y="1640" on="1"/>
        <pt x="276" y="1794" on="1"/>
        <pt x="430" y="1794" on="1"/>
        <pt x="430" y="1640" on="1"/>
      </contour>
      <contour>
        <pt x="664" y="1640" on="1"/>
        <pt x="664" y="1794" on="1"/>
        <pt x="817" y="1794" on="1"/>
        <pt x="817" y="1640" on="1"/>
      </contour>
    </TTGlyph>
    <TTGlyph name="Ugrave" xMin="143" yMin="-20" xMax="950" yMax="1843">
      <contour>
        <pt x="950" y="332" on="1"/>
        <pt x="950" y="259" on="0"/>
        <pt x="895" y="131" on="0"/>
        <pt x="799" y="35" on="0"/>
        <pt x="671" y="-20" on="0"/>
        <pt x="598" y="-20" on="1"/>
        <pt x="496" y="-20" on="1"/>
        <pt x="423" y="-20" on="0"/>
        <pt x="294" y="35" on="0"/>
        <pt x="198" y="131" on="0"/>
        <pt x="143" y="259" on="0"/>
        <pt x="143" y="332" on="1"/>
        <pt x="143" y="1434" on="1"/>
        <pt x="272" y="1434" on="1"/>
        <pt x="272" y="332" on="1"/>
        <pt x="272" y="284" on="0"/>
        <pt x="308" y="201" on="0"/>
        <pt x="371" y="138" on="0"/>
        <pt x="454" y="102" on="0"/>
        <pt x="502" y="102" on="1"/>
        <pt x="592" y="102" on="1"/>
        <pt x="640" y="102" on="0"/>
        <pt x="723" y="138" on="0"/>
        <pt x="785" y="201" on="0"/>
        <pt x="821" y="284" on="0"/>
        <pt x="821" y="332" on="1"/>
        <pt x="821" y="1434" on="1"/>
        <pt x="950" y="1434" on="1"/>
        <pt x="950" y="332" on="1"/>
      </contour>
      <contour>
        <pt x="301" y="1843" on="1"/>
        <pt x="506" y="1843" on="1"/>
        <pt x="670" y="1597" on="1"/>
        <pt x="578" y="1597" on="1"/>
      </contour>
    </TTGlyph>
    <TTGlyph name="V" xMin="20" yMin="0" xMax="930" yMax="1434">
      <contour>
        <pt x="471" y="315" on="1"/>
        <pt x="475" y="262" on="1"/>
        <pt x="479" y="315" on="1"/>
        <pt x="797" y="1434" on="1"/>
        <pt x="930" y="1434" on="1"/>
        <pt x="508" y="0" on="1"/>
        <pt x="440" y="0" on="1"/>
        <pt x="20" y="1434" on="1"/>
        <pt x="154" y="1434" on="1"/>
      </contour>
    </TTGlyph>
    <TTGlyph name="W" xMin="41" yMin="0" xMax="1501" yMax="1434">
      <contour>
        <pt x="1122" y="0" on="1"/>
        <pt x="1055" y="0" on="1"/>
        <pt x="776" y="1079" on="1"/>
        <pt x="772" y="1135" on="1"/>
        <pt x="766" y="1079" on="1"/>
        <pt x="489" y="0" on="1"/>
        <pt x="422" y="0" on="1"/>
        <pt x="41" y="1434" on="1"/>
        <pt x="170" y="1434" on="1"/>
        <pt x="451" y="344" on="1"/>
        <pt x="455" y="291" on="1"/>
        <pt x="459" y="344" on="1"/>
        <pt x="735" y="1434" on="1"/>
        <pt x="807" y="1434" on="1"/>
        <pt x="1083" y="344" on="1"/>
        <pt x="1087" y="291" on="1"/>
        <pt x="1092" y="344" on="1"/>
        <pt x="1372" y="1434" on="1"/>
        <pt x="1501" y="1434" on="1"/>
      </contour>
    </TTGlyph>
    <TTGlyph name="X" xMin="61" yMin="0" xMax="930" yMax="1434">
      <contour>
        <pt x="791" y="0" on="1"/>
        <pt x="496" y="596" on="1"/>
        <pt x="201" y="0" on="1"/>
        <pt x="61" y="0" on="1"/>
        <pt x="426" y="737" on="1"/>
        <pt x="82" y="1434" on="1"/>
        <pt x="221" y="1434" on="1"/>
        <pt x="496" y="879" on="1"/>
        <pt x="770" y="1434" on="1"/>
        <pt x="909" y="1434" on="1"/>
        <pt x="565" y="737" on="1"/>
        <pt x="930" y="0" on="1"/>
      </contour>
    </TTGlyph>
    <TTGlyph name="Y" xMin="41" yMin="0" xMax="909" yMax="1434">
      <contour>
        <pt x="541" y="686" on="1"/>
        <pt x="541" y="0" on="1"/>
        <pt x="412" y="0" on="1"/>
        <pt x="412" y="684" on="1"/>
        <pt x="41" y="1434" on="1"/>
        <pt x="180" y="1434" on="1"/>
        <pt x="475" y="838" on="1"/>
        <pt x="770" y="1434" on="1"/>
        <pt x="909" y="1434" on="1"/>
      </contour>
    </TTGlyph>
    <TTGlyph name="Yacute" xMin="41" yMin="0" xMax="909" yMax="1843">
      <contour>
        <pt x="541" y="686" on="1"/>
        <pt x="541" y="0" on="1"/>
        <pt x="412" y="0" on="1"/>
        <pt x="412" y="684" on="1"/>
        <pt x="41" y="1434" on="1"/>
        <pt x="180" y="1434" on="1"/>
        <pt x="475" y="838" on="1"/>
        <pt x="770" y="1434" on="1"/>
        <pt x="909" y="1434" on="1"/>
      </contour>
      <contour>
        <pt x="465" y="1597" on="1"/>
        <pt x="373" y="1597" on="1"/>
        <pt x="537" y="1843" on="1"/>
        <pt x="741" y="1843" on="1"/>
      </contour>
    </TTGlyph>
    <TTGlyph name="Ydieresis" xMin="41" yMin="0" xMax="909" yMax="1794">
      <contour>
        <pt x="541" y="686" on="1"/>
        <pt x="541" y="0" on="1"/>
        <pt x="412" y="0" on="1"/>
        <pt x="412" y="684" on="1"/>
        <pt x="41" y="1434" on="1"/>
        <pt x="180" y="1434" on="1"/>
        <pt x="475" y="838" on="1"/>
        <pt x="770" y="1434" on="1"/>
        <pt x="909" y="1434" on="1"/>
      </contour>
      <contour>
        <pt x="205" y="1640" on="1"/>
        <pt x="205" y="1794" on="1"/>
        <pt x="358" y="1794" on="1"/>
        <pt x="358" y="1640" on="1"/>
      </contour>
      <contour>
        <pt x="592" y="1640" on="1"/>
        <pt x="592" y="1794" on="1"/>
        <pt x="745" y="1794" on="1"/>
        <pt x="745" y="1640" on="1"/>
      </contour>
    </TTGlyph>
    <TTGlyph name="Z" xMin="82" yMin="0" xMax="889" yMax="1434">
      <contour>
        <pt x="82" y="0" on="1"/>
        <pt x="82" y="61" on="1"/>
        <pt x="721" y="1311" on="1"/>
        <pt x="102" y="1311" on="1"/>
        <pt x="102" y="1434" on="1"/>
        <pt x="889" y="1434" on="1"/>
        <pt x="889" y="1372" on="1"/>
        <pt x="250" y="123" on="1"/>
        <pt x="889" y="123" on="1"/>
        <pt x="889" y="0" on="1"/>
      </contour>
    </TTGlyph>
    <TTGlyph name="Zcaron" xMin="82" yMin="0" xMax="889" yMax="1843">
      <contour>
        <pt x="82" y="0" on="1"/>
        <pt x="82" y="61" on="1"/>
        <pt x="721" y="1311" on="1"/>
        <pt x="102" y="1311" on="1"/>
        <pt x="102" y="1434" on="1"/>
        <pt x="889" y="1434" on="1"/>
        <pt x="889" y="1372" on="1"/>
        <pt x="250" y="123" on="1"/>
        <pt x="889" y="123" on="1"/>
        <pt x="889" y="0" on="1"/>
      </contour>
      <contour>
        <pt x="547" y="1597" on="1"/>
        <pt x="424" y="1597" on="1"/>
        <pt x="219" y="1843" on="1"/>
        <pt x="342" y="1843" on="1"/>
        <pt x="485" y="1679" on="1"/>
        <pt x="629" y="1843" on="1"/>
        <pt x="752" y="1843" on="1"/>
      </contour>
    </TTGlyph>
    <TTGlyph name="a" xMin="123" yMin="-20" xMax="807" yMax="1044">
      <contour>
        <pt x="766" y="0" on="1"/>
        <pt x="698" y="102" on="1"/>
        <pt x="656" y="47" on="0"/>
        <pt x="530" y="-20" on="0"/>
        <pt x="455" y="-20" on="1"/>
        <pt x="424" y="-20" on="1"/>
        <pt x="362" y="-20" on="0"/>
        <pt x="252" y="27" on="0"/>
        <pt x="170" y="109" on="0"/>
        <pt x="123" y="219" on="0"/>
        <pt x="123" y="281" on="1"/>
        <pt x="123" y="291" on="1"/>
        <pt x="123" y="353" on="0"/>
        <pt x="170" y="463" on="0"/>
        <pt x="252" y="545" on="0"/>
        <pt x="362" y="592" on="0"/>
        <pt x="424" y="592" on="1"/>
        <pt x="684" y="592" on="1"/>
        <pt x="684" y="750" on="1"/>
        <pt x="684" y="787" on="0"/>
        <pt x="656" y="852" on="0"/>
        <pt x="608" y="900" on="0"/>
        <pt x="543" y="928" on="0"/>
        <pt x="506" y="928" on="1"/>
        <pt x="434" y="928" on="1"/>
        <pt x="397" y="928" on="0"/>
        <pt x="332" y="900" on="0"/>
        <pt x="284" y="852" on="0"/>
        <pt x="256" y="787" on="0"/>
        <pt x="256" y="750" on="1"/>
        <pt x="256" y="713" on="1"/>
        <pt x="133" y="733" on="1"/>
        <pt x="133" y="743" on="1"/>
        <pt x="133" y="805" on="0"/>
        <pt x="180" y="915" on="0"/>
        <pt x="262" y="997" on="0"/>
        <pt x="372" y="1044" on="0"/>
        <pt x="434" y="1044" on="1"/>
        <pt x="506" y="1044" on="1"/>
        <pt x="568" y="1044" on="0"/>
        <pt x="678" y="997" on="0"/>
        <pt x="760" y="915" on="0"/>
        <pt x="807" y="805" on="0"/>
        <pt x="807" y="743" on="1"/>
        <pt x="807" y="0" on="1"/>
      </contour>
      <contour>
        <pt x="684" y="496" on="1"/>
        <pt x="424" y="496" on="1"/>
        <pt x="387" y="496" on="0"/>
        <pt x="322" y="468" on="0"/>
        <pt x="274" y="419" on="0"/>
        <pt x="246" y="354" on="0"/>
        <pt x="246" y="317" on="1"/>
        <pt x="246" y="274" on="1"/>
        <pt x="246" y="237" on="0"/>
        <pt x="274" y="172" on="0"/>
        <pt x="322" y="124" on="0"/>
        <pt x="387" y="96" on="0"/>
        <pt x="424" y="96" on="1"/>
        <pt x="506" y="96" on="1"/>
        <pt x="543" y="96" on="0"/>
        <pt x="608" y="124" on="0"/>
        <pt x="656" y="172" on="0"/>
        <pt x="684" y="237" on="0"/>
        <pt x="684" y="274" on="1"/>
      </contour>
    </TTGlyph>
    <TTGlyph name="aacute" xMin="123" yMin="-20" xMax="807" yMax="1434">
      <contour>
        <pt x="766" y="0" on="1"/>
        <pt x="698" y="102" on="1"/>
        <pt x="656" y="47" on="0"/>
        <pt x="530" y="-20" on="0"/>
        <pt x="455" y="-20" on="1"/>
        <pt x="424" y="-20" on="1"/>
        <pt x="362" y="-20" on="0"/>
        <pt x="252" y="27" on="0"/>
        <pt x="170" y="109" on="0"/>
        <pt x="123" y="219" on="0"/>
        <pt x="123" y="281" on="1"/>
        <pt x="123" y="291" on="1"/>
        <pt x="123" y="353" on="0"/>
        <pt x="170" y="463" on="0"/>
        <pt x="252" y="545" on="0"/>
        <pt x="362" y="592" on="0"/>
        <pt x="424" y="592" on="1"/>
        <pt x="684" y="592" on="1"/>
        <pt x="684" y="750" on="1"/>
        <pt x="684" y="787" on="0"/>
        <pt x="656" y="852" on="0"/>
        <pt x="608" y="900" on="0"/>
        <pt x="543" y="928" on="0"/>
        <pt x="506" y="928" on="1"/>
        <pt x="434" y="928" on="1"/>
        <pt x="397" y="928" on="0"/>
        <pt x="332" y="900" on="0"/>
        <pt x="284" y="852" on="0"/>
        <pt x="256" y="787" on="0"/>
        <pt x="256" y="750" on="1"/>
        <pt x="256" y="713" on="1"/>
        <pt x="133" y="733" on="1"/>
        <pt x="133" y="743" on="1"/>
        <pt x="133" y="805" on="0"/>
        <pt x="180" y="915" on="0"/>
        <pt x="262" y="997" on="0"/>
        <pt x="372" y="1044" on="0"/>
        <pt x="434" y="1044" on="1"/>
        <pt x="506" y="1044" on="1"/>
        <pt x="568" y="1044" on="0"/>
        <pt x="678" y="997" on="0"/>
        <pt x="760" y="915" on="0"/>
        <pt x="807" y="805" on="0"/>
        <pt x="807" y="743" on="1"/>
        <pt x="807" y="0" on="1"/>
      </contour>
      <contour>
        <pt x="684" y="496" on="1"/>
        <pt x="424" y="496" on="1"/>
        <pt x="387" y="496" on="0"/>
        <pt x="322" y="468" on="0"/>
        <pt x="274" y="419" on="0"/>
        <pt x="246" y="354" on="0"/>
        <pt x="246" y="317" on="1"/>
        <pt x="246" y="274" on="1"/>
        <pt x="246" y="237" on="0"/>
        <pt x="274" y="172" on="0"/>
        <pt x="322" y="124" on="0"/>
        <pt x="387" y="96" on="0"/>
        <pt x="424" y="96" on="1"/>
        <pt x="506" y="96" on="1"/>
        <pt x="543" y="96" on="0"/>
        <pt x="608" y="124" on="0"/>
        <pt x="656" y="172" on="0"/>
        <pt x="684" y="237" on="0"/>
        <pt x="684" y="274" on="1"/>
      </contour>
      <contour>
        <pt x="414" y="1188" on="1"/>
        <pt x="322" y="1188" on="1"/>
        <pt x="485" y="1434" on="1"/>
        <pt x="690" y="1434" on="1"/>
      </contour>
    </TTGlyph>
    <TTGlyph name="acircumflex" xMin="123" yMin="-20" xMax="807" yMax="1434">
      <contour>
        <pt x="766" y="0" on="1"/>
        <pt x="698" y="102" on="1"/>
        <pt x="656" y="47" on="0"/>
        <pt x="530" y="-20" on="0"/>
        <pt x="455" y="-20" on="1"/>
        <pt x="424" y="-20" on="1"/>
        <pt x="362" y="-20" on="0"/>
        <pt x="252" y="27" on="0"/>
        <pt x="170" y="109" on="0"/>
        <pt x="123" y="219" on="0"/>
        <pt x="123" y="281" on="1"/>
        <pt x="123" y="291" on="1"/>
        <pt x="123" y="353" on="0"/>
        <pt x="170" y="463" on="0"/>
        <pt x="252" y="545" on="0"/>
        <pt x="362" y="592" on="0"/>
        <pt x="424" y="592" on="1"/>
        <pt x="684" y="592" on="1"/>
        <pt x="684" y="750" on="1"/>
        <pt x="684" y="787" on="0"/>
        <pt x="656" y="852" on="0"/>
        <pt x="608" y="900" on="0"/>
        <pt x="543" y="928" on="0"/>
        <pt x="506" y="928" on="1"/>
        <pt x="434" y="928" on="1"/>
        <pt x="397" y="928" on="0"/>
        <pt x="332" y="900" on="0"/>
        <pt x="284" y="852" on="0"/>
        <pt x="256" y="787" on="0"/>
        <pt x="256" y="750" on="1"/>
        <pt x="256" y="713" on="1"/>
        <pt x="133" y="733" on="1"/>
        <pt x="133" y="743" on="1"/>
        <pt x="133" y="805" on="0"/>
        <pt x="180" y="915" on="0"/>
        <pt x="262" y="997" on="0"/>
        <pt x="372" y="1044" on="0"/>
        <pt x="434" y="1044" on="1"/>
        <pt x="506" y="1044" on="1"/>
        <pt x="568" y="1044" on="0"/>
        <pt x="678" y="997" on="0"/>
        <pt x="760" y="915" on="0"/>
        <pt x="807" y="805" on="0"/>
        <pt x="807" y="743" on="1"/>
        <pt x="807" y="0" on="1"/>
      </contour>
      <contour>
        <pt x="684" y="496" on="1"/>
        <pt x="424" y="496" on="1"/>
        <pt x="387" y="496" on="0"/>
        <pt x="322" y="468" on="0"/>
        <pt x="274" y="419" on="0"/>
        <pt x="246" y="354" on="0"/>
        <pt x="246" y="317" on="1"/>
        <pt x="246" y="274" on="1"/>
        <pt x="246" y="237" on="0"/>
        <pt x="274" y="172" on="0"/>
        <pt x="322" y="124" on="0"/>
        <pt x="387" y="96" on="0"/>
        <pt x="424" y="96" on="1"/>
        <pt x="506" y="96" on="1"/>
        <pt x="543" y="96" on="0"/>
        <pt x="608" y="124" on="0"/>
        <pt x="656" y="172" on="0"/>
        <pt x="684" y="237" on="0"/>
        <pt x="684" y="274" on="1"/>
      </contour>
      <contour>
        <pt x="752" y="1188" on="1"/>
        <pt x="629" y="1188" on="1"/>
        <pt x="485" y="1352" on="1"/>
        <pt x="342" y="1188" on="1"/>
        <pt x="219" y="1188" on="1"/>
        <pt x="424" y="1434" on="1"/>
        <pt x="547" y="1434" on="1"/>
      </contour>
    </TTGlyph>
    <TTGlyph name="acute" xMin="205" yMin="1188" xMax="573" yMax="1434">
      <contour>
        <pt x="297" y="1188" on="1"/>
        <pt x="205" y="1188" on="1"/>
        <pt x="369" y="1434" on="1"/>
        <pt x="573" y="1434" on="1"/>
      </contour>
    </TTGlyph>
    <TTGlyph name="acute.cap" xMin="205" yMin="1597" xMax="573" yMax="1843">
      <contour>
        <pt x="297" y="1597" on="1"/>
        <pt x="205" y="1597" on="1"/>
        <pt x="369" y="1843" on="1"/>
        <pt x="573" y="1843" on="1"/>
      </contour>
    </TTGlyph>
    <TTGlyph name="adieresis" xMin="123" yMin="-20" xMax="807" yMax="1384">
      <contour>
        <pt x="766" y="0" on="1"/>
        <pt x="698" y="102" on="1"/>
        <pt x="656" y="47" on="0"/>
        <pt x="530" y="-20" on="0"/>
        <pt x="455" y="-20" on="1"/>
        <pt x="424" y="-20" on="1"/>
        <pt x="362" y="-20" on="0"/>
        <pt x="252" y="27" on="0"/>
        <pt x="170" y="109" on="0"/>
        <pt x="123" y="219" on="0"/>
        <pt x="123" y="281" on="1"/>
        <pt x="123" y="291" on="1"/>
        <pt x="123" y="353" on="0"/>
        <pt x="170" y="463" on="0"/>
        <pt x="252" y="545" on="0"/>
        <pt x="362" y="592" on="0"/>
        <pt x="424" y="592" on="1"/>
        <pt x="684" y="592" on="1"/>
        <pt x="684" y="750" on="1"/>
        <pt x="684" y="787" on="0"/>
        <pt x="656" y="852" on="0"/>
        <pt x="608" y="900" on="0"/>
        <pt x="543" y="928" on="0"/>
        <pt x="506" y="928" on="1"/>
        <pt x="434" y="928" on="1"/>
        <pt x="397" y="928" on="0"/>
        <pt x="332" y="900" on="0"/>
        <pt x="284" y="852" on="0"/>
        <pt x="256" y="787" on="0"/>
        <pt x="256" y="750" on="1"/>
        <pt x="256" y="713" on="1"/>
        <pt x="133" y="733" on="1"/>
        <pt x="133" y="743" on="1"/>
        <pt x="133" y="805" on="0"/>
        <pt x="180" y="915" on="0"/>
        <pt x="262" y="997" on="0"/>
        <pt x="372" y="1044" on="0"/>
        <pt x="434" y="1044" on="1"/>
        <pt x="506" y="1044" on="1"/>
        <pt x="568" y="1044" on="0"/>
        <pt x="678" y="997" on="0"/>
        <pt x="760" y="915" on="0"/>
        <pt x="807" y="805" on="0"/>
        <pt x="807" y="743" on="1"/>
        <pt x="807" y="0" on="1"/>
      </contour>
      <contour>
        <pt x="684" y="496" on="1"/>
        <pt x="424" y="496" on="1"/>
        <pt x="387" y="496" on="0"/>
        <pt x="322" y="468" on="0"/>
        <pt x="274" y="419" on="0"/>
        <pt x="246" y="354" on="0"/>
        <pt x="246" y="317" on="1"/>
        <pt x="246" y="274" on="1"/>
        <pt x="246" y="237" on="0"/>
        <pt x="274" y="172" on="0"/>
        <pt x="322" y="124" on="0"/>
        <pt x="387" y="96" on="0"/>
        <pt x="424" y="96" on="1"/>
        <pt x="506" y="96" on="1"/>
        <pt x="543" y="96" on="0"/>
        <pt x="608" y="124" on="0"/>
        <pt x="656" y="172" on="0"/>
        <pt x="684" y="237" on="0"/>
        <pt x="684" y="274" on="1"/>
      </contour>
      <contour>
        <pt x="215" y="1231" on="1"/>
        <pt x="215" y="1384" on="1"/>
        <pt x="369" y="1384" on="1"/>
        <pt x="369" y="1231" on="1"/>
      </contour>
      <contour>
        <pt x="602" y="1231" on="1"/>
        <pt x="602" y="1384" on="1"/>
        <pt x="756" y="1384" on="1"/>
        <pt x="756" y="1231" on="1"/>
      </contour>
    </TTGlyph>
    <TTGlyph name="ae" xMin="123" yMin="-20" xMax="1368" yMax="1044">
      <contour>
        <pt x="1368" y="281" on="1"/>
        <pt x="1368" y="219" on="0"/>
        <pt x="1321" y="109" on="0"/>
        <pt x="1239" y="27" on="0"/>
        <pt x="1129" y="-20" on="0"/>
        <pt x="1067" y="-20" on="1"/>
        <pt x="985" y="-20" on="1"/>
        <pt x="943" y="-20" on="0"/>
        <pt x="864" y="2" on="0"/>
        <pt x="796" y="42" on="0"/>
        <pt x="740" y="99" on="0"/>
        <pt x="721" y="133" on="1"/>
        <pt x="693" y="88" on="0"/>
        <pt x="630" y="29" on="0"/>
        <pt x="561" y="-6" on="0"/>
        <pt x="490" y="-20" on="0"/>
        <pt x="455" y="-20" on="1"/>
        <pt x="424" y="-20" on="1"/>
        <pt x="362" y="-20" on="0"/>
        <pt x="252" y="27" on="0"/>
        <pt x="170" y="109" on="0"/>
        <pt x="123" y="219" on="0"/>
        <pt x="123" y="281" on="1"/>
        <pt x="123" y="291" on="1"/>
        <pt x="123" y="353" on="0"/>
        <pt x="170" y="463" on="0"/>
        <pt x="252" y="545" on="0"/>
        <pt x="362" y="592" on="0"/>
        <pt x="424" y="592" on="1"/>
        <pt x="684" y="592" on="1"/>
        <pt x="684" y="756" on="1"/>
        <pt x="683" y="791" on="0"/>
        <pt x="654" y="854" on="0"/>
        <pt x="606" y="901" on="0"/>
        <pt x="542" y="928" on="0"/>
        <pt x="506" y="928" on="1"/>
        <pt x="434" y="928" on="1"/>
        <pt x="397" y="928" on="0"/>
        <pt x="332" y="900" on="0"/>
        <pt x="284" y="852" on="0"/>
        <pt x="256" y="787" on="0"/>
        <pt x="256" y="750" on="1"/>
        <pt x="256" y="713" on="1"/>
        <pt x="133" y="733" on="1"/>
        <pt x="133" y="743" on="1"/>
        <pt x="133" y="805" on="0"/>
        <pt x="180" y="915" on="0"/>
        <pt x="262" y="997" on="0"/>
        <pt x="372" y="1044" on="0"/>
        <pt x="434" y="1044" on="1"/>
        <pt x="506" y="1044" on="1"/>
        <pt x="578" y="1044" on="0"/>
        <pt x="703" y="979" on="0"/>
        <pt x="745" y="924" on="1"/>
        <pt x="787" y="979" on="0"/>
        <pt x="911" y="1044" on="0"/>
        <pt x="985" y="1044" on="1"/>
        <pt x="1067" y="1044" on="1"/>
        <pt x="1129" y="1044" on="0"/>
        <pt x="1239" y="997" on="0"/>
        <pt x="1321" y="915" on="0"/>
        <pt x="1368" y="805" on="0"/>
        <pt x="1368" y="743" on="1"/>
        <pt x="1368" y="502" on="1"/>
        <pt x="807" y="502" on="1"/>
        <pt x="807" y="274" on="1"/>
        <pt x="807" y="237" on="0"/>
        <pt x="835" y="172" on="0"/>
        <pt x="883" y="124" on="0"/>
        <pt x="948" y="96" on="0"/>
        <pt x="985" y="96" on="1"/>
        <pt x="1067" y="96" on="1"/>
        <pt x="1104" y="96" on="0"/>
        <pt x="1169" y="124" on="0"/>
        <pt x="1217" y="172" on="0"/>
        <pt x="1245" y="237" on="0"/>
        <pt x="1245" y="274" on="1"/>
        <pt x="1245" y="342" on="1"/>
        <pt x="1368" y="322" on="1"/>
        <pt x="1368" y="281" on="1"/>
      </contour>
      <contour>
        <pt x="684" y="496" on="1"/>
        <pt x="424" y="496" on="1"/>
        <pt x="387" y="496" on="0"/>
        <pt x="322" y="468" on="0"/>
        <pt x="274" y="419" on="0"/>
        <pt x="246" y="354" on="0"/>
        <pt x="246" y="317" on="1"/>
        <pt x="246" y="274" on="1"/>
        <pt x="246" y="237" on="0"/>
        <pt x="274" y="172" on="0"/>
        <pt x="322" y="124" on="0"/>
        <pt x="387" y="96" on="0"/>
        <pt x="424" y="96" on="1"/>
        <pt x="506" y="96" on="1"/>
        <pt x="543" y="96" on="0"/>
        <pt x="608" y="124" on="0"/>
        <pt x="656" y="172" on="0"/>
        <pt x="684" y="237" on="0"/>
        <pt x="684" y="274" on="1"/>
      </contour>
      <contour>
        <pt x="1245" y="750" on="1"/>
        <pt x="1245" y="787" on="0"/>
        <pt x="1217" y="852" on="0"/>
        <pt x="1169" y="900" on="0"/>
        <pt x="1104" y="928" on="0"/>
        <pt x="1067" y="928" on="1"/>
        <pt x="985" y="928" on="1"/>
        <pt x="949" y="928" on="0"/>
        <pt x="885" y="901" on="0"/>
        <pt x="837" y="854" on="0"/>
        <pt x="808" y="791" on="0"/>
        <pt x="807" y="756" on="1"/>
        <pt x="807" y="598" on="1"/>
        <pt x="1245" y="598" on="1"/>
      </contour>
    </TTGlyph>
    <TTGlyph name="agrave" xMin="123" yMin="-20" xMax="807" yMax="1434">
      <contour>
        <pt x="766" y="0" on="1"/>
        <pt x="698" y="102" on="1"/>
        <pt x="656" y="47" on="0"/>
        <pt x="530" y="-20" on="0"/>
        <pt x="455" y="-20" on="1"/>
        <pt x="424" y="-20" on="1"/>
        <pt x="362" y="-20" on="0"/>
        <pt x="252" y="27" on="0"/>
        <pt x="170" y="109" on="0"/>
        <pt x="123" y="219" on="0"/>
        <pt x="123" y="281" on="1"/>
        <pt x="123" y="291" on="1"/>
        <pt x="123" y="353" on="0"/>
        <pt x="170" y="463" on="0"/>
        <pt x="252" y="545" on="0"/>
        <pt x="362" y="592" on="0"/>
        <pt x="424" y="592" on="1"/>
        <pt x="684" y="592" on="1"/>
        <pt x="684" y="750" on="1"/>
        <pt x="684" y="787" on="0"/>
        <pt x="656" y="852" on="0"/>
        <pt x="608" y="900" on="0"/>
        <pt x="543" y="928" on="0"/>
        <pt x="506" y="928" on="1"/>
        <pt x="434" y="928" on="1"/>
        <pt x="397" y="928" on="0"/>
        <pt x="332" y="900" on="0"/>
        <pt x="284" y="852" on="0"/>
        <pt x="256" y="787" on="0"/>
        <pt x="256" y="750" on="1"/>
        <pt x="256" y="713" on="1"/>
        <pt x="133" y="733" on="1"/>
        <pt x="133" y="743" on="1"/>
        <pt x="133" y="805" on="0"/>
        <pt x="180" y="915" on="0"/>
        <pt x="262" y="997" on="0"/>
        <pt x="372" y="1044" on="0"/>
        <pt x="434" y="1044" on="1"/>
        <pt x="506" y="1044" on="1"/>
        <pt x="568" y="1044" on="0"/>
        <pt x="678" y="997" on="0"/>
        <pt x="760" y="915" on="0"/>
        <pt x="807" y="805" on="0"/>
        <pt x="807" y="743" on="1"/>
        <pt x="807" y="0" on="1"/>
      </contour>
      <contour>
        <pt x="684" y="496" on="1"/>
        <pt x="424" y="496" on="1"/>
        <pt x="387" y="496" on="0"/>
        <pt x="322" y="468" on="0"/>
        <pt x="274" y="419" on="0"/>
        <pt x="246" y="354" on="0"/>
        <pt x="246" y="317" on="1"/>
        <pt x="246" y="274" on="1"/>
        <pt x="246" y="237" on="0"/>
        <pt x="274" y="172" on="0"/>
        <pt x="322" y="124" on="0"/>
        <pt x="387" y="96" on="0"/>
        <pt x="424" y="96" on="1"/>
        <pt x="506" y="96" on="1"/>
        <pt x="543" y="96" on="0"/>
        <pt x="608" y="124" on="0"/>
        <pt x="656" y="172" on="0"/>
        <pt x="684" y="237" on="0"/>
        <pt x="684" y="274" on="1"/>
      </contour>
      <contour>
        <pt x="240" y="1434" on="1"/>
        <pt x="444" y="1434" on="1"/>
        <pt x="608" y="1188" on="1"/>
        <pt x="516" y="1188" on="1"/>
      </contour>
    </TTGlyph>
    <TTGlyph name="ampersand" xMin="143" yMin="-20" xMax="1128" yMax="1454">
      <contour>
        <pt x="1092" y="-20" on="1"/>
        <pt x="1005" y="-20" on="0"/>
        <pt x="876" y="54" on="0"/>
        <pt x="838" y="117" on="1"/>
        <pt x="788" y="54" on="0"/>
        <pt x="642" y="-20" on="0"/>
        <pt x="557" y="-20" on="1"/>
        <pt x="496" y="-20" on="1"/>
        <pt x="423" y="-20" on="0"/>
        <pt x="294" y="35" on="0"/>
        <pt x="198" y="131" on="0"/>
        <pt x="143" y="259" on="0"/>
        <pt x="143" y="332" on="1"/>
        <pt x="143" y="410" on="1"/>
        <pt x="143" y="461" on="0"/>
        <pt x="170" y="554" on="0"/>
        <pt x="220" y="634" on="0"/>
        <pt x="288" y="699" on="0"/>
        <pt x="330" y="721" on="1"/>
        <pt x="288" y="743" on="0"/>
        <pt x="220" y="808" on="0"/>
        <pt x="170" y="888" on="0"/>
        <pt x="143" y="981" on="0"/>
        <pt x="143" y="1032" on="1"/>
        <pt x="143" y="1102" on="1"/>
        <pt x="143" y="1175" on="0"/>
        <pt x="198" y="1303" on="0"/>
        <pt x="294" y="1399" on="0"/>
        <pt x="423" y="1454" on="0"/>
        <pt x="496" y="1454" on="1"/>
        <pt x="557" y="1454" on="1"/>
        <pt x="630" y="1454" on="0"/>
        <pt x="758" y="1399" on="0"/>
        <pt x="854" y="1303" on="0"/>
        <pt x="909" y="1175" on="0"/>
        <pt x="909" y="1102" on="1"/>
        <pt x="909" y="1092" on="1"/>
        <pt x="780" y="1071" on="1"/>
        <pt x="780" y="1102" on="1"/>
        <pt x="780" y="1150" on="0"/>
        <pt x="744" y="1233" on="0"/>
        <pt x="682" y="1295" on="0"/>
        <pt x="599" y="1331" on="0"/>
        <pt x="551" y="1331" on="1"/>
        <pt x="502" y="1331" on="1"/>
        <pt x="454" y="1331" on="0"/>
        <pt x="371" y="1295" on="0"/>
        <pt x="308" y="1233" on="0"/>
        <pt x="272" y="1150" on="0"/>
        <pt x="272" y="1102" on="1"/>
        <pt x="272" y="1012" on="1"/>
        <pt x="272" y="964" on="0"/>
        <pt x="308" y="881" on="0"/>
        <pt x="371" y="818" on="0"/>
        <pt x="454" y="782" on="0"/>
        <pt x="502" y="782" on="1"/>
        <pt x="780" y="782" on="1"/>
        <pt x="780" y="913" on="1"/>
        <pt x="909" y="934" on="1"/>
        <pt x="909" y="784" on="1"/>
        <pt x="1108" y="784" on="1"/>
        <pt x="1108" y="662" on="1"/>
        <pt x="909" y="662" on="1"/>
        <pt x="909" y="317" on="1"/>
        <pt x="911" y="272" on="0"/>
        <pt x="935" y="194" on="0"/>
        <pt x="982" y="135" on="0"/>
        <pt x="1052" y="102" on="0"/>
        <pt x="1098" y="102" on="1"/>
        <pt x="1128" y="102" on="1"/>
        <pt x="1110" y="-20" on="1"/>
      </contour>
      <contour>
        <pt x="551" y="102" on="1"/>
        <pt x="597" y="102" on="0"/>
        <pt x="679" y="136" on="0"/>
        <pt x="740" y="196" on="0"/>
        <pt x="778" y="276" on="0"/>
        <pt x="780" y="322" on="1"/>
        <pt x="780" y="659" on="1"/>
        <pt x="502" y="659" on="1"/>
        <pt x="454" y="659" on="0"/>
        <pt x="371" y="623" on="0"/>
        <pt x="308" y="561" on="0"/>
        <pt x="272" y="478" on="0"/>
        <pt x="272" y="430" on="1"/>
        <pt x="272" y="332" on="1"/>
        <pt x="272" y="284" on="0"/>
        <pt x="308" y="201" on="0"/>
        <pt x="371" y="138" on="0"/>
        <pt x="454" y="102" on="0"/>
        <pt x="502" y="102" on="1"/>
        <pt x="551" y="102" on="1"/>
      </contour>
    </TTGlyph>
    <TTGlyph name="aring" xMin="123" yMin="-20" xMax="807" yMax="1571">
      <contour>
        <pt x="766" y="0" on="1"/>
        <pt x="698" y="102" on="1"/>
        <pt x="656" y="47" on="0"/>
        <pt x="530" y="-20" on="0"/>
        <pt x="455" y="-20" on="1"/>
        <pt x="424" y="-20" on="1"/>
        <pt x="362" y="-20" on="0"/>
        <pt x="252" y="27" on="0"/>
        <pt x="170" y="109" on="0"/>
        <pt x="123" y="219" on="0"/>
        <pt x="123" y="281" on="1"/>
        <pt x="123" y="291" on="1"/>
        <pt x="123" y="353" on="0"/>
        <pt x="170" y="463" on="0"/>
        <pt x="252" y="545" on="0"/>
        <pt x="362" y="592" on="0"/>
        <pt x="424" y="592" on="1"/>
        <pt x="684" y="592" on="1"/>
        <pt x="684" y="750" on="1"/>
        <pt x="684" y="787" on="0"/>
        <pt x="656" y="852" on="0"/>
        <pt x="608" y="900" on="0"/>
        <pt x="543" y="928" on="0"/>
        <pt x="506" y="928" on="1"/>
        <pt x="434" y="928" on="1"/>
        <pt x="397" y="928" on="0"/>
        <pt x="332" y="900" on="0"/>
        <pt x="284" y="852" on="0"/>
        <pt x="256" y="787" on="0"/>
        <pt x="256" y="750" on="1"/>
        <pt x="256" y="713" on="1"/>
        <pt x="133" y="733" on="1"/>
        <pt x="133" y="743" on="1"/>
        <pt x="133" y="805" on="0"/>
        <pt x="180" y="915" on="0"/>
        <pt x="262" y="997" on="0"/>
        <pt x="372" y="1044" on="0"/>
        <pt x="434" y="1044" on="1"/>
        <pt x="506" y="1044" on="1"/>
        <pt x="568" y="1044" on="0"/>
        <pt x="678" y="997" on="0"/>
        <pt x="760" y="915" on="0"/>
        <pt x="807" y="805" on="0"/>
        <pt x="807" y="743" on="1"/>
        <pt x="807" y="0" on="1"/>
      </contour>
      <contour>
        <pt x="684" y="496" on="1"/>
        <pt x="424" y="496" on="1"/>
        <pt x="387" y="496" on="0"/>
        <pt x="322" y="468" on="0"/>
        <pt x="274" y="419" on="0"/>
        <pt x="246" y="354" on="0"/>
        <pt x="246" y="317" on="1"/>
        <pt x="246" y="274" on="1"/>
        <pt x="246" y="237" on="0"/>
        <pt x="274" y="172" on="0"/>
        <pt x="322" y="124" on="0"/>
        <pt x="387" y="96" on="0"/>
        <pt x="424" y="96" on="1"/>
        <pt x="506" y="96" on="1"/>
        <pt x="543" y="96" on="0"/>
        <pt x="608" y="124" on="0"/>
        <pt x="656" y="172" on="0"/>
        <pt x="684" y="237" on="0"/>
        <pt x="684" y="274" on="1"/>
      </contour>
      <contour>
        <pt x="258" y="1358" on="1"/>
        <pt x="258" y="1402" on="0"/>
        <pt x="291" y="1479" on="0"/>
        <pt x="348" y="1537" on="0"/>
        <pt x="425" y="1571" on="0"/>
        <pt x="469" y="1571" on="1"/>
        <pt x="513" y="1571" on="0"/>
        <pt x="590" y="1537" on="0"/>
        <pt x="648" y="1479" on="0"/>
        <pt x="682" y="1402" on="0"/>
        <pt x="682" y="1358" on="1"/>
        <pt x="682" y="1314" on="0"/>
        <pt x="648" y="1237" on="0"/>
        <pt x="590" y="1180" on="0"/>
        <pt x="513" y="1147" on="0"/>
        <pt x="469" y="1147" on="1"/>
        <pt x="425" y="1147" on="0"/>
        <pt x="348" y="1180" on="0"/>
        <pt x="291" y="1237" on="0"/>
        <pt x="258" y="1314" on="0"/>
      </contour>
      <contour>
        <pt x="360" y="1358" on="1"/>
        <pt x="360" y="1336" on="0"/>
        <pt x="377" y="1295" on="0"/>
        <pt x="407" y="1265" on="0"/>
        <pt x="447" y="1247" on="0"/>
        <pt x="469" y="1247" on="1"/>
        <pt x="492" y="1247" on="0"/>
        <pt x="532" y="1265" on="0"/>
        <pt x="562" y="1295" on="0"/>
        <pt x="580" y="1336" on="0"/>
        <pt x="580" y="1358" on="1"/>
        <pt x="580" y="1381" on="0"/>
        <pt x="562" y="1422" on="0"/>
        <pt x="532" y="1452" on="0"/>
        <pt x="492" y="1470" on="0"/>
        <pt x="469" y="1470" on="1"/>
        <pt x="447" y="1470" on="0"/>
        <pt x="407" y="1452" on="0"/>
        <pt x="377" y="1422" on="0"/>
        <pt x="360" y="1381" on="0"/>
      </contour>
    </TTGlyph>
    <TTGlyph name="asciicircum" xMin="123" yMin="776" xMax="981" yMax="1434">
      <contour>
        <pt x="981" y="776" on="1"/>
        <pt x="844" y="776" on="1"/>
        <pt x="551" y="1315" on="1"/>
        <pt x="260" y="776" on="1"/>
        <pt x="123" y="776" on="1"/>
        <pt x="483" y="1434" on="1"/>
        <pt x="621" y="1434" on="1"/>
      </contour>
    </TTGlyph>
    <TTGlyph name="asciitilde" xMin="102" yMin="492" xMax="883" yMax="752">
      <contour>
        <pt x="659" y="604" on="1"/>
        <pt x="687" y="604" on="0"/>
        <pt x="730" y="627" on="0"/>
        <pt x="760" y="666" on="0"/>
        <pt x="776" y="719" on="0"/>
        <pt x="776" y="750" on="1"/>
        <pt x="883" y="750" on="1"/>
        <pt x="883" y="696" on="0"/>
        <pt x="855" y="602" on="0"/>
        <pt x="799" y="532" on="0"/>
        <pt x="714" y="492" on="0"/>
        <pt x="657" y="492" on="1"/>
        <pt x="618" y="492" on="0"/>
        <pt x="553" y="514" on="0"/>
        <pt x="497" y="546" on="0"/>
        <pt x="447" y="585" on="0"/>
        <pt x="399" y="617" on="0"/>
        <pt x="352" y="639" on="0"/>
        <pt x="326" y="639" on="1"/>
        <pt x="272" y="639" on="0"/>
        <pt x="209" y="557" on="0"/>
        <pt x="209" y="494" on="1"/>
        <pt x="102" y="494" on="1"/>
        <pt x="102" y="548" on="0"/>
        <pt x="130" y="642" on="0"/>
        <pt x="187" y="712" on="0"/>
        <pt x="272" y="752" on="0"/>
        <pt x="328" y="752" on="1"/>
        <pt x="386" y="752" on="0"/>
        <pt x="475" y="706" on="0"/>
        <pt x="551" y="650" on="0"/>
        <pt x="621" y="604" on="0"/>
      </contour>
    </TTGlyph>
    <TTGlyph name="asterisk" xMin="102" yMin="686" xMax="891" yMax="1434">
      <contour>
        <pt x="498" y="973" on="1"/>
        <pt x="326" y="686" on="1"/>
        <pt x="207" y="772" on="1"/>
        <pt x="428" y="1022" on="1"/>
        <pt x="102" y="1096" on="1"/>
        <pt x="147" y="1233" on="1"/>
        <pt x="455" y="1102" on="1"/>
        <pt x="424" y="1434" on="1"/>
        <pt x="569" y="1434" on="1"/>
        <pt x="539" y="1102" on="1"/>
        <pt x="846" y="1233" on="1"/>
        <pt x="891" y="1096" on="1"/>
        <pt x="565" y="1022" on="1"/>
        <pt x="786" y="772" on="1"/>
        <pt x="668" y="686" on="1"/>
      </contour>
    </TTGlyph>
    <TTGlyph name="at" xMin="143" yMin="-430" xMax="1903" yMax="1454">
      <contour>
        <pt x="1305" y="254" on="1"/>
        <pt x="1291" y="154" on="0"/>
        <pt x="1370" y="59" on="0"/>
        <pt x="1454" y="59" on="1"/>
        <pt x="1515" y="59" on="0"/>
        <pt x="1631" y="147" on="0"/>
        <pt x="1721" y="304" on="0"/>
        <pt x="1776" y="521" on="0"/>
        <pt x="1776" y="649" on="1"/>
        <pt x="1776" y="796" on="0"/>
        <pt x="1689" y="1048" on="0"/>
        <pt x="1524" y="1231" on="0"/>
        <pt x="1283" y="1335" on="0"/>
        <pt x="1128" y="1335" on="1"/>
        <pt x="1005" y="1335" on="0"/>
        <pt x="783" y="1265" on="0"/>
        <pt x="592" y="1139" on="0"/>
        <pt x="438" y="964" on="0"/>
        <pt x="329" y="752" on="0"/>
        <pt x="270" y="512" on="0"/>
        <pt x="270" y="383" on="1"/>
        <pt x="270" y="236" on="0"/>
        <pt x="350" y="-18" on="0"/>
        <pt x="508" y="-205" on="0"/>
        <pt x="741" y="-311" on="0"/>
        <pt x="895" y="-311" on="1"/>
        <pt x="951" y="-311" on="0"/>
        <pt x="1058" y="-296" on="0"/>
        <pt x="1154" y="-272" on="0"/>
        <pt x="1235" y="-240" on="0"/>
        <pt x="1264" y="-223" on="1"/>
        <pt x="1305" y="-317" on="1"/>
        <pt x="1257" y="-346" on="0"/>
        <pt x="1149" y="-389" on="0"/>
        <pt x="1038" y="-417" on="0"/>
        <pt x="929" y="-430" on="0"/>
        <pt x="879" y="-430" on="1"/>
        <pt x="702" y="-430" on="0"/>
        <pt x="428" y="-308" on="0"/>
        <pt x="241" y="-94" on="0"/>
        <pt x="143" y="197" on="0"/>
        <pt x="143" y="367" on="1"/>
        <pt x="143" y="513" on="0"/>
        <pt x="213" y="788" on="0"/>
        <pt x="342" y="1030" on="0"/>
        <pt x="524" y="1230" on="0"/>
        <pt x="746" y="1374" on="0"/>
        <pt x="1004" y="1454" on="0"/>
        <pt x="1145" y="1454" on="1"/>
        <pt x="1322" y="1454" on="0"/>
        <pt x="1603" y="1334" on="0"/>
        <pt x="1799" y="1123" on="0"/>
        <pt x="1903" y="835" on="0"/>
        <pt x="1903" y="666" on="1"/>
        <pt x="1903" y="585" on="0"/>
        <pt x="1877" y="416" on="0"/>
        <pt x="1825" y="256" on="0"/>
        <pt x="1747" y="116" on="0"/>
        <pt x="1642" y="10" on="0"/>
        <pt x="1510" y="-51" on="0"/>
        <pt x="1430" y="-51" on="1"/>
        <pt x="1375" y="-51" on="0"/>
        <pt x="1293" y="-27" on="0"/>
        <pt x="1232" y="14" on="0"/>
        <pt x="1189" y="71" on="0"/>
        <pt x="1174" y="104" on="1"/>
        <pt x="1123" y="47" on="0"/>
        <pt x="987" y="-20" on="0"/>
        <pt x="911" y="-20" on="1"/>
        <pt x="881" y="-20" on="1"/>
        <pt x="824" y="-20" on="0"/>
        <pt x="729" y="20" on="0"/>
        <pt x="660" y="89" on="0"/>
        <pt x="621" y="183" on="0"/>
        <pt x="621" y="238" on="1"/>
        <pt x="621" y="249" on="0"/>
        <pt x="621" y="270" on="0"/>
        <pt x="623" y="281" on="1"/>
        <pt x="686" y="743" on="1"/>
        <pt x="695" y="805" on="0"/>
        <pt x="758" y="915" on="0"/>
        <pt x="852" y="997" on="0"/>
        <pt x="969" y="1044" on="0"/>
        <pt x="1030" y="1044" on="1"/>
        <pt x="1061" y="1044" on="1"/>
        <pt x="1136" y="1044" on="0"/>
        <pt x="1254" y="977" on="0"/>
        <pt x="1286" y="920" on="1"/>
        <pt x="1370" y="1024" on="1"/>
        <pt x="1411" y="1024" on="1"/>
      </contour>
      <contour>
        <pt x="743" y="274" on="1"/>
        <pt x="743" y="268" on="0"/>
        <pt x="741" y="256" on="0"/>
        <pt x="741" y="250" on="1"/>
        <pt x="741" y="217" on="0"/>
        <pt x="764" y="161" on="0"/>
        <pt x="806" y="119" on="0"/>
        <pt x="863" y="96" on="0"/>
        <pt x="897" y="96" on="1"/>
        <pt x="979" y="96" on="1"/>
        <pt x="1016" y="96" on="0"/>
        <pt x="1084" y="124" on="0"/>
        <pt x="1139" y="172" on="0"/>
        <pt x="1176" y="237" on="0"/>
        <pt x="1182" y="274" on="1"/>
        <pt x="1249" y="750" on="1"/>
        <pt x="1251" y="756" on="0"/>
        <pt x="1251" y="770" on="0"/>
        <pt x="1251" y="776" on="1"/>
        <pt x="1251" y="808" on="0"/>
        <pt x="1228" y="864" on="0"/>
        <pt x="1187" y="905" on="0"/>
        <pt x="1130" y="928" on="0"/>
        <pt x="1096" y="928" on="1"/>
        <pt x="1014" y="928" on="1"/>
        <pt x="977" y="928" on="0"/>
        <pt x="908" y="900" on="0"/>
        <pt x="853" y="852" on="0"/>
        <pt x="816" y="787" on="0"/>
        <pt x="811" y="750" on="1"/>
      </contour>
    </TTGlyph>
    <TTGlyph name="atilde" xMin="123" yMin="-20" xMax="807" yMax="1434">
      <contour>
        <pt x="766" y="0" on="1"/>
        <pt x="698" y="102" on="1"/>
        <pt x="656" y="47" on="0"/>
        <pt x="530" y="-20" on="0"/>
        <pt x="455" y="-20" on="1"/>
        <pt x="424" y="-20" on="1"/>
        <pt x="362" y="-20" on="0"/>
        <pt x="252" y="27" on="0"/>
        <pt x="170" y="109" on="0"/>
        <pt x="123" y="219" on="0"/>
        <pt x="123" y="281" on="1"/>
        <pt x="123" y="291" on="1"/>
        <pt x="123" y="353" on="0"/>
        <pt x="170" y="463" on="0"/>
        <pt x="252" y="545" on="0"/>
        <pt x="362" y="592" on="0"/>
        <pt x="424" y="592" on="1"/>
        <pt x="684" y="592" on="1"/>
        <pt x="684" y="750" on="1"/>
        <pt x="684" y="787" on="0"/>
        <pt x="656" y="852" on="0"/>
        <pt x="608" y="900" on="0"/>
        <pt x="543" y="928" on="0"/>
        <pt x="506" y="928" on="1"/>
        <pt x="434" y="928" on="1"/>
        <pt x="397" y="928" on="0"/>
        <pt x="332" y="900" on="0"/>
        <pt x="284" y="852" on="0"/>
        <pt x="256" y="787" on="0"/>
        <pt x="256" y="750" on="1"/>
        <pt x="256" y="713" on="1"/>
        <pt x="133" y="733" on="1"/>
        <pt x="133" y="743" on="1"/>
        <pt x="133" y="805" on="0"/>
        <pt x="180" y="915" on="0"/>
        <pt x="262" y="997" on="0"/>
        <pt x="372" y="1044" on="0"/>
        <pt x="434" y="1044" on="1"/>
        <pt x="506" y="1044" on="1"/>
        <pt x="568" y="1044" on="0"/>
        <pt x="678" y="997" on="0"/>
        <pt x="760" y="915" on="0"/>
        <pt x="807" y="805" on="0"/>
        <pt x="807" y="743" on="1"/>
        <pt x="807" y="0" on="1"/>
      </contour>
      <contour>
        <pt x="684" y="496" on="1"/>
        <pt x="424" y="496" on="1"/>
        <pt x="387" y="496" on="0"/>
        <pt x="322" y="468" on="0"/>
        <pt x="274" y="419" on="0"/>
        <pt x="246" y="354" on="0"/>
        <pt x="246" y="317" on="1"/>
        <pt x="246" y="274" on="1"/>
        <pt x="246" y="237" on="0"/>
        <pt x="274" y="172" on="0"/>
        <pt x="322" y="124" on="0"/>
        <pt x="387" y="96" on="0"/>
        <pt x="424" y="96" on="1"/>
        <pt x="506" y="96" on="1"/>
        <pt x="543" y="96" on="0"/>
        <pt x="608" y="124" on="0"/>
        <pt x="656" y="172" on="0"/>
        <pt x="684" y="237" on="0"/>
        <pt x="684" y="274" on="1"/>
      </contour>
      <contour>
        <pt x="602" y="1319" on="1"/>
        <pt x="644" y="1319" on="0"/>
        <pt x="688" y="1383" on="0"/>
        <pt x="688" y="1434" on="1"/>
        <pt x="782" y="1434" on="1"/>
        <pt x="782" y="1389" on="0"/>
        <pt x="759" y="1311" on="0"/>
        <pt x="714" y="1253" on="0"/>
        <pt x="645" y="1219" on="0"/>
        <pt x="600" y="1219" on="1"/>
        <pt x="552" y="1219" on="0"/>
        <pt x="479" y="1255" on="0"/>
        <pt x="416" y="1297" on="0"/>
        <pt x="359" y="1333" on="0"/>
        <pt x="328" y="1333" on="1"/>
        <pt x="286" y="1333" on="0"/>
        <pt x="244" y="1270" on="0"/>
        <pt x="244" y="1221" on="1"/>
        <pt x="150" y="1221" on="1"/>
        <pt x="150" y="1265" on="0"/>
        <pt x="172" y="1343" on="0"/>
        <pt x="217" y="1401" on="0"/>
        <pt x="286" y="1434" on="0"/>
        <pt x="332" y="1434" on="1"/>
        <pt x="377" y="1434" on="0"/>
        <pt x="446" y="1398" on="0"/>
        <pt x="507" y="1355" on="0"/>
        <pt x="567" y="1319" on="0"/>
      </contour>
    </TTGlyph>
    <TTGlyph name="b" xMin="123" yMin="-20" xMax="807" yMax="1434">
      <contour>
        <pt x="807" y="281" on="1"/>
        <pt x="807" y="219" on="0"/>
        <pt x="760" y="109" on="0"/>
        <pt x="678" y="27" on="0"/>
        <pt x="568" y="-20" on="0"/>
        <pt x="506" y="-20" on="1"/>
        <pt x="424" y="-20" on="1"/>
        <pt x="362" y="-20" on="0"/>
        <pt x="252" y="27" on="0"/>
        <pt x="170" y="109" on="0"/>
        <pt x="123" y="219" on="0"/>
        <pt x="123" y="281" on="1"/>
        <pt x="123" y="1434" on="1"/>
        <pt x="246" y="1434" on="1"/>
        <pt x="246" y="938" on="1"/>
        <pt x="288" y="988" on="0"/>
        <pt x="406" y="1044" on="0"/>
        <pt x="475" y="1044" on="1"/>
        <pt x="506" y="1044" on="1"/>
        <pt x="568" y="1044" on="0"/>
        <pt x="678" y="997" on="0"/>
        <pt x="760" y="915" on="0"/>
        <pt x="807" y="805" on="0"/>
        <pt x="807" y="743" on="1"/>
        <pt x="807" y="281" on="1"/>
      </contour>
      <contour>
        <pt x="684" y="750" on="1"/>
        <pt x="684" y="787" on="0"/>
        <pt x="656" y="852" on="0"/>
        <pt x="608" y="900" on="0"/>
        <pt x="543" y="928" on="0"/>
        <pt x="506" y="928" on="1"/>
        <pt x="424" y="928" on="1"/>
        <pt x="387" y="928" on="0"/>
        <pt x="322" y="900" on="0"/>
        <pt x="274" y="852" on="0"/>
        <pt x="246" y="787" on="0"/>
        <pt x="246" y="750" on="1"/>
        <pt x="246" y="274" on="1"/>
        <pt x="246" y="237" on="0"/>
        <pt x="274" y="172" on="0"/>
        <pt x="322" y="124" on="0"/>
        <pt x="387" y="96" on="0"/>
        <pt x="424" y="96" on="1"/>
        <pt x="506" y="96" on="1"/>
        <pt x="543" y="96" on="0"/>
        <pt x="608" y="124" on="0"/>
        <pt x="656" y="172" on="0"/>
        <pt x="684" y="237" on="0"/>
        <pt x="684" y="274" on="1"/>
      </contour>
    </TTGlyph>
    <TTGlyph name="backslash" xMin="41" yMin="-123" xMax="741" yMax="1556">
      <contour>
        <pt x="612" y="-123" on="1"/>
        <pt x="41" y="1556" on="1"/>
        <pt x="170" y="1556" on="1"/>
        <pt x="741" y="-123" on="1"/>
      </contour>
    </TTGlyph>
    <TTGlyph name="bar" xMin="164" yMin="-410" xMax="293" yMax="1606">
      <contour>
        <pt x="164" y="-410" on="1"/>
        <pt x="164" y="1606" on="1"/>
        <pt x="293" y="1606" on="1"/>
        <pt x="293" y="-410" on="1"/>
      </contour>
    </TTGlyph>
    <TTGlyph name="braceleft" xMin="82" yMin="-410" xMax="696" yMax="1606">
      <contour>
        <pt x="334" y="313" on="1"/>
        <pt x="334" y="365" on="0"/>
        <pt x="300" y="450" on="0"/>
        <pt x="239" y="510" on="0"/>
        <pt x="154" y="543" on="0"/>
        <pt x="104" y="543" on="1"/>
        <pt x="82" y="543" on="1"/>
        <pt x="82" y="653" on="1"/>
        <pt x="115" y="653" on="1"/>
        <pt x="163" y="655" on="0"/>
        <pt x="243" y="689" on="0"/>
        <pt x="301" y="749" on="0"/>
        <pt x="334" y="832" on="0"/>
        <pt x="334" y="883" on="1"/>
        <pt x="334" y="1253" on="1"/>
        <pt x="334" y="1330" on="0"/>
        <pt x="387" y="1459" on="0"/>
        <pt x="482" y="1553" on="0"/>
        <pt x="611" y="1606" on="0"/>
        <pt x="686" y="1606" on="1"/>
        <pt x="696" y="1606" on="1"/>
        <pt x="696" y="1495" on="1"/>
        <pt x="686" y="1495" on="1"/>
        <pt x="636" y="1495" on="0"/>
        <pt x="552" y="1462" on="0"/>
        <pt x="491" y="1402" on="0"/>
        <pt x="457" y="1317" on="0"/>
        <pt x="457" y="1266" on="1"/>
        <pt x="457" y="895" on="1"/>
        <pt x="457" y="798" on="0"/>
        <pt x="372" y="642" on="0"/>
        <pt x="301" y="598" on="1"/>
        <pt x="372" y="552" on="0"/>
        <pt x="457" y="398" on="0"/>
        <pt x="457" y="301" on="1"/>
        <pt x="457" y="-70" on="1"/>
        <pt x="457" y="-121" on="0"/>
        <pt x="491" y="-206" on="0"/>
        <pt x="552" y="-266" on="0"/>
        <pt x="636" y="-299" on="0"/>
        <pt x="686" y="-299" on="1"/>
        <pt x="696" y="-299" on="1"/>
        <pt x="696" y="-410" on="1"/>
        <pt x="686" y="-410" on="1"/>
        <pt x="611" y="-410" on="0"/>
        <pt x="482" y="-357" on="0"/>
        <pt x="387" y="-263" on="0"/>
        <pt x="334" y="-134" on="0"/>
        <pt x="334" y="-57" on="1"/>
      </contour>
    </TTGlyph>
    <TTGlyph name="braceright" xMin="82" yMin="-410" xMax="696" yMax="1606">
      <contour>
        <pt x="444" y="-57" on="1"/>
        <pt x="444" y="-134" on="0"/>
        <pt x="391" y="-263" on="0"/>
        <pt x="296" y="-357" on="0"/>
        <pt x="167" y="-410" on="0"/>
        <pt x="92" y="-410" on="1"/>
        <pt x="82" y="-410" on="1"/>
        <pt x="82" y="-299" on="1"/>
        <pt x="92" y="-299" on="1"/>
        <pt x="142" y="-299" on="0"/>
        <pt x="226" y="-266" on="0"/>
        <pt x="288" y="-206" on="0"/>
        <pt x="322" y="-121" on="0"/>
        <pt x="322" y="-70" on="1"/>
        <pt x="322" y="301" on="1"/>
        <pt x="322" y="398" on="0"/>
        <pt x="405" y="552" on="0"/>
        <pt x="477" y="598" on="1"/>
        <pt x="405" y="643" on="0"/>
        <pt x="322" y="798" on="0"/>
        <pt x="322" y="895" on="1"/>
        <pt x="322" y="1266" on="1"/>
        <pt x="322" y="1317" on="0"/>
        <pt x="288" y="1402" on="0"/>
        <pt x="226" y="1462" on="0"/>
        <pt x="142" y="1495" on="0"/>
        <pt x="92" y="1495" on="1"/>
        <pt x="82" y="1495" on="1"/>
        <pt x="82" y="1606" on="1"/>
        <pt x="92" y="1606" on="1"/>
        <pt x="167" y="1606" on="0"/>
        <pt x="296" y="1553" on="0"/>
        <pt x="391" y="1459" on="0"/>
        <pt x="444" y="1330" on="0"/>
        <pt x="444" y="1253" on="1"/>
        <pt x="444" y="883" on="1"/>
        <pt x="444" y="831" on="0"/>
        <pt x="478" y="746" on="0"/>
        <pt x="540" y="686" on="0"/>
        <pt x="624" y="653" on="0"/>
        <pt x="674" y="653" on="1"/>
        <pt x="696" y="653" on="1"/>
        <pt x="696" y="543" on="1"/>
        <pt x="664" y="543" on="1"/>
        <pt x="616" y="542" on="0"/>
        <pt x="535" y="507" on="0"/>
        <pt x="476" y="446" on="0"/>
        <pt x="444" y="363" on="0"/>
        <pt x="444" y="313" on="1"/>
      </contour>
    </TTGlyph>
    <TTGlyph name="bracketleft" xMin="164" yMin="-410" xMax="530" yMax="1606">
      <contour>
        <pt x="530" y="-410" on="1"/>
        <pt x="164" y="-410" on="1"/>
        <pt x="164" y="1606" on="1"/>
        <pt x="530" y="1606" on="1"/>
        <pt x="530" y="1495" on="1"/>
        <pt x="287" y="1495" on="1"/>
        <pt x="287" y="-299" on="1"/>
        <pt x="530" y="-299" on="1"/>
      </contour>
    </TTGlyph>
    <TTGlyph name="bracketright" xMin="102" yMin="-410" xMax="469" yMax="1606">
      <contour>
        <pt x="102" y="-299" on="1"/>
        <pt x="346" y="-299" on="1"/>
        <pt x="346" y="1495" on="1"/>
        <pt x="102" y="1495" on="1"/>
        <pt x="102" y="1606" on="1"/>
        <pt x="469" y="1606" on="1"/>
        <pt x="469" y="-410" on="1"/>
        <pt x="102" y="-410" on="1"/>
      </contour>
    </TTGlyph>
    <TTGlyph name="breve" xMin="205" yMin="1214" xMax="748" yMax="1446">
      <contour>
        <pt x="299" y="1446" on="1"/>
        <pt x="299" y="1412" on="0"/>
        <pt x="326" y="1360" on="0"/>
        <pt x="374" y="1326" on="0"/>
        <pt x="438" y="1309" on="0"/>
        <pt x="475" y="1309" on="1"/>
        <pt x="512" y="1309" on="0"/>
        <pt x="577" y="1326" on="0"/>
        <pt x="625" y="1360" on="0"/>
        <pt x="653" y="1412" on="0"/>
        <pt x="653" y="1446" on="1"/>
        <pt x="748" y="1446" on="1"/>
        <pt x="748" y="1389" on="0"/>
        <pt x="705" y="1302" on="0"/>
        <pt x="632" y="1244" on="0"/>
        <pt x="532" y="1214" on="0"/>
        <pt x="475" y="1214" on="1"/>
        <pt x="418" y="1214" on="0"/>
        <pt x="320" y="1244" on="0"/>
        <pt x="247" y="1302" on="0"/>
        <pt x="205" y="1389" on="0"/>
        <pt x="205" y="1446" on="1"/>
      </contour>
    </TTGlyph>
    <TTGlyph name="brokenbar" xMin="164" yMin="-410" xMax="293" yMax="1606">
      <contour>
        <pt x="164" y="-410" on="1"/>
        <pt x="164" y="496" on="1"/>
        <pt x="293" y="496" on="1"/>
        <pt x="293" y="-410" on="1"/>
      </contour>
      <contour>
        <pt x="164" y="700" on="1"/>
        <pt x="164" y="1606" on="1"/>
        <pt x="293" y="1606" on="1"/>
        <pt x="293" y="700" on="1"/>
      </contour>
    </TTGlyph>
    <TTGlyph name="bullet" xMin="123" yMin="352" xMax="836" yMax="1065">
      <contour>
        <pt x="123" y="709" on="1"/>
        <pt x="123" y="783" on="0"/>
        <pt x="179" y="912" on="0"/>
        <pt x="276" y="1009" on="0"/>
        <pt x="406" y="1065" on="0"/>
        <pt x="479" y="1065" on="1"/>
        <pt x="553" y="1065" on="0"/>
        <pt x="683" y="1009" on="0"/>
        <pt x="780" y="912" on="0"/>
        <pt x="836" y="783" on="0"/>
        <pt x="836" y="709" on="1"/>
        <pt x="836" y="635" on="0"/>
        <pt x="780" y="505" on="0"/>
        <pt x="683" y="408" on="0"/>
        <pt x="553" y="352" on="0"/>
        <pt x="479" y="352" on="1"/>
        <pt x="406" y="352" on="0"/>
        <pt x="276" y="408" on="0"/>
        <pt x="179" y="505" on="0"/>
        <pt x="123" y="635" on="0"/>
      </contour>
    </TTGlyph>
    <TTGlyph name="c" xMin="123" yMin="-20" xMax="807" yMax="1044">
      <contour>
        <pt x="807" y="281" on="1"/>
        <pt x="807" y="219" on="0"/>
        <pt x="760" y="109" on="0"/>
        <pt x="678" y="27" on="0"/>
        <pt x="568" y="-20" on="0"/>
        <pt x="506" y="-20" on="1"/>
        <pt x="424" y="-20" on="1"/>
        <pt x="362" y="-20" on="0"/>
        <pt x="252" y="27" on="0"/>
        <pt x="170" y="109" on="0"/>
        <pt x="123" y="219" on="0"/>
        <pt x="123" y="281" on="1"/>
        <pt x="123" y="743" on="1"/>
        <pt x="123" y="805" on="0"/>
        <pt x="170" y="915" on="0"/>
        <pt x="252" y="997" on="0"/>
        <pt x="362" y="1044" on="0"/>
        <pt x="424" y="1044" on="1"/>
        <pt x="506" y="1044" on="1"/>
        <pt x="568" y="1044" on="0"/>
        <pt x="678" y="997" on="0"/>
        <pt x="760" y="915" on="0"/>
        <pt x="807" y="805" on="0"/>
        <pt x="807" y="743" on="1"/>
        <pt x="807" y="702" on="1"/>
        <pt x="684" y="682" on="1"/>
        <pt x="684" y="750" on="1"/>
        <pt x="684" y="787" on="0"/>
        <pt x="656" y="852" on="0"/>
        <pt x="608" y="900" on="0"/>
        <pt x="543" y="928" on="0"/>
        <pt x="506" y="928" on="1"/>
        <pt x="424" y="928" on="1"/>
        <pt x="387" y="928" on="0"/>
        <pt x="322" y="900" on="0"/>
        <pt x="274" y="852" on="0"/>
        <pt x="246" y="787" on="0"/>
        <pt x="246" y="750" on="1"/>
        <pt x="246" y="274" on="1"/>
        <pt x="246" y="237" on="0"/>
        <pt x="274" y="172" on="0"/>
        <pt x="322" y="124" on="0"/>
        <pt x="387" y="96" on="0"/>
        <pt x="424" y="96" on="1"/>
        <pt x="506" y="96" on="1"/>
        <pt x="543" y="96" on="0"/>
        <pt x="608" y="124" on="0"/>
        <pt x="656" y="172" on="0"/>
        <pt x="684" y="237" on="0"/>
        <pt x="684" y="274" on="1"/>
        <pt x="684" y="342" on="1"/>
        <pt x="807" y="322" on="1"/>
        <pt x="807" y="281" on="1"/>
      </contour>
    </TTGlyph>
    <TTGlyph name="caron" xMin="205" yMin="1188" xMax="737" yMax="1434">
      <contour>
        <pt x="532" y="1188" on="1"/>
        <pt x="410" y="1188" on="1"/>
        <pt x="205" y="1434" on="1"/>
        <pt x="328" y="1434" on="1"/>
        <pt x="471" y="1270" on="1"/>
        <pt x="614" y="1434" on="1"/>
        <pt x="737" y="1434" on="1"/>
      </contour>
    </TTGlyph>
    <TTGlyph name="caron.cap" xMin="205" yMin="1597" xMax="737" yMax="1843">
      <contour>
        <pt x="532" y="1597" on="1"/>
        <pt x="410" y="1597" on="1"/>
        <pt x="205" y="1843" on="1"/>
        <pt x="328" y="1843" on="1"/>
        <pt x="471" y="1679" on="1"/>
        <pt x="614" y="1843" on="1"/>
        <pt x="737" y="1843" on="1"/>
      </contour>
    </TTGlyph>
    <TTGlyph name="ccedilla" xMin="123" yMin="-412" xMax="807" yMax="1044">
      <contour>
        <pt x="436" y="-20" on="1"/>
        <pt x="424" y="-20" on="1"/>
        <pt x="362" y="-20" on="0"/>
        <pt x="252" y="27" on="0"/>
        <pt x="170" y="109" on="0"/>
        <pt x="123" y="219" on="0"/>
        <pt x="123" y="281" on="1"/>
        <pt x="123" y="743" on="1"/>
        <pt x="123" y="805" on="0"/>
        <pt x="170" y="915" on="0"/>
        <pt x="252" y="997" on="0"/>
        <pt x="362" y="1044" on="0"/>
        <pt x="424" y="1044" on="1"/>
        <pt x="506" y="1044" on="1"/>
        <pt x="568" y="1044" on="0"/>
        <pt x="678" y="997" on="0"/>
        <pt x="760" y="915" on="0"/>
        <pt x="807" y="805" on="0"/>
        <pt x="807" y="743" on="1"/>
        <pt x="807" y="702" on="1"/>
        <pt x="684" y="682" on="1"/>
        <pt x="684" y="750" on="1"/>
        <pt x="684" y="787" on="0"/>
        <pt x="656" y="852" on="0"/>
        <pt x="608" y="900" on="0"/>
        <pt x="543" y="928" on="0"/>
        <pt x="506" y="928" on="1"/>
        <pt x="424" y="928" on="1"/>
        <pt x="387" y="928" on="0"/>
        <pt x="322" y="900" on="0"/>
        <pt x="274" y="852" on="0"/>
        <pt x="246" y="787" on="0"/>
        <pt x="246" y="750" on="1"/>
        <pt x="246" y="274" on="1"/>
        <pt x="246" y="237" on="0"/>
        <pt x="274" y="172" on="0"/>
        <pt x="322" y="124" on="0"/>
        <pt x="387" y="96" on="0"/>
        <pt x="424" y="96" on="1"/>
        <pt x="506" y="96" on="1"/>
        <pt x="543" y="96" on="0"/>
        <pt x="608" y="124" on="0"/>
        <pt x="656" y="172" on="0"/>
        <pt x="684" y="237" on="0"/>
        <pt x="684" y="274" on="1"/>
        <pt x="684" y="342" on="1"/>
        <pt x="807" y="322" on="1"/>
        <pt x="807" y="281" on="1"/>
        <pt x="807" y="221" on="0"/>
        <pt x="762" y="115" on="0"/>
        <pt x="685" y="34" on="0"/>
        <pt x="581" y="-16" on="0"/>
        <pt x="522" y="-20" on="1"/>
        <pt x="475" y="-102" on="1"/>
        <pt x="484" y="-106" on="0"/>
        <pt x="516" y="-127" on="0"/>
        <pt x="547" y="-163" on="0"/>
        <pt x="569" y="-213" on="0"/>
        <pt x="569" y="-246" on="1"/>
        <pt x="569" y="-284" on="0"/>
        <pt x="542" y="-346" on="0"/>
        <pt x="493" y="-389" on="0"/>
        <pt x="425" y="-412" on="0"/>
        <pt x="385" y="-412" on="1"/>
        <pt x="340" y="-412" on="0"/>
        <pt x="267" y="-377" on="0"/>
        <pt x="238" y="-348" on="1"/>
        <pt x="285" y="-276" on="1"/>
        <pt x="290" y="-282" on="0"/>
        <pt x="308" y="-298" on="0"/>
        <pt x="335" y="-312" on="0"/>
        <pt x="368" y="-322" on="0"/>
        <pt x="387" y="-322" on="1"/>
        <pt x="424" y="-322" on="0"/>
        <pt x="475" y="-280" on="0"/>
        <pt x="475" y="-242" on="1"/>
        <pt x="475" y="-218" on="0"/>
        <pt x="456" y="-182" on="0"/>
        <pt x="423" y="-158" on="0"/>
        <pt x="380" y="-148" on="0"/>
        <pt x="356" y="-150" on="1"/>
      </contour>
    </TTGlyph>
    <TTGlyph name="cedilla" xMin="205" yMin="-412" xMax="537" yMax="0">
      <contour>
        <pt x="416" y="0" on="1"/>
        <pt x="502" y="0" on="1"/>
        <pt x="442" y="-102" on="1"/>
        <pt x="451" y="-106" on="0"/>
        <pt x="483" y="-127" on="0"/>
        <pt x="514" y="-163" on="0"/>
        <pt x="537" y="-213" on="0"/>
        <pt x="537" y="-246" on="1"/>
        <pt x="537" y="-284" on="0"/>
        <pt x="509" y="-346" on="0"/>
        <pt x="460" y="-389" on="0"/>
        <pt x="392" y="-412" on="0"/>
        <pt x="352" y="-412" on="1"/>
        <pt x="307" y="-412" on="0"/>
        <pt x="234" y="-377" on="0"/>
        <pt x="205" y="-348" on="1"/>
        <pt x="252" y="-276" on="1"/>
        <pt x="257" y="-282" on="0"/>
        <pt x="275" y="-298" on="0"/>
        <pt x="302" y="-312" on="0"/>
        <pt x="335" y="-322" on="0"/>
        <pt x="354" y="-322" on="1"/>
        <pt x="391" y="-322" on="0"/>
        <pt x="442" y="-280" on="0"/>
        <pt x="442" y="-242" on="1"/>
        <pt x="442" y="-218" on="0"/>
        <pt x="423" y="-182" on="0"/>
        <pt x="390" y="-158" on="0"/>
        <pt x="348" y="-148" on="0"/>
        <pt x="324" y="-150" on="1"/>
      </contour>
    </TTGlyph>
    <TTGlyph name="cent" xMin="123" yMin="-20" xMax="807" yMax="1454">
      <contour>
        <pt x="184" y="-20" on="1"/>
        <pt x="262" y="231" on="1"/>
        <pt x="199" y="272" on="0"/>
        <pt x="123" y="405" on="0"/>
        <pt x="123" y="485" on="1"/>
        <pt x="123" y="948" on="1"/>
        <pt x="123" y="1010" on="0"/>
        <pt x="170" y="1120" on="0"/>
        <pt x="252" y="1202" on="0"/>
        <pt x="362" y="1249" on="0"/>
        <pt x="424" y="1249" on="1"/>
        <pt x="506" y="1249" on="1"/>
        <pt x="523" y="1249" on="0"/>
        <pt x="556" y="1246" on="0"/>
        <pt x="571" y="1241" on="1"/>
        <pt x="637" y="1454" on="1"/>
        <pt x="745" y="1454" on="1"/>
        <pt x="668" y="1202" on="1"/>
        <pt x="731" y="1162" on="0"/>
        <pt x="807" y="1029" on="0"/>
        <pt x="807" y="948" on="1"/>
        <pt x="807" y="907" on="1"/>
        <pt x="684" y="887" on="1"/>
        <pt x="684" y="954" on="1"/>
        <pt x="684" y="992" on="0"/>
        <pt x="656" y="1057" on="0"/>
        <pt x="631" y="1081" on="1"/>
        <pt x="393" y="303" on="1"/>
        <pt x="401" y="301" on="0"/>
        <pt x="416" y="301" on="0"/>
        <pt x="424" y="301" on="1"/>
        <pt x="506" y="301" on="1"/>
        <pt x="543" y="301" on="0"/>
        <pt x="608" y="329" on="0"/>
        <pt x="656" y="377" on="0"/>
        <pt x="684" y="442" on="0"/>
        <pt x="684" y="479" on="1"/>
        <pt x="684" y="547" on="1"/>
        <pt x="807" y="526" on="1"/>
        <pt x="807" y="485" on="1"/>
        <pt x="807" y="423" on="0"/>
        <pt x="760" y="313" on="0"/>
        <pt x="678" y="231" on="0"/>
        <pt x="568" y="184" on="0"/>
        <pt x="506" y="184" on="1"/>
        <pt x="424" y="184" on="1"/>
        <pt x="390" y="184" on="0"/>
        <pt x="358" y="190" on="1"/>
        <pt x="293" y="-20" on="1"/>
      </contour>
      <contour>
        <pt x="246" y="479" on="1"/>
        <pt x="246" y="442" on="0"/>
        <pt x="274" y="377" on="0"/>
        <pt x="299" y="352" on="1"/>
        <pt x="537" y="1128" on="1"/>
        <pt x="529" y="1130" on="0"/>
        <pt x="514" y="1133" on="0"/>
        <pt x="506" y="1133" on="1"/>
        <pt x="424" y="1133" on="1"/>
        <pt x="387" y="1133" on="0"/>
        <pt x="322" y="1105" on="0"/>
        <pt x="274" y="1056" on="0"/>
        <pt x="246" y="991" on="0"/>
        <pt x="246" y="954" on="1"/>
        <pt x="246" y="479" on="1"/>
      </contour>
    </TTGlyph>
    <TTGlyph name="circumflex" xMin="205" yMin="1188" xMax="737" yMax="1434">
      <contour>
        <pt x="737" y="1188" on="1"/>
        <pt x="614" y="1188" on="1"/>
        <pt x="471" y="1352" on="1"/>
        <pt x="328" y="1188" on="1"/>
        <pt x="205" y="1188" on="1"/>
        <pt x="410" y="1434" on="1"/>
        <pt x="532" y="1434" on="1"/>
      </contour>
    </TTGlyph>
    <TTGlyph name="circumflex.cap" xMin="205" yMin="1597" xMax="737" yMax="1843">
      <contour>
        <pt x="737" y="1597" on="1"/>
        <pt x="614" y="1597" on="1"/>
        <pt x="471" y="1761" on="1"/>
        <pt x="328" y="1597" on="1"/>
        <pt x="205" y="1597" on="1"/>
        <pt x="410" y="1843" on="1"/>
        <pt x="532" y="1843" on="1"/>
      </contour>
    </TTGlyph>
    <TTGlyph name="colon" xMin="143" yMin="0" xMax="297" yMax="1024">
      <contour>
        <pt x="143" y="870" on="1"/>
        <pt x="143" y="1024" on="1"/>
        <pt x="297" y="1024" on="1"/>
        <pt x="297" y="870" on="1"/>
      </contour>
      <contour>
        <pt x="143" y="0" on="1"/>
        <pt x="143" y="154" on="1"/>
        <pt x="297" y="154" on="1"/>
        <pt x="297" y="0" on="1"/>
      </contour>
    </TTGlyph>
    <TTGlyph name="comma" xMin="143" yMin="-287" xMax="297" yMax="154">
      <contour>
        <pt x="195" y="-287" on="1"/>
        <pt x="143" y="-287" on="1"/>
        <pt x="143" y="154" on="1"/>
        <pt x="297" y="154" on="1"/>
      </contour>
    </TTGlyph>
    <TTGlyph name="commaaccent" xMin="143" yMin="-604" xMax="297" yMax="-164">
      <contour>
        <pt x="195" y="-604" on="1"/>
        <pt x="143" y="-604" on="1"/>
        <pt x="143" y="-164" on="1"/>
        <pt x="297" y="-164" on="1"/>
      </contour>
    </TTGlyph>
    <TTGlyph name="copyright" xMin="102" yMin="-20" xMax="1577" yMax="1454">
      <contour>
        <pt x="102" y="717" on="1"/>
        <pt x="102" y="819" on="0"/>
        <pt x="155" y="1007" on="0"/>
        <pt x="251" y="1171" on="0"/>
        <pt x="385" y="1305" on="0"/>
        <pt x="549" y="1401" on="0"/>
        <pt x="738" y="1454" on="0"/>
        <pt x="840" y="1454" on="1"/>
        <pt x="942" y="1454" on="0"/>
        <pt x="1130" y="1401" on="0"/>
        <pt x="1294" y="1305" on="0"/>
        <pt x="1428" y="1171" on="0"/>
        <pt x="1524" y="1007" on="0"/>
        <pt x="1577" y="819" on="0"/>
        <pt x="1577" y="717" on="1"/>
        <pt x="1577" y="615" on="0"/>
        <pt x="1524" y="426" on="0"/>
        <pt x="1428" y="263" on="0"/>
        <pt x="1294" y="128" on="0"/>
        <pt x="1130" y="33" on="0"/>
        <pt x="942" y="-20" on="0"/>
        <pt x="840" y="-20" on="1"/>
        <pt x="738" y="-20" on="0"/>
        <pt x="549" y="33" on="0"/>
        <pt x="385" y="128" on="0"/>
        <pt x="251" y="263" on="0"/>
        <pt x="155" y="426" on="0"/>
        <pt x="102" y="615" on="0"/>
      </contour>
      <contour>
        <pt x="217" y="717" on="1"/>
        <pt x="217" y="586" on="0"/>
        <pt x="313" y="356" on="0"/>
        <pt x="481" y="185" on="0"/>
        <pt x="708" y="86" on="0"/>
        <pt x="840" y="86" on="1"/>
        <pt x="971" y="86" on="0"/>
        <pt x="1198" y="185" on="0"/>
        <pt x="1366" y="356" on="0"/>
        <pt x="1462" y="586" on="0"/>
        <pt x="1462" y="717" on="1"/>
        <pt x="1462" y="848" on="0"/>
        <pt x="1366" y="1078" on="0"/>
        <pt x="1198" y="1249" on="0"/>
        <pt x="971" y="1348" on="0"/>
        <pt x="840" y="1348" on="1"/>
        <pt x="708" y="1348" on="0"/>
        <pt x="481" y="1249" on="0"/>
        <pt x="313" y="1078" on="0"/>
        <pt x="217" y="848" on="0"/>
      </contour>
      <contour>
        <pt x="1100" y="485" on="1"/>
        <pt x="1100" y="437" on="0"/>
        <pt x="1064" y="354" on="0"/>
        <pt x="1001" y="292" on="0"/>
        <pt x="918" y="256" on="0"/>
        <pt x="870" y="256" on="1"/>
        <pt x="809" y="256" on="1"/>
        <pt x="761" y="256" on="0"/>
        <pt x="678" y="292" on="0"/>
        <pt x="616" y="354" on="0"/>
        <pt x="580" y="437" on="0"/>
        <pt x="580" y="485" on="1"/>
        <pt x="580" y="948" on="1"/>
        <pt x="580" y="996" on="0"/>
        <pt x="616" y="1079" on="0"/>
        <pt x="678" y="1142" on="0"/>
        <pt x="761" y="1178" on="0"/>
        <pt x="809" y="1178" on="1"/>
        <pt x="870" y="1178" on="1"/>
        <pt x="918" y="1178" on="0"/>
        <pt x="1001" y="1142" on="0"/>
        <pt x="1064" y="1079" on="0"/>
        <pt x="1100" y="996" on="0"/>
        <pt x="1100" y="948" on="1"/>
        <pt x="1100" y="897" on="1"/>
        <pt x="985" y="879" on="1"/>
        <pt x="985" y="948" on="1"/>
        <pt x="985" y="973" on="0"/>
        <pt x="966" y="1016" on="0"/>
        <pt x="934" y="1048" on="0"/>
        <pt x="891" y="1067" on="0"/>
        <pt x="866" y="1067" on="1"/>
        <pt x="813" y="1067" on="1"/>
        <pt x="789" y="1067" on="0"/>
        <pt x="745" y="1048" on="0"/>
        <pt x="713" y="1016" on="0"/>
        <pt x="694" y="973" on="0"/>
        <pt x="694" y="948" on="1"/>
        <pt x="694" y="485" on="1"/>
        <pt x="694" y="461" on="0"/>
        <pt x="713" y="418" on="0"/>
        <pt x="745" y="386" on="0"/>
        <pt x="789" y="367" on="0"/>
        <pt x="813" y="367" on="1"/>
        <pt x="866" y="367" on="1"/>
        <pt x="891" y="367" on="0"/>
        <pt x="934" y="386" on="0"/>
        <pt x="966" y="418" on="0"/>
        <pt x="985" y="461" on="0"/>
        <pt x="985" y="485" on="1"/>
        <pt x="985" y="555" on="1"/>
        <pt x="1100" y="537" on="1"/>
        <pt x="1100" y="485" on="1"/>
      </contour>
    </TTGlyph>
    <TTGlyph name="currency" xMin="123" yMin="223" xMax="1114" yMax="1212">
      <contour>
        <pt x="215" y="1212" on="1"/>
        <pt x="365" y="1061" on="1"/>
        <pt x="419" y="1101" on="0"/>
        <pt x="546" y="1145" on="0"/>
        <pt x="618" y="1145" on="1"/>
        <pt x="690" y="1145" on="0"/>
        <pt x="818" y="1101" on="0"/>
        <pt x="870" y="1061" on="1"/>
        <pt x="1022" y="1212" on="1"/>
        <pt x="1112" y="1120" on="1"/>
        <pt x="963" y="971" on="1"/>
        <pt x="1001" y="917" on="0"/>
        <pt x="1044" y="790" on="0"/>
        <pt x="1044" y="719" on="1"/>
        <pt x="1044" y="648" on="0"/>
        <pt x="1001" y="520" on="0"/>
        <pt x="961" y="467" on="1"/>
        <pt x="1114" y="313" on="1"/>
        <pt x="1022" y="223" on="1"/>
        <pt x="868" y="375" on="1"/>
        <pt x="816" y="337" on="0"/>
        <pt x="690" y="295" on="0"/>
        <pt x="618" y="295" on="1"/>
        <pt x="547" y="295" on="0"/>
        <pt x="419" y="337" on="0"/>
        <pt x="367" y="375" on="1"/>
        <pt x="215" y="223" on="1"/>
        <pt x="123" y="313" on="1"/>
        <pt x="276" y="467" on="1"/>
        <pt x="236" y="520" on="0"/>
        <pt x="195" y="648" on="0"/>
        <pt x="195" y="719" on="1"/>
        <pt x="195" y="790" on="0"/>
        <pt x="236" y="916" on="0"/>
        <pt x="274" y="969" on="1"/>
        <pt x="125" y="1120" on="1"/>
      </contour>
      <contour>
        <pt x="317" y="719" on="1"/>
        <pt x="317" y="655" on="0"/>
        <pt x="364" y="544" on="0"/>
        <pt x="445" y="462" on="0"/>
        <pt x="555" y="414" on="0"/>
        <pt x="618" y="414" on="1"/>
        <pt x="682" y="414" on="0"/>
        <pt x="793" y="462" on="0"/>
        <pt x="875" y="544" on="0"/>
        <pt x="922" y="655" on="0"/>
        <pt x="922" y="719" on="1"/>
        <pt x="922" y="783" on="0"/>
        <pt x="875" y="895" on="0"/>
        <pt x="793" y="978" on="0"/>
        <pt x="682" y="1026" on="0"/>
        <pt x="618" y="1026" on="1"/>
        <pt x="555" y="1026" on="0"/>
        <pt x="445" y="978" on="0"/>
        <pt x="364" y="895" on="0"/>
        <pt x="317" y="783" on="0"/>
      </contour>
    </TTGlyph>
    <TTGlyph name="d" xMin="123" yMin="-20" xMax="807" yMax="1434">
      <contour>
        <pt x="766" y="0" on="1"/>
        <pt x="698" y="104" on="1"/>
        <pt x="656" y="47" on="0"/>
        <pt x="530" y="-20" on="0"/>
        <pt x="455" y="-20" on="1"/>
        <pt x="424" y="-20" on="1"/>
        <pt x="362" y="-20" on="0"/>
        <pt x="252" y="27" on="0"/>
        <pt x="170" y="109" on="0"/>
        <pt x="123" y="219" on="0"/>
        <pt x="123" y="281" on="1"/>
        <pt x="123" y="743" on="1"/>
        <pt x="123" y="805" on="0"/>
        <pt x="170" y="915" on="0"/>
        <pt x="252" y="997" on="0"/>
        <pt x="362" y="1044" on="0"/>
        <pt x="424" y="1044" on="1"/>
        <pt x="455" y="1044" on="1"/>
        <pt x="524" y="1044" on="0"/>
        <pt x="642" y="988" on="0"/>
        <pt x="684" y="938" on="1"/>
        <pt x="684" y="1434" on="1"/>
        <pt x="807" y="1434" on="1"/>
        <pt x="807" y="0" on="1"/>
      </contour>
      <contour>
        <pt x="684" y="750" on="1"/>
        <pt x="684" y="787" on="0"/>
        <pt x="656" y="852" on="0"/>
        <pt x="608" y="900" on="0"/>
        <pt x="543" y="928" on="0"/>
        <pt x="506" y="928" on="1"/>
        <pt x="424" y="928" on="1"/>
        <pt x="387" y="928" on="0"/>
        <pt x="322" y="900" on="0"/>
        <pt x="274" y="852" on="0"/>
        <pt x="246" y="787" on="0"/>
        <pt x="246" y="750" on="1"/>
        <pt x="246" y="274" on="1"/>
        <pt x="246" y="237" on="0"/>
        <pt x="274" y="172" on="0"/>
        <pt x="322" y="124" on="0"/>
        <pt x="387" y="96" on="0"/>
        <pt x="424" y="96" on="1"/>
        <pt x="506" y="96" on="1"/>
        <pt x="543" y="96" on="0"/>
        <pt x="608" y="124" on="0"/>
        <pt x="656" y="172" on="0"/>
        <pt x="684" y="237" on="0"/>
        <pt x="684" y="274" on="1"/>
      </contour>
    </TTGlyph>
    <TTGlyph name="dagger" xMin="82" yMin="-410" xMax="844" yMax="1434">
      <contour>
        <pt x="397" y="1010" on="1"/>
        <pt x="391" y="1434" on="1"/>
        <pt x="535" y="1434" on="1"/>
        <pt x="528" y="1010" on="1"/>
        <pt x="844" y="1032" on="1"/>
        <pt x="844" y="887" on="1"/>
        <pt x="526" y="909" on="1"/>
        <pt x="510" y="-410" on="1"/>
        <pt x="416" y="-410" on="1"/>
        <pt x="397" y="909" on="1"/>
        <pt x="82" y="887" on="1"/>
        <pt x="82" y="1032" on="1"/>
      </contour>
    </TTGlyph>
    <TTGlyph name="daggerdbl" xMin="82" yMin="-410" xMax="844" yMax="1434">
      <contour>
        <pt x="401" y="1010" on="1"/>
        <pt x="391" y="1434" on="1"/>
        <pt x="535" y="1434" on="1"/>
        <pt x="524" y="1010" on="1"/>
        <pt x="844" y="1032" on="1"/>
        <pt x="844" y="887" on="1"/>
        <pt x="522" y="909" on="1"/>
        <pt x="512" y="510" on="1"/>
        <pt x="520" y="115" on="1"/>
        <pt x="844" y="137" on="1"/>
        <pt x="844" y="-8" on="1"/>
        <pt x="524" y="12" on="1"/>
        <pt x="535" y="-410" on="1"/>
        <pt x="391" y="-410" on="1"/>
        <pt x="401" y="14" on="1"/>
        <pt x="82" y="-8" on="1"/>
        <pt x="82" y="137" on="1"/>
        <pt x="403" y="115" on="1"/>
        <pt x="414" y="508" on="1"/>
        <pt x="403" y="909" on="1"/>
        <pt x="82" y="887" on="1"/>
        <pt x="82" y="1032" on="1"/>
      </contour>
    </TTGlyph>
    <TTGlyph name="degree" xMin="143" yMin="885" xMax="713" yMax="1454">
      <contour>
        <pt x="143" y="1169" on="1"/>
        <pt x="143" y="1228" on="0"/>
        <pt x="188" y="1332" on="0"/>
        <pt x="265" y="1409" on="0"/>
        <pt x="369" y="1454" on="0"/>
        <pt x="428" y="1454" on="1"/>
        <pt x="487" y="1454" on="0"/>
        <pt x="591" y="1409" on="0"/>
        <pt x="668" y="1332" on="0"/>
        <pt x="713" y="1228" on="0"/>
        <pt x="713" y="1169" on="1"/>
        <pt x="713" y="1110" on="0"/>
        <pt x="668" y="1007" on="0"/>
        <pt x="591" y="930" on="0"/>
        <pt x="487" y="885" on="0"/>
        <pt x="428" y="885" on="1"/>
        <pt x="369" y="885" on="0"/>
        <pt x="265" y="930" on="0"/>
        <pt x="188" y="1007" on="0"/>
        <pt x="143" y="1110" on="0"/>
      </contour>
      <contour>
        <pt x="258" y="1169" on="1"/>
        <pt x="258" y="1134" on="0"/>
        <pt x="285" y="1071" on="0"/>
        <pt x="331" y="1024" on="0"/>
        <pt x="393" y="997" on="0"/>
        <pt x="428" y="997" on="1"/>
        <pt x="463" y="997" on="0"/>
        <pt x="525" y="1024" on="0"/>
        <pt x="571" y="1071" on="0"/>
        <pt x="598" y="1134" on="0"/>
        <pt x="598" y="1169" on="1"/>
        <pt x="598" y="1205" on="0"/>
        <pt x="571" y="1267" on="0"/>
        <pt x="525" y="1314" on="0"/>
        <pt x="463" y="1341" on="0"/>
        <pt x="428" y="1341" on="1"/>
        <pt x="393" y="1341" on="0"/>
        <pt x="331" y="1314" on="0"/>
        <pt x="285" y="1267" on="0"/>
        <pt x="258" y="1205" on="0"/>
      </contour>
    </TTGlyph>
    <TTGlyph name="dieresis" xMin="205" yMin="1231" xMax="745" yMax="1384">
      <contour>
        <pt x="205" y="1231" on="1"/>
        <pt x="205" y="1384" on="1"/>
        <pt x="358" y="1384" on="1"/>
        <pt x="358" y="1231" on="1"/>
      </contour>
      <contour>
        <pt x="592" y="1231" on="1"/>
        <pt x="592" y="1384" on="1"/>
        <pt x="745" y="1384" on="1"/>
        <pt x="745" y="1231" on="1"/>
      </contour>
    </TTGlyph>
    <TTGlyph name="dieresis.cap" xMin="205" yMin="1640" xMax="745" yMax="1794">
      <contour>
        <pt x="205" y="1640" on="1"/>
        <pt x="205" y="1794" on="1"/>
        <pt x="358" y="1794" on="1"/>
        <pt x="358" y="1640" on="1"/>
      </contour>
      <contour>
        <pt x="592" y="1640" on="1"/>
        <pt x="592" y="1794" on="1"/>
        <pt x="745" y="1794" on="1"/>
        <pt x="745" y="1640" on="1"/>
      </contour>
    </TTGlyph>
    <TTGlyph name="divide" xMin="82" yMin="197" xMax="1106" yMax="1239">
      <contour>
        <pt x="1106" y="782" on="1"/>
        <pt x="1106" y="653" on="1"/>
        <pt x="82" y="653" on="1"/>
        <pt x="82" y="782" on="1"/>
      </contour>
      <contour>
        <pt x="455" y="1100" on="1"/>
        <pt x="455" y="1129" on="0"/>
        <pt x="477" y="1179" on="0"/>
        <pt x="515" y="1217" on="0"/>
        <pt x="566" y="1239" on="0"/>
        <pt x="594" y="1239" on="1"/>
        <pt x="623" y="1239" on="0"/>
        <pt x="673" y="1217" on="0"/>
        <pt x="711" y="1179" on="0"/>
        <pt x="733" y="1129" on="0"/>
        <pt x="733" y="1100" on="1"/>
        <pt x="733" y="1072" on="0"/>
        <pt x="711" y="1021" on="0"/>
        <pt x="673" y="983" on="0"/>
        <pt x="623" y="961" on="0"/>
        <pt x="594" y="961" on="1"/>
        <pt x="566" y="961" on="0"/>
        <pt x="515" y="983" on="0"/>
        <pt x="477" y="1021" on="0"/>
        <pt x="455" y="1072" on="0"/>
      </contour>
      <contour>
        <pt x="455" y="336" on="1"/>
        <pt x="455" y="365" on="0"/>
        <pt x="477" y="415" on="0"/>
        <pt x="515" y="453" on="0"/>
        <pt x="566" y="475" on="0"/>
        <pt x="594" y="475" on="1"/>
        <pt x="623" y="475" on="0"/>
        <pt x="673" y="453" on="0"/>
        <pt x="711" y="415" on="0"/>
        <pt x="733" y="365" on="0"/>
        <pt x="733" y="336" on="1"/>
        <pt x="733" y="308" on="0"/>
        <pt x="711" y="257" on="0"/>
        <pt x="673" y="219" on="0"/>
        <pt x="623" y="197" on="0"/>
        <pt x="594" y="197" on="1"/>
        <pt x="566" y="197" on="0"/>
        <pt x="515" y="219" on="0"/>
        <pt x="477" y="257" on="0"/>
        <pt x="455" y="308" on="0"/>
      </contour>
    </TTGlyph>
    <TTGlyph name="dollar" xMin="143" yMin="-246" xMax="950" yMax="1638">
      <contour>
        <pt x="492" y="-246" on="1"/>
        <pt x="492" y="-20" on="1"/>
        <pt x="420" y="-19" on="0"/>
        <pt x="292" y="36" on="0"/>
        <pt x="198" y="131" on="0"/>
        <pt x="143" y="259" on="0"/>
        <pt x="143" y="332" on="1"/>
        <pt x="143" y="389" on="1"/>
        <pt x="272" y="410" on="1"/>
        <pt x="272" y="332" on="1"/>
        <pt x="272" y="285" on="0"/>
        <pt x="306" y="203" on="0"/>
        <pt x="366" y="141" on="0"/>
        <pt x="446" y="104" on="0"/>
        <pt x="492" y="102" on="1"/>
        <pt x="492" y="684" on="1"/>
        <pt x="426" y="708" on="0"/>
        <pt x="301" y="765" on="0"/>
        <pt x="203" y="853" on="0"/>
        <pt x="143" y="981" on="0"/>
        <pt x="143" y="1075" on="1"/>
        <pt x="143" y="1102" on="1"/>
        <pt x="143" y="1174" on="0"/>
        <pt x="198" y="1301" on="0"/>
        <pt x="292" y="1397" on="0"/>
        <pt x="420" y="1453" on="0"/>
        <pt x="492" y="1454" on="1"/>
        <pt x="492" y="1638" on="1"/>
        <pt x="594" y="1638" on="1"/>
        <pt x="594" y="1454" on="1"/>
        <pt x="665" y="1453" on="0"/>
        <pt x="791" y="1396" on="0"/>
        <pt x="885" y="1301" on="0"/>
        <pt x="940" y="1174" on="0"/>
        <pt x="940" y="1102" on="1"/>
        <pt x="940" y="1065" on="1"/>
        <pt x="811" y="1044" on="1"/>
        <pt x="811" y="1102" on="1"/>
        <pt x="811" y="1148" on="0"/>
        <pt x="777" y="1230" on="0"/>
        <pt x="719" y="1291" on="0"/>
        <pt x="639" y="1329" on="0"/>
        <pt x="594" y="1331" on="1"/>
        <pt x="594" y="776" on="1"/>
        <pt x="659" y="751" on="0"/>
        <pt x="787" y="691" on="0"/>
        <pt x="888" y="601" on="0"/>
        <pt x="950" y="470" on="0"/>
        <pt x="950" y="375" on="1"/>
        <pt x="950" y="332" on="1"/>
        <pt x="950" y="259" on="0"/>
        <pt x="895" y="131" on="0"/>
        <pt x="799" y="35" on="0"/>
        <pt x="671" y="-20" on="0"/>
        <pt x="598" y="-20" on="1"/>
        <pt x="594" y="-20" on="1"/>
        <pt x="594" y="-246" on="1"/>
      </contour>
      <contour>
        <pt x="821" y="375" on="1"/>
        <pt x="821" y="432" on="0"/>
        <pt x="785" y="517" on="0"/>
        <pt x="724" y="580" on="0"/>
        <pt x="641" y="626" on="0"/>
        <pt x="594" y="645" on="1"/>
        <pt x="594" y="102" on="1"/>
        <pt x="641" y="102" on="0"/>
        <pt x="724" y="138" on="0"/>
        <pt x="785" y="201" on="0"/>
        <pt x="821" y="284" on="0"/>
        <pt x="821" y="332" on="1"/>
        <pt x="821" y="375" on="1"/>
      </contour>
      <contour>
        <pt x="272" y="1075" on="1"/>
        <pt x="272" y="1022" on="0"/>
        <pt x="306" y="943" on="0"/>
        <pt x="366" y="883" on="0"/>
        <pt x="446" y="837" on="0"/>
        <pt x="492" y="817" on="1"/>
        <pt x="492" y="1331" on="1"/>
        <pt x="446" y="1329" on="0"/>
        <pt x="366" y="1291" on="0"/>
        <pt x="306" y="1230" on="0"/>
        <pt x="272" y="1148" on="0"/>
        <pt x="272" y="1102" on="1"/>
        <pt x="272" y="1075" on="1"/>
      </contour>
    </TTGlyph>
    <TTGlyph name="dotaccent" xMin="205" yMin="1231" xMax="358" yMax="1384">
      <contour>
        <pt x="205" y="1231" on="1"/>
        <pt x="205" y="1384" on="1"/>
        <pt x="358" y="1384" on="1"/>
        <pt x="358" y="1231" on="1"/>
      </contour>
    </TTGlyph>
    <TTGlyph name="dotaccentcmb" xMin="205" yMin="1231" xMax="358" yMax="1384">
      <contour>
        <pt x="205" y="1231" on="1"/>
        <pt x="205" y="1384" on="1"/>
        <pt x="358" y="1384" on="1"/>
        <pt x="358" y="1231" on="1"/>
      </contour>
    </TTGlyph>
    <TTGlyph name="dotlessi" xMin="164" yMin="0" xMax="287" yMax="1024">
      <contour>
        <pt x="164" y="0" on="1"/>
        <pt x="164" y="1024" on="1"/>
        <pt x="287" y="1024" on="1"/>
        <pt x="287" y="0" on="1"/>
      </contour>
    </TTGlyph>
    <TTGlyph name="dotlessj" xMin="-14" yMin="-410" xMax="287" yMax="1024">
      <contour>
        <pt x="287" y="-109" on="1"/>
        <pt x="287" y="-171" on="0"/>
        <pt x="240" y="-280" on="0"/>
        <pt x="158" y="-362" on="0"/>
        <pt x="48" y="-410" on="0"/>
        <pt x="-14" y="-410" on="1"/>
        <pt x="-14" y="-293" on="1"/>
        <pt x="23" y="-293" on="0"/>
        <pt x="88" y="-265" on="0"/>
        <pt x="136" y="-217" on="0"/>
        <pt x="164" y="-152" on="0"/>
        <pt x="164" y="-115" on="1"/>
        <pt x="164" y="1024" on="1"/>
        <pt x="287" y="1024" on="1"/>
        <pt x="287" y="-109" on="1"/>
      </contour>
    </TTGlyph>
    <TTGlyph name="e" xMin="123" yMin="-20" xMax="807" yMax="1044">
      <contour>
        <pt x="807" y="281" on="1"/>
        <pt x="807" y="219" on="0"/>
        <pt x="760" y="109" on="0"/>
        <pt x="678" y="27" on="0"/>
        <pt x="568" y="-20" on="0"/>
        <pt x="506" y="-20" on="1"/>
        <pt x="424" y="-20" on="1"/>
        <pt x="362" y="-20" on="0"/>
        <pt x="252" y="27" on="0"/>
        <pt x="170" y="109" on="0"/>
        <pt x="123" y="219" on="0"/>
        <pt x="123" y="281" on="1"/>
        <pt x="123" y="743" on="1"/>
        <pt x="123" y="805" on="0"/>
        <pt x="170" y="915" on="0"/>
        <pt x="252" y="997" on="0"/>
        <pt x="362" y="1044" on="0"/>
        <pt x="424" y="1044" on="1"/>
        <pt x="506" y="1044" on="1"/>
        <pt x="568" y="1044" on="0"/>
        <pt x="678" y="997" on="0"/>
        <pt x="760" y="915" on="0"/>
        <pt x="807" y="805" on="0"/>
        <pt x="807" y="743" on="1"/>
        <pt x="807" y="502" on="1"/>
        <pt x="246" y="502" on="1"/>
        <pt x="246" y="274" on="1"/>
        <pt x="246" y="237" on="0"/>
        <pt x="274" y="172" on="0"/>
        <pt x="322" y="124" on="0"/>
        <pt x="387" y="96" on="0"/>
        <pt x="424" y="96" on="1"/>
        <pt x="506" y="96" on="1"/>
        <pt x="543" y="96" on="0"/>
        <pt x="608" y="124" on="0"/>
        <pt x="656" y="172" on="0"/>
        <pt x="684" y="237" on="0"/>
        <pt x="684" y="274" on="1"/>
        <pt x="684" y="342" on="1"/>
        <pt x="807" y="322" on="1"/>
        <pt x="807" y="281" on="1"/>
      </contour>
      <contour>
        <pt x="684" y="750" on="1"/>
        <pt x="684" y="787" on="0"/>
        <pt x="656" y="852" on="0"/>
        <pt x="608" y="900" on="0"/>
        <pt x="543" y="928" on="0"/>
        <pt x="506" y="928" on="1"/>
        <pt x="424" y="928" on="1"/>
        <pt x="387" y="928" on="0"/>
        <pt x="322" y="900" on="0"/>
        <pt x="274" y="852" on="0"/>
        <pt x="246" y="787" on="0"/>
        <pt x="246" y="750" on="1"/>
        <pt x="246" y="598" on="1"/>
        <pt x="684" y="598" on="1"/>
      </contour>
    </TTGlyph>
    <TTGlyph name="eacute" xMin="123" yMin="-20" xMax="807" yMax="1434">
      <contour>
        <pt x="807" y="281" on="1"/>
        <pt x="807" y="219" on="0"/>
        <pt x="760" y="109" on="0"/>
        <pt x="678" y="27" on="0"/>
        <pt x="568" y="-20" on="0"/>
        <pt x="506" y="-20" on="1"/>
        <pt x="424" y="-20" on="1"/>
        <pt x="362" y="-20" on="0"/>
        <pt x="252" y="27" on="0"/>
        <pt x="170" y="109" on="0"/>
        <pt x="123" y="219" on="0"/>
        <pt x="123" y="281" on="1"/>
        <pt x="123" y="743" on="1"/>
        <pt x="123" y="805" on="0"/>
        <pt x="170" y="915" on="0"/>
        <pt x="252" y="997" on="0"/>
        <pt x="362" y="1044" on="0"/>
        <pt x="424" y="1044" on="1"/>
        <pt x="506" y="1044" on="1"/>
        <pt x="568" y="1044" on="0"/>
        <pt x="678" y="997" on="0"/>
        <pt x="760" y="915" on="0"/>
        <pt x="807" y="805" on="0"/>
        <pt x="807" y="743" on="1"/>
        <pt x="807" y="502" on="1"/>
        <pt x="246" y="502" on="1"/>
        <pt x="246" y="274" on="1"/>
        <pt x="246" y="237" on="0"/>
        <pt x="274" y="172" on="0"/>
        <pt x="322" y="124" on="0"/>
        <pt x="387" y="96" on="0"/>
        <pt x="424" y="96" on="1"/>
        <pt x="506" y="96" on="1"/>
        <pt x="543" y="96" on="0"/>
        <pt x="608" y="124" on="0"/>
        <pt x="656" y="172" on="0"/>
        <pt x="684" y="237" on="0"/>
        <pt x="684" y="274" on="1"/>
        <pt x="684" y="342" on="1"/>
        <pt x="807" y="322" on="1"/>
        <pt x="807" y="281" on="1"/>
      </contour>
      <contour>
        <pt x="684" y="750" on="1"/>
        <pt x="684" y="787" on="0"/>
        <pt x="656" y="852" on="0"/>
        <pt x="608" y="900" on="0"/>
        <pt x="543" y="928" on="0"/>
        <pt x="506" y="928" on="1"/>
        <pt x="424" y="928" on="1"/>
        <pt x="387" y="928" on="0"/>
        <pt x="322" y="900" on="0"/>
        <pt x="274" y="852" on="0"/>
        <pt x="246" y="787" on="0"/>
        <pt x="246" y="750" on="1"/>
        <pt x="246" y="598" on="1"/>
        <pt x="684" y="598" on="1"/>
      </contour>
      <contour>
        <pt x="414" y="1188" on="1"/>
        <pt x="322" y="1188" on="1"/>
        <pt x="485" y="1434" on="1"/>
        <pt x="690" y="1434" on="1"/>
      </contour>
    </TTGlyph>
    <TTGlyph name="ecircumflex" xMin="123" yMin="-20" xMax="807" yMax="1434">
      <contour>
        <pt x="807" y="281" on="1"/>
        <pt x="807" y="219" on="0"/>
        <pt x="760" y="109" on="0"/>
        <pt x="678" y="27" on="0"/>
        <pt x="568" y="-20" on="0"/>
        <pt x="506" y="-20" on="1"/>
        <pt x="424" y="-20" on="1"/>
        <pt x="362" y="-20" on="0"/>
        <pt x="252" y="27" on="0"/>
        <pt x="170" y="109" on="0"/>
        <pt x="123" y="219" on="0"/>
        <pt x="123" y="281" on="1"/>
        <pt x="123" y="743" on="1"/>
        <pt x="123" y="805" on="0"/>
        <pt x="170" y="915" on="0"/>
        <pt x="252" y="997" on="0"/>
        <pt x="362" y="1044" on="0"/>
        <pt x="424" y="1044" on="1"/>
        <pt x="506" y="1044" on="1"/>
        <pt x="568" y="1044" on="0"/>
        <pt x="678" y="997" on="0"/>
        <pt x="760" y="915" on="0"/>
        <pt x="807" y="805" on="0"/>
        <pt x="807" y="743" on="1"/>
        <pt x="807" y="502" on="1"/>
        <pt x="246" y="502" on="1"/>
        <pt x="246" y="274" on="1"/>
        <pt x="246" y="237" on="0"/>
        <pt x="274" y="172" on="0"/>
        <pt x="322" y="124" on="0"/>
        <pt x="387" y="96" on="0"/>
        <pt x="424" y="96" on="1"/>
        <pt x="506" y="96" on="1"/>
        <pt x="543" y="96" on="0"/>
        <pt x="608" y="124" on="0"/>
        <pt x="656" y="172" on="0"/>
        <pt x="684" y="237" on="0"/>
        <pt x="684" y="274" on="1"/>
        <pt x="684" y="342" on="1"/>
        <pt x="807" y="322" on="1"/>
        <pt x="807" y="281" on="1"/>
      </contour>
      <contour>
        <pt x="684" y="750" on="1"/>
        <pt x="684" y="787" on="0"/>
        <pt x="656" y="852" on="0"/>
        <pt x="608" y="900" on="0"/>
        <pt x="543" y="928" on="0"/>
        <pt x="506" y="928" on="1"/>
        <pt x="424" y="928" on="1"/>
        <pt x="387" y="928" on="0"/>
        <pt x="322" y="900" on="0"/>
        <pt x="274" y="852" on="0"/>
        <pt x="246" y="787" on="0"/>
        <pt x="246" y="750" on="1"/>
        <pt x="246" y="598" on="1"/>
        <pt x="684" y="598" on="1"/>
      </contour>
      <contour>
        <pt x="752" y="1188" on="1"/>
        <pt x="629" y="1188" on="1"/>
        <pt x="485" y="1352" on="1"/>
        <pt x="342" y="1188" on="1"/>
        <pt x="219" y="1188" on="1"/>
        <pt x="424" y="1434" on="1"/>
        <pt x="547" y="1434" on="1"/>
      </contour>
    </TTGlyph>
    <TTGlyph name="edieresis" xMin="123" yMin="-20" xMax="807" yMax="1384">
      <contour>
        <pt x="807" y="281" on="1"/>
        <pt x="807" y="219" on="0"/>
        <pt x="760" y="109" on="0"/>
        <pt x="678" y="27" on="0"/>
        <pt x="568" y="-20" on="0"/>
        <pt x="506" y="-20" on="1"/>
        <pt x="424" y="-20" on="1"/>
        <pt x="362" y="-20" on="0"/>
        <pt x="252" y="27" on="0"/>
        <pt x="170" y="109" on="0"/>
        <pt x="123" y="219" on="0"/>
        <pt x="123" y="281" on="1"/>
        <pt x="123" y="743" on="1"/>
        <pt x="123" y="805" on="0"/>
        <pt x="170" y="915" on="0"/>
        <pt x="252" y="997" on="0"/>
        <pt x="362" y="1044" on="0"/>
        <pt x="424" y="1044" on="1"/>
        <pt x="506" y="1044" on="1"/>
        <pt x="568" y="1044" on="0"/>
        <pt x="678" y="997" on="0"/>
        <pt x="760" y="915" on="0"/>
        <pt x="807" y="805" on="0"/>
        <pt x="807" y="743" on="1"/>
        <pt x="807" y="502" on="1"/>
        <pt x="246" y="502" on="1"/>
        <pt x="246" y="274" on="1"/>
        <pt x="246" y="237" on="0"/>
        <pt x="274" y="172" on="0"/>
        <pt x="322" y="124" on="0"/>
        <pt x="387" y="96" on="0"/>
        <pt x="424" y="96" on="1"/>
        <pt x="506" y="96" on="1"/>
        <pt x="543" y="96" on="0"/>
        <pt x="608" y="124" on="0"/>
        <pt x="656" y="172" on="0"/>
        <pt x="684" y="237" on="0"/>
        <pt x="684" y="274" on="1"/>
        <pt x="684" y="342" on="1"/>
        <pt x="807" y="322" on="1"/>
        <pt x="807" y="281" on="1"/>
      </contour>
      <contour>
        <pt x="684" y="750" on="1"/>
        <pt x="684" y="787" on="0"/>
        <pt x="656" y="852" on="0"/>
        <pt x="608" y="900" on="0"/>
        <pt x="543" y="928" on="0"/>
        <pt x="506" y="928" on="1"/>
        <pt x="424" y="928" on="1"/>
        <pt x="387" y="928" on="0"/>
        <pt x="322" y="900" on="0"/>
        <pt x="274" y="852" on="0"/>
        <pt x="246" y="787" on="0"/>
        <pt x="246" y="750" on="1"/>
        <pt x="246" y="598" on="1"/>
        <pt x="684" y="598" on="1"/>
      </contour>
      <contour>
        <pt x="215" y="1231" on="1"/>
        <pt x="215" y="1384" on="1"/>
        <pt x="369" y="1384" on="1"/>
        <pt x="369" y="1231" on="1"/>
      </contour>
      <contour>
        <pt x="602" y="1231" on="1"/>
        <pt x="602" y="1384" on="1"/>
        <pt x="756" y="1384" on="1"/>
        <pt x="756" y="1231" on="1"/>
      </contour>
    </TTGlyph>
    <TTGlyph name="egrave" xMin="123" yMin="-20" xMax="807" yMax="1434">
      <contour>
        <pt x="807" y="281" on="1"/>
        <pt x="807" y="219" on="0"/>
        <pt x="760" y="109" on="0"/>
        <pt x="678" y="27" on="0"/>
        <pt x="568" y="-20" on="0"/>
        <pt x="506" y="-20" on="1"/>
        <pt x="424" y="-20" on="1"/>
        <pt x="362" y="-20" on="0"/>
        <pt x="252" y="27" on="0"/>
        <pt x="170" y="109" on="0"/>
        <pt x="123" y="219" on="0"/>
        <pt x="123" y="281" on="1"/>
        <pt x="123" y="743" on="1"/>
        <pt x="123" y="805" on="0"/>
        <pt x="170" y="915" on="0"/>
        <pt x="252" y="997" on="0"/>
        <pt x="362" y="1044" on="0"/>
        <pt x="424" y="1044" on="1"/>
        <pt x="506" y="1044" on="1"/>
        <pt x="568" y="1044" on="0"/>
        <pt x="678" y="997" on="0"/>
        <pt x="760" y="915" on="0"/>
        <pt x="807" y="805" on="0"/>
        <pt x="807" y="743" on="1"/>
        <pt x="807" y="502" on="1"/>
        <pt x="246" y="502" on="1"/>
        <pt x="246" y="274" on="1"/>
        <pt x="246" y="237" on="0"/>
        <pt x="274" y="172" on="0"/>
        <pt x="322" y="124" on="0"/>
        <pt x="387" y="96" on="0"/>
        <pt x="424" y="96" on="1"/>
        <pt x="506" y="96" on="1"/>
        <pt x="543" y="96" on="0"/>
        <pt x="608" y="124" on="0"/>
        <pt x="656" y="172" on="0"/>
        <pt x="684" y="237" on="0"/>
        <pt x="684" y="274" on="1"/>
        <pt x="684" y="342" on="1"/>
        <pt x="807" y="322" on="1"/>
        <pt x="807" y="281" on="1"/>
      </contour>
      <contour>
        <pt x="684" y="750" on="1"/>
        <pt x="684" y="787" on="0"/>
        <pt x="656" y="852" on="0"/>
        <pt x="608" y="900" on="0"/>
        <pt x="543" y="928" on="0"/>
        <pt x="506" y="928" on="1"/>
        <pt x="424" y="928" on="1"/>
        <pt x="387" y="928" on="0"/>
        <pt x="322" y="900" on="0"/>
        <pt x="274" y="852" on="0"/>
        <pt x="246" y="787" on="0"/>
        <pt x="246" y="750" on="1"/>
        <pt x="246" y="598" on="1"/>
        <pt x="684" y="598" on="1"/>
      </contour>
      <contour>
        <pt x="240" y="1434" on="1"/>
        <pt x="444" y="1434" on="1"/>
        <pt x="608" y="1188" on="1"/>
        <pt x="516" y="1188" on="1"/>
      </contour>
    </TTGlyph>
    <TTGlyph name="eight" xMin="143" yMin="-20" xMax="909" yMax="1454">
      <contour>
        <pt x="909" y="332" on="1"/>
        <pt x="909" y="259" on="0"/>
        <pt x="854" y="131" on="0"/>
        <pt x="758" y="35" on="0"/>
        <pt x="630" y="-20" on="0"/>
        <pt x="557" y="-20" on="1"/>
        <pt x="496" y="-20" on="1"/>
        <pt x="423" y="-20" on="0"/>
        <pt x="294" y="35" on="0"/>
        <pt x="198" y="131" on="0"/>
        <pt x="143" y="259" on="0"/>
        <pt x="143" y="332" on="1"/>
        <pt x="143" y="451" on="1"/>
        <pt x="143" y="542" on="0"/>
        <pt x="228" y="693" on="0"/>
        <pt x="297" y="741" on="1"/>
        <pt x="228" y="789" on="0"/>
        <pt x="143" y="941" on="0"/>
        <pt x="143" y="1032" on="1"/>
        <pt x="143" y="1102" on="1"/>
        <pt x="143" y="1175" on="0"/>
        <pt x="198" y="1303" on="0"/>
        <pt x="294" y="1399" on="0"/>
        <pt x="423" y="1454" on="0"/>
        <pt x="496" y="1454" on="1"/>
        <pt x="557" y="1454" on="1"/>
        <pt x="630" y="1454" on="0"/>
        <pt x="758" y="1399" on="0"/>
        <pt x="854" y="1303" on="0"/>
        <pt x="909" y="1175" on="0"/>
        <pt x="909" y="1102" on="1"/>
        <pt x="909" y="1032" on="1"/>
        <pt x="909" y="941" on="0"/>
        <pt x="825" y="789" on="0"/>
        <pt x="756" y="741" on="1"/>
        <pt x="825" y="693" on="0"/>
        <pt x="909" y="542" on="0"/>
        <pt x="909" y="451" on="1"/>
        <pt x="909" y="332" on="1"/>
      </contour>
      <contour>
        <pt x="780" y="1102" on="1"/>
        <pt x="780" y="1150" on="0"/>
        <pt x="744" y="1233" on="0"/>
        <pt x="682" y="1295" on="0"/>
        <pt x="599" y="1331" on="0"/>
        <pt x="551" y="1331" on="1"/>
        <pt x="502" y="1331" on="1"/>
        <pt x="454" y="1331" on="0"/>
        <pt x="371" y="1295" on="0"/>
        <pt x="308" y="1233" on="0"/>
        <pt x="272" y="1150" on="0"/>
        <pt x="272" y="1102" on="1"/>
        <pt x="272" y="1032" on="1"/>
        <pt x="272" y="984" on="0"/>
        <pt x="308" y="901" on="0"/>
        <pt x="371" y="839" on="0"/>
        <pt x="454" y="803" on="0"/>
        <pt x="502" y="803" on="1"/>
        <pt x="551" y="803" on="1"/>
        <pt x="599" y="803" on="0"/>
        <pt x="682" y="839" on="0"/>
        <pt x="744" y="901" on="0"/>
        <pt x="780" y="984" on="0"/>
        <pt x="780" y="1032" on="1"/>
      </contour>
      <contour>
        <pt x="780" y="451" on="1"/>
        <pt x="780" y="499" on="0"/>
        <pt x="744" y="582" on="0"/>
        <pt x="682" y="644" on="0"/>
        <pt x="599" y="680" on="0"/>
        <pt x="551" y="680" on="1"/>
        <pt x="502" y="680" on="1"/>
        <pt x="454" y="680" on="0"/>
        <pt x="371" y="644" on="0"/>
        <pt x="308" y="582" on="0"/>
        <pt x="272" y="499" on="0"/>
        <pt x="272" y="451" on="1"/>
        <pt x="272" y="332" on="1"/>
        <pt x="272" y="284" on="0"/>
        <pt x="308" y="201" on="0"/>
        <pt x="371" y="138" on="0"/>
        <pt x="454" y="102" on="0"/>
        <pt x="502" y="102" on="1"/>
        <pt x="551" y="102" on="1"/>
        <pt x="599" y="102" on="0"/>
        <pt x="682" y="138" on="0"/>
        <pt x="744" y="201" on="0"/>
        <pt x="780" y="284" on="0"/>
        <pt x="780" y="332" on="1"/>
      </contour>
    </TTGlyph>
    <TTGlyph name="ellipsis" xMin="143" yMin="0" xMax="1341" yMax="154">
      <contour>
        <pt x="143" y="0" on="1"/>
        <pt x="143" y="154" on="1"/>
        <pt x="297" y="154" on="1"/>
        <pt x="297" y="0" on="1"/>
      </contour>
      <contour>
        <pt x="666" y="0" on="1"/>
        <pt x="666" y="154" on="1"/>
        <pt x="819" y="154" on="1"/>
        <pt x="819" y="0" on="1"/>
      </contour>
      <contour>
        <pt x="1188" y="0" on="1"/>
        <pt x="1188" y="154" on="1"/>
        <pt x="1341" y="154" on="1"/>
        <pt x="1341" y="0" on="1"/>
      </contour>
    </TTGlyph>
    <TTGlyph name="emdash" xMin="102" yMin="627" xMax="1946" yMax="743">
      <contour>
        <pt x="1946" y="743" on="1"/>
        <pt x="1946" y="627" on="1"/>
        <pt x="102" y="627" on="1"/>
        <pt x="102" y="743" on="1"/>
      </contour>
    </TTGlyph>
    <TTGlyph name="endash" xMin="102" yMin="627" xMax="1024" yMax="743">
      <contour>
        <pt x="1024" y="743" on="1"/>
        <pt x="1024" y="627" on="1"/>
        <pt x="102" y="627" on="1"/>
        <pt x="102" y="743" on="1"/>
      </contour>
    </TTGlyph>
    <TTGlyph name="equal" xMin="164" yMin="463" xMax="1188" yMax="973">
      <contour>
        <pt x="1188" y="973" on="1"/>
        <pt x="1188" y="844" on="1"/>
        <pt x="164" y="844" on="1"/>
        <pt x="164" y="973" on="1"/>
      </contour>
      <contour>
        <pt x="1188" y="592" on="1"/>
        <pt x="1188" y="463" on="1"/>
        <pt x="164" y="463" on="1"/>
        <pt x="164" y="592" on="1"/>
      </contour>
    </TTGlyph>
    <TTGlyph name="eth" xMin="123" yMin="-20" xMax="848" yMax="1434">
      <contour>
        <pt x="498" y="1264" on="1"/>
        <pt x="456" y="1313" on="0"/>
        <pt x="359" y="1398" on="0"/>
        <pt x="309" y="1434" on="1"/>
        <pt x="457" y="1434" on="1"/>
        <pt x="536" y="1382" on="0"/>
        <pt x="608" y="1296" on="1"/>
        <pt x="827" y="1360" on="1"/>
        <pt x="848" y="1294" on="1"/>
        <pt x="651" y="1237" on="1"/>
        <pt x="720" y="1137" on="0"/>
        <pt x="807" y="886" on="0"/>
        <pt x="807" y="743" on="1"/>
        <pt x="807" y="281" on="1"/>
        <pt x="807" y="219" on="0"/>
        <pt x="760" y="109" on="0"/>
        <pt x="678" y="27" on="0"/>
        <pt x="568" y="-20" on="0"/>
        <pt x="506" y="-20" on="1"/>
        <pt x="424" y="-20" on="1"/>
        <pt x="362" y="-20" on="0"/>
        <pt x="252" y="27" on="0"/>
        <pt x="170" y="109" on="0"/>
        <pt x="123" y="219" on="0"/>
        <pt x="123" y="281" on="1"/>
        <pt x="123" y="743" on="1"/>
        <pt x="123" y="805" on="0"/>
        <pt x="170" y="915" on="0"/>
        <pt x="252" y="997" on="0"/>
        <pt x="362" y="1044" on="0"/>
        <pt x="424" y="1044" on="1"/>
        <pt x="506" y="1044" on="1"/>
        <pt x="572" y="1044" on="0"/>
        <pt x="633" y="1016" on="1"/>
        <pt x="604" y="1118" on="0"/>
        <pt x="543" y="1206" on="1"/>
        <pt x="315" y="1141" on="1"/>
        <pt x="297" y="1206" on="1"/>
      </contour>
      <contour>
        <pt x="684" y="750" on="1"/>
        <pt x="684" y="787" on="0"/>
        <pt x="656" y="852" on="0"/>
        <pt x="608" y="900" on="0"/>
        <pt x="543" y="928" on="0"/>
        <pt x="506" y="928" on="1"/>
        <pt x="424" y="928" on="1"/>
        <pt x="387" y="928" on="0"/>
        <pt x="322" y="900" on="0"/>
        <pt x="274" y="852" on="0"/>
        <pt x="246" y="787" on="0"/>
        <pt x="246" y="750" on="1"/>
        <pt x="246" y="274" on="1"/>
        <pt x="246" y="237" on="0"/>
        <pt x="274" y="172" on="0"/>
        <pt x="322" y="124" on="0"/>
        <pt x="387" y="96" on="0"/>
        <pt x="424" y="96" on="1"/>
        <pt x="506" y="96" on="1"/>
        <pt x="543" y="96" on="0"/>
        <pt x="608" y="124" on="0"/>
        <pt x="656" y="172" on="0"/>
        <pt x="684" y="237" on="0"/>
        <pt x="684" y="274" on="1"/>
      </contour>
    </TTGlyph>
    <TTGlyph name="exclam" xMin="123" yMin="0" xMax="305" yMax="1434">
      <contour>
        <pt x="250" y="434" on="1"/>
        <pt x="178" y="434" on="1"/>
        <pt x="123" y="1434" on="1"/>
        <pt x="305" y="1434" on="1"/>
      </contour>
      <contour>
        <pt x="137" y="0" on="1"/>
        <pt x="137" y="154" on="1"/>
        <pt x="291" y="154" on="1"/>
        <pt x="291" y="0" on="1"/>
      </contour>
    </TTGlyph>
    <TTGlyph name="exclamdown" xMin="123" yMin="-410" xMax="305" yMax="1024">
      <contour>
        <pt x="305" y="-410" on="1"/>
        <pt x="123" y="-410" on="1"/>
        <pt x="178" y="590" on="1"/>
        <pt x="250" y="590" on="1"/>
      </contour>
      <contour>
        <pt x="291" y="1024" on="1"/>
        <pt x="291" y="870" on="1"/>
        <pt x="137" y="870" on="1"/>
        <pt x="137" y="1024" on="1"/>
      </contour>
    </TTGlyph>
    <TTGlyph name="f" xMin="20" yMin="0" xMax="588" yMax="1434">
      <contour>
        <pt x="475" y="1317" on="1"/>
        <pt x="444" y="1317" on="0"/>
        <pt x="391" y="1294" on="0"/>
        <pt x="351" y="1254" on="0"/>
        <pt x="328" y="1200" on="0"/>
        <pt x="328" y="1169" on="1"/>
        <pt x="328" y="1024" on="1"/>
        <pt x="567" y="1024" on="1"/>
        <pt x="567" y="907" on="1"/>
        <pt x="328" y="907" on="1"/>
        <pt x="328" y="0" on="1"/>
        <pt x="205" y="0" on="1"/>
        <pt x="205" y="907" on="1"/>
        <pt x="20" y="907" on="1"/>
        <pt x="20" y="1024" on="1"/>
        <pt x="205" y="1024" on="1"/>
        <pt x="205" y="1163" on="1"/>
        <pt x="205" y="1219" on="0"/>
        <pt x="247" y="1318" on="0"/>
        <pt x="321" y="1392" on="0"/>
        <pt x="419" y="1434" on="0"/>
        <pt x="475" y="1434" on="1"/>
        <pt x="588" y="1434" on="1"/>
        <pt x="588" y="1317" on="1"/>
      </contour>
    </TTGlyph>
    <TTGlyph name="five" xMin="143" yMin="-20" xMax="909" yMax="1434">
      <contour>
        <pt x="909" y="332" on="1"/>
        <pt x="909" y="259" on="0"/>
        <pt x="854" y="131" on="0"/>
        <pt x="758" y="35" on="0"/>
        <pt x="630" y="-20" on="0"/>
        <pt x="557" y="-20" on="1"/>
        <pt x="496" y="-20" on="1"/>
        <pt x="423" y="-20" on="0"/>
        <pt x="294" y="35" on="0"/>
        <pt x="198" y="131" on="0"/>
        <pt x="143" y="259" on="0"/>
        <pt x="143" y="332" on="1"/>
        <pt x="143" y="354" on="1"/>
        <pt x="272" y="354" on="1"/>
        <pt x="272" y="332" on="1"/>
        <pt x="272" y="284" on="0"/>
        <pt x="308" y="201" on="0"/>
        <pt x="371" y="138" on="0"/>
        <pt x="454" y="102" on="0"/>
        <pt x="502" y="102" on="1"/>
        <pt x="551" y="102" on="1"/>
        <pt x="599" y="102" on="0"/>
        <pt x="682" y="138" on="0"/>
        <pt x="744" y="201" on="0"/>
        <pt x="780" y="284" on="0"/>
        <pt x="780" y="332" on="1"/>
        <pt x="780" y="610" on="1"/>
        <pt x="780" y="658" on="0"/>
        <pt x="744" y="741" on="0"/>
        <pt x="682" y="804" on="0"/>
        <pt x="599" y="840" on="0"/>
        <pt x="551" y="840" on="1"/>
        <pt x="502" y="840" on="1"/>
        <pt x="454" y="840" on="0"/>
        <pt x="371" y="804" on="0"/>
        <pt x="308" y="741" on="0"/>
        <pt x="272" y="658" on="0"/>
        <pt x="272" y="610" on="1"/>
        <pt x="143" y="610" on="1"/>
        <pt x="225" y="1434" on="1"/>
        <pt x="838" y="1434" on="1"/>
        <pt x="838" y="1311" on="1"/>
        <pt x="346" y="1311" on="1"/>
        <pt x="299" y="870" on="1"/>
        <pt x="345" y="914" on="0"/>
        <pt x="467" y="963" on="0"/>
        <pt x="537" y="963" on="1"/>
        <pt x="557" y="963" on="1"/>
        <pt x="630" y="963" on="0"/>
        <pt x="758" y="908" on="0"/>
        <pt x="854" y="812" on="0"/>
        <pt x="909" y="683" on="0"/>
        <pt x="909" y="610" on="1"/>
        <pt x="909" y="332" on="1"/>
      </contour>
    </TTGlyph>
    <TTGlyph name="florin" xMin="-102" yMin="-410" xMax="799" yMax="1434">
      <contour>
        <pt x="317" y="743" on="1"/>
        <pt x="133" y="743" on="1"/>
        <pt x="150" y="860" on="1"/>
        <pt x="334" y="860" on="1"/>
        <pt x="377" y="1163" on="1"/>
        <pt x="385" y="1219" on="0"/>
        <pt x="441" y="1318" on="0"/>
        <pt x="525" y="1392" on="0"/>
        <pt x="630" y="1434" on="0"/>
        <pt x="686" y="1434" on="1"/>
        <pt x="799" y="1434" on="1"/>
        <pt x="782" y="1317" on="1"/>
        <pt x="670" y="1317" on="1"/>
        <pt x="639" y="1317" on="0"/>
        <pt x="582" y="1294" on="0"/>
        <pt x="536" y="1254" on="0"/>
        <pt x="506" y="1200" on="0"/>
        <pt x="502" y="1169" on="1"/>
        <pt x="457" y="860" on="1"/>
        <pt x="696" y="860" on="1"/>
        <pt x="680" y="743" on="1"/>
        <pt x="440" y="743" on="1"/>
        <pt x="317" y="-139" on="1"/>
        <pt x="310" y="-195" on="0"/>
        <pt x="253" y="-294" on="0"/>
        <pt x="170" y="-368" on="0"/>
        <pt x="66" y="-410" on="0"/>
        <pt x="10" y="-410" on="1"/>
        <pt x="-102" y="-410" on="1"/>
        <pt x="-86" y="-293" on="1"/>
        <pt x="27" y="-293" on="1"/>
        <pt x="57" y="-293" on="0"/>
        <pt x="113" y="-270" on="0"/>
        <pt x="158" y="-230" on="0"/>
        <pt x="189" y="-176" on="0"/>
        <pt x="193" y="-145" on="1"/>
      </contour>
    </TTGlyph>
    <TTGlyph name="foundryicon" xMin="123" yMin="-39" xMax="1630" yMax="1475">
      <contour>
        <pt x="1290" y="84" on="1"/>
        <pt x="1199" y="27" on="0"/>
        <pt x="989" y="-39" on="0"/>
        <pt x="874" y="-39" on="1"/>
        <pt x="770" y="-39" on="0"/>
        <pt x="578" y="15" on="0"/>
        <pt x="411" y="113" on="0"/>
        <pt x="274" y="252" on="0"/>
        <pt x="177" y="420" on="0"/>
        <pt x="123" y="614" on="0"/>
        <pt x="123" y="719" on="1"/>
        <pt x="123" y="821" on="0"/>
        <pt x="174" y="1007" on="0"/>
        <pt x="254" y="1148" on="0"/>
        <pt x="352" y="1231" on="0"/>
        <pt x="399" y="1231" on="1"/>
        <pt x="447" y="1231" on="0"/>
        <pt x="498" y="1176" on="0"/>
        <pt x="498" y="1126" on="1"/>
        <pt x="498" y="1097" on="0"/>
        <pt x="480" y="990" on="0"/>
        <pt x="453" y="860" on="0"/>
        <pt x="422" y="724" on="0"/>
        <pt x="395" y="609" on="0"/>
        <pt x="377" y="529" on="0"/>
        <pt x="377" y="522" on="1"/>
        <pt x="377" y="510" on="0"/>
        <pt x="398" y="500" on="0"/>
        <pt x="412" y="500" on="1"/>
        <pt x="429" y="500" on="0"/>
        <pt x="493" y="510" on="0"/>
        <pt x="559" y="526" on="0"/>
        <pt x="612" y="544" on="0"/>
        <pt x="616" y="553" on="1"/>
        <pt x="617" y="557" on="0"/>
        <pt x="628" y="605" on="0"/>
        <pt x="646" y="681" on="0"/>
        <pt x="667" y="778" on="0"/>
        <pt x="689" y="883" on="0"/>
        <pt x="711" y="989" on="0"/>
        <pt x="727" y="1084" on="0"/>
        <pt x="737" y="1160" on="0"/>
        <pt x="737" y="1182" on="1"/>
        <pt x="737" y="1226" on="0"/>
        <pt x="700" y="1289" on="0"/>
        <pt x="637" y="1330" on="0"/>
        <pt x="553" y="1350" on="0"/>
        <pt x="506" y="1350" on="1"/>
        <pt x="501" y="1350" on="0"/>
        <pt x="487" y="1349" on="0"/>
        <pt x="481" y="1348" on="1"/>
        <pt x="474" y="1347" on="0"/>
        <pt x="467" y="1346" on="1"/>
        <pt x="463" y="1352" on="1"/>
        <pt x="553" y="1409" on="0"/>
        <pt x="759" y="1475" on="0"/>
        <pt x="874" y="1475" on="1"/>
        <pt x="979" y="1475" on="0"/>
        <pt x="1173" y="1421" on="0"/>
        <pt x="1341" y="1323" on="0"/>
        <pt x="1478" y="1184" on="0"/>
        <pt x="1576" y="1016" on="0"/>
        <pt x="1630" y="822" on="0"/>
        <pt x="1630" y="717" on="1"/>
        <pt x="1630" y="615" on="0"/>
        <pt x="1579" y="429" on="0"/>
        <pt x="1499" y="288" on="0"/>
        <pt x="1401" y="205" on="0"/>
        <pt x="1354" y="205" on="1"/>
        <pt x="1306" y="205" on="0"/>
        <pt x="1255" y="260" on="0"/>
        <pt x="1255" y="309" on="1"/>
        <pt x="1255" y="338" on="0"/>
        <pt x="1273" y="446" on="0"/>
        <pt x="1300" y="575" on="0"/>
        <pt x="1331" y="712" on="0"/>
        <pt x="1358" y="826" on="0"/>
        <pt x="1376" y="905" on="0"/>
        <pt x="1376" y="911" on="1"/>
        <pt x="1376" y="925" on="0"/>
        <pt x="1355" y="936" on="0"/>
        <pt x="1341" y="936" on="1"/>
        <pt x="1324" y="936" on="0"/>
        <pt x="1260" y="926" on="0"/>
        <pt x="1194" y="910" on="0"/>
        <pt x="1142" y="891" on="0"/>
        <pt x="1137" y="883" on="1"/>
        <pt x="1136" y="878" on="0"/>
        <pt x="1117" y="797" on="0"/>
        <pt x="1090" y="677" on="0"/>
        <pt x="1060" y="533" on="0"/>
        <pt x="1033" y="397" on="0"/>
        <pt x="1016" y="284" on="0"/>
        <pt x="1016" y="254" on="1"/>
        <pt x="1016" y="210" on="0"/>
        <pt x="1053" y="147" on="0"/>
        <pt x="1116" y="106" on="0"/>
        <pt x="1200" y="86" on="0"/>
        <pt x="1247" y="86" on="1"/>
        <pt x="1253" y="86" on="0"/>
        <pt x="1266" y="86" on="0"/>
        <pt x="1272" y="87" on="1"/>
        <pt x="1279" y="88" on="0"/>
        <pt x="1286" y="88" on="1"/>
        <pt x="1290" y="84" on="1"/>
      </contour>
      <contour>
        <pt x="934" y="459" on="1"/>
        <pt x="936" y="469" on="0"/>
        <pt x="955" y="553" on="0"/>
        <pt x="981" y="669" on="0"/>
        <pt x="1010" y="800" on="0"/>
        <pt x="1035" y="915" on="0"/>
        <pt x="1051" y="998" on="0"/>
        <pt x="1051" y="1008" on="1"/>
        <pt x="1051" y="1019" on="0"/>
        <pt x="1033" y="1026" on="0"/>
        <pt x="1018" y="1026" on="1"/>
        <pt x="1003" y="1026" on="0"/>
        <pt x="948" y="1019" on="0"/>
        <pt x="888" y="1007" on="0"/>
        <pt x="834" y="989" on="0"/>
        <pt x="819" y="977" on="1"/>
        <pt x="817" y="967" on="0"/>
        <pt x="798" y="883" on="0"/>
        <pt x="772" y="767" on="0"/>
        <pt x="743" y="636" on="0"/>
        <pt x="718" y="521" on="0"/>
        <pt x="702" y="438" on="0"/>
        <pt x="702" y="428" on="1"/>
        <pt x="702" y="417" on="0"/>
        <pt x="720" y="408" on="0"/>
        <pt x="735" y="408" on="1"/>
        <pt x="750" y="408" on="0"/>
        <pt x="805" y="415" on="0"/>
        <pt x="865" y="429" on="0"/>
        <pt x="919" y="447" on="0"/>
      </contour>
    </TTGlyph>
    <TTGlyph name="four" xMin="61" yMin="0" xMax="889" yMax="1434">
      <contour>
        <pt x="766" y="248" on="1"/>
        <pt x="766" y="0" on="1"/>
        <pt x="637" y="0" on="1"/>
        <pt x="637" y="248" on="1"/>
        <pt x="61" y="248" on="1"/>
        <pt x="61" y="309" on="1"/>
        <pt x="698" y="1434" on="1"/>
        <pt x="766" y="1434" on="1"/>
        <pt x="766" y="371" on="1"/>
        <pt x="889" y="371" on="1"/>
        <pt x="889" y="248" on="1"/>
      </contour>
      <contour>
        <pt x="637" y="1081" on="1"/>
        <pt x="242" y="371" on="1"/>
        <pt x="637" y="371" on="1"/>
      </contour>
    </TTGlyph>
    <TTGlyph name="fraction" xMin="2" yMin="0" xMax="934" yMax="1434">
      <contour>
        <pt x="2" y="0" on="1"/>
        <pt x="819" y="1434" on="1"/>
        <pt x="934" y="1434" on="1"/>
        <pt x="117" y="0" on="1"/>
      </contour>
    </TTGlyph>
</ttFont>
